<?xml version="1.0" encoding="utf-8"?>
<!-- Generator: Adobe Illustrator 24.1.1, SVG Export Plug-In . SVG Version: 6.00 Build 0)  -->
<svg version="1.1" id="Calque_1" xmlns="http://www.w3.org/2000/svg" xmlns:xlink="http://www.w3.org/1999/xlink" x="0px" y="0px"
	 viewBox="0 0 800 800" style="enable-background:new 0 0 800 800;" xml:space="preserve">
<style type="text/css">
	.st0{display:none;}
	.st1{display:inline;fill-rule:evenodd;clip-rule:evenodd;fill:#FDEB18;}
	.st2{display:inline;fill-rule:evenodd;clip-rule:evenodd;fill:#FFFFFF;fill-opacity:0.502;}
	.st3{display:inline;fill-rule:evenodd;clip-rule:evenodd;fill:#313131;}
	.st4{display:inline;fill-rule:evenodd;clip-rule:evenodd;fill:#7DC4E9;}
	.st5{display:inline;fill-rule:evenodd;clip-rule:evenodd;fill:#64BCE9;}
	.st6{display:inline;fill-rule:evenodd;clip-rule:evenodd;fill:#020203;}
	.st7{display:inline;fill-rule:evenodd;clip-rule:evenodd;fill:#EC676A;}
	.st8{display:inline;fill-rule:evenodd;clip-rule:evenodd;fill:#4E83C4;}
	.st9{display:inline;fill-rule:evenodd;clip-rule:evenodd;fill:#407FC1;}
	.st10{display:inline;fill-rule:evenodd;clip-rule:evenodd;fill:#5F99D2;}
	.st11{display:inline;fill-rule:evenodd;clip-rule:evenodd;fill:#FFFFFF;}
	.st12{display:inline;fill-rule:evenodd;clip-rule:evenodd;fill:#E94748;}
	.st13{display:inline;fill-rule:evenodd;clip-rule:evenodd;fill:#E63A3A;}
	.st14{display:inline;fill-rule:evenodd;clip-rule:evenodd;fill:#EC6565;}
	.st15{fill-rule:evenodd;clip-rule:evenodd;fill:#FDEB18;}
	.st16{fill-rule:evenodd;clip-rule:evenodd;fill:#FFFFFF;fill-opacity:0.502;}
	.st17{fill-rule:evenodd;clip-rule:evenodd;fill:#020203;}
	.st18{fill-rule:evenodd;clip-rule:evenodd;fill:#EC676A;}
	.st19{fill-rule:evenodd;clip-rule:evenodd;fill:#E62C2A;}
	.st20{fill-rule:evenodd;clip-rule:evenodd;fill:#414142;}
	.st21{fill-rule:evenodd;clip-rule:evenodd;fill:#313131;}
	.st22{fill-rule:evenodd;clip-rule:evenodd;fill:#FFFFFF;}
	.st23{fill-rule:evenodd;clip-rule:evenodd;fill:#F1F2F2;}
	.st24{fill-rule:evenodd;clip-rule:evenodd;fill:#4E83C4;}
	.st25{fill-rule:evenodd;clip-rule:evenodd;fill:#407FC1;}
	.st26{fill-rule:evenodd;clip-rule:evenodd;fill:#5F99D2;}
</style>
<g id="Calque_1_1_" class="st0">
	<path class="st1" d="M592.2,636.5c-10.5,2.8-21.4-3.5-24.1-14c-2.8-10.5,3.5-21.4,14-24.2c10.6-2.8,21.4,3.5,24.2,14
		C609,622.9,602.7,633.7,592.2,636.5z"/>
	<path class="st2" d="M593.9,601.6c8.8,5.1,11.7,16.3,6.6,25.1c-3,5.1-8.1,8.3-13.5,9c6.3,0,12.5-3.3,15.9-9.1
		c5.1-8.8,2.1-20-6.6-25.1c-3.7-2.1-7.7-2.8-11.6-2.3C587.9,599.1,591,599.9,593.9,601.6z"/>
	<path class="st3" d="M592.2,608.1c0.1-0.2,0.3-0.4,0.6-0.4c0.5-0.1,0.9,0.3,0.9,0.7l0.5,3.6l3-1.7c0.4-0.2,0.9-0.1,1.1,0.3
		c0.2,0.4,0.1,0.9-0.3,1.1L594,614c-0.2,0.1-0.5,0.1-0.8,0c-0.3-0.1-0.4-0.3-0.5-0.6l-0.7-4.8C592,608.4,592.1,608.2,592.2,608.1z"
		/>
	<path class="st3" d="M581.5,626.5c0.1-0.2,0.2-0.3,0.4-0.3l4.5-1.8c0.2-0.1,0.5-0.1,0.8,0.1c0.2,0.2,0.4,0.4,0.4,0.7l0,4.7
		c0,0.5-0.4,0.8-0.8,0.8c-0.5,0-0.8-0.4-0.8-0.8l0-3.4l-3.4,1.3c-0.4,0.2-0.9,0-1.1-0.5C581.3,627,581.3,626.7,581.5,626.5z"/>
	<path class="st4" d="M581.3,628.5c-6.8-5.7-10.7-4.9-10.7-4.9c-2.9,0.1-5.1,2.5-5.1,5.3c0.1,2.9,2.5,5.1,5.3,5.1
		C570.9,634,574.8,634.5,581.3,628.5z"/>
	<path class="st5" d="M567.2,625c-1,1-1.7,2.4-1.6,3.9c0.1,2.9,2.5,5.1,5.3,5.1c0,0,1.6,0.2,4.5-1.3
		C568.7,631.9,567.4,627.7,567.2,625z"/>
	<path class="st4" d="M594.1,606.8c1.8-8.7-0.7-11.7-0.7-11.7c-1.4-2.5-4.6-3.4-7.1-2c-2.5,1.4-3.4,4.6-2,7.1
		C584.4,600.2,585.7,603.9,594.1,606.8z"/>
	<path class="st5" d="M590.6,592.7c-1.3-0.5-2.9-0.4-4.2,0.4c-2.5,1.4-3.4,4.6-2,7.1c0,0,0.6,1.5,3.2,3.4
		C585.2,597.2,588.3,594.1,590.6,592.7z"/>
	<path class="st6" d="M590.5,606.3c-5.2-2.3-11.5-0.3-14.4,4.7c-3,5.1-1.5,11.5,3,14.9L590.5,606.3z"/>
	<path class="st7" d="M582.7,605.8c-2.7,0.8-5.1,2.6-6.6,5.2c-1.5,2.5-1.8,5.3-1.3,8l0.3,0C582.1,614.3,582.7,606,582.7,605.8z"/>
	<path class="st8" d="M85,218.1c3.9-4.1,10.5-4.3,14.6-0.3c4.1,3.9,4.3,10.5,0.3,14.6c-3.9,4.1-10.5,4.3-14.6,0.3
		C81.2,228.8,81,222.2,85,218.1z"/>
	<path class="st9" d="M88.2,215.8c1.9,0.1,3.8,0.7,5.5,1.8c4.7,3.2,5.9,9.7,2.7,14.4c-1.1,1.6-2.6,2.8-4.3,3.6
		c3.4,0.1,6.8-1.5,8.9-4.5c3.2-4.7,2-11.1-2.7-14.4C95.2,214.6,91.4,214.4,88.2,215.8z"/>
	<path class="st10" d="M88.3,233.2c-4.4-3-5.5-9-2.5-13.3c1.8-2.6,4.5-4,7.4-4.1c-3.3-0.3-6.7,1.2-8.7,4.1c-3,4.4-1.9,10.3,2.5,13.3
		c1.8,1.3,3.9,1.8,5.9,1.7C91.3,234.8,89.7,234.2,88.3,233.2z"/>
	<path class="st11" d="M93.8,219l-0.9,1.4l-0.4,0.5l-0.7,1c-0.1,0.1-0.2,0.1-0.2,0c-0.3-0.4-0.8-0.7-1.2-1c-0.2-0.2-0.5-0.4-0.8-0.5
		c-0.3-0.2-0.6-0.3-0.9-0.3c-0.4,0-0.7,0.2-0.9,0.5c-0.5,0.7,0.1,1.2,0.6,1.7c0.6,0.5,1.2,1,1.6,1.7c0.3,0.5,0.4,1,0.3,1.5
		c-0.1,0.4-0.2,0.7-0.3,1.1c0,0.1,0,0.1,0.1,0.2l4.4,3c0.1,0,0.2,0,0.2,0l0.8-1.2c0,0,0.1-0.1,0.1-0.1c0.5,0,1-0.3,1.3-0.7l1.3-1.9
		l0.9-1.4l0.4-0.5c0.4-0.5,0.2-1.3-0.3-1.7l0,0c-0.1-0.1-0.3-0.2-0.5-0.2c-0.1,0-0.1-0.1-0.1-0.1c0-0.3-0.3-0.7-0.6-0.9l-0.1-0.1
		c-0.1-0.1-0.3-0.2-0.5-0.2c-0.1,0-0.1-0.1-0.1-0.1c0-0.3-0.2-0.6-0.5-0.8l-0.1-0.1c-0.1-0.1-0.3-0.2-0.5-0.2
		c-0.1,0-0.1-0.1-0.1-0.1c0-0.3-0.2-0.6-0.5-0.8l0,0C95,218.3,94.2,218.4,93.8,219z"/>
	<path class="st11" d="M94.3,231l-1.2,1.8c-0.1,0.1-0.3,0.2-0.5,0.1l-5-3.4c-0.1-0.1-0.2-0.3-0.1-0.5l1.2-1.8
		c0.1-0.1,0.3-0.2,0.5-0.1l5,3.4C94.3,230.7,94.4,230.9,94.3,231z"/>
	<path class="st12" d="M279.5,57.7c0.8-4.9,5.4-8.3,10.3-7.6c4.9,0.8,8.3,5.4,7.6,10.3c-0.8,4.9-5.4,8.3-10.3,7.6
		C282.1,67.3,278.7,62.7,279.5,57.7z"/>
	<path class="st13" d="M279.4,59.9c0.6-1.6,1.6-3,3.1-4c4-3,9.7-2.1,12.6,2c1,1.4,1.6,3,1.7,4.6c1.1-2.8,0.8-6-1.1-8.6
		c-3-4-8.6-4.9-12.6-2C280.4,53.8,279.2,56.8,279.4,59.9z"/>
	<path class="st14" d="M293.8,64.9c-3.7,2.7-9,1.9-11.7-1.8c-1.6-2.2-2-4.9-1.3-7.3c-1.2,2.7-0.9,5.9,0.9,8.4
		c2.7,3.7,8,4.5,11.7,1.8c1.6-1.1,2.6-2.7,3.1-4.4C296,62.8,295,64,293.8,64.9z"/>
	<path class="st11" d="M284.4,55.4C284.4,55.4,284.4,55.5,284.4,55.4c-1.3,1-1.8,2.7-0.8,4.1c0.8,1.1,2.1,1.2,3,0.8l0,0
		c-0.6,0.8-0.9,2-0.1,3.1c1,1.4,2.9,1.5,4.2,0.5c0,0,0,0,0,0c0.3-0.2,3.1-2.3,2.3-8.3l0,0l0,0l0,0l0,0l0,0l0,0
		C287.6,53.2,284.7,55.2,284.4,55.4z"/>
	<path class="st12" d="M700.4,739.7c0.8-4.9,5.4-8.3,10.3-7.6c4.9,0.8,8.3,5.4,7.6,10.3c-0.8,4.9-5.4,8.3-10.3,7.6
		C703,749.2,699.6,744.6,700.4,739.7z"/>
	<path class="st13" d="M700.3,741.8c0.6-1.6,1.6-3,3.1-4c4-3,9.7-2.1,12.6,2c1,1.4,1.6,3,1.7,4.6c1.1-2.8,0.8-6-1.1-8.6
		c-3-4-8.6-4.9-12.6-1.9C701.3,735.7,700.1,738.8,700.3,741.8z"/>
	<path class="st14" d="M714.7,746.8c-3.7,2.7-9,1.9-11.7-1.8c-1.6-2.2-2-4.9-1.3-7.3c-1.2,2.7-0.9,5.9,0.9,8.4
		c2.7,3.7,8,4.5,11.7,1.8c1.6-1.1,2.6-2.7,3.1-4.4C716.9,744.7,715.9,745.9,714.7,746.8z"/>
	<path class="st11" d="M705.3,737.4C705.3,737.4,705.3,737.4,705.3,737.4c-1.3,1-1.8,2.7-0.8,4.1c0.8,1.1,2.1,1.2,3,0.8l0,0
		c-0.6,0.8-0.9,2-0.1,3.1c1,1.4,2.9,1.5,4.2,0.5c0,0,0,0,0,0c0.3-0.2,3.1-2.3,2.3-8.3l0,0l0,0l0,0l0,0l0,0l0,0
		C708.4,735.1,705.6,737.1,705.3,737.4z"/>
</g>
<g id="Calque_2_1_">
	<path class="st15" d="M290.1,130.7c9.7,5.3,13.3,17.4,8.1,27.1c-5.3,9.7-17.4,13.3-27.1,8.1c-9.7-5.3-13.3-17.4-8-27.1
		C268.2,129.1,280.4,125.5,290.1,130.7z"/>
	<path class="st16" d="M263.6,144.6c3.4-9.7,13.9-14.8,23.6-11.4c5.6,2,9.8,6.4,11.5,11.7c-1.2-6.3-5.6-11.8-12.1-14.1
		c-9.7-3.4-20.2,1.7-23.6,11.4c-1.4,4-1.3,8.2-0.1,11.9C262.2,151,262.4,147.8,263.6,144.6z"/>
	<path class="st17" d="M271.2,149.3c-0.9,4.2,1.4,8.5,5.5,9.9c4.1,1.4,8.7-0.5,10.5-4.4L271.2,149.3z"/>
	<path class="st18" d="M271.9,155.2c1,1.9,2.6,3.4,4.8,4.1c2.1,0.7,4.2,0.6,6.1-0.2l0-0.2C278.3,154.4,272,155.1,271.9,155.2z"/>
	<path class="st19" d="M279.9,141.9L279.9,141.9c0.6-1.8-0.1-3.8-2-4.5c-1.5-0.5-2.7,0.3-3.4,1.2l0,0c0.1-1.1-0.4-2.5-1.9-3
		c-1.9-0.7-3.7,0.5-4.3,2.2l0,0c-0.1,0.4-1.5,4.2,3.3,9.4l0,0l0,0l0,0l0,0l0,0l0,0C278.4,146.1,279.7,142.3,279.9,141.9z"/>
	<path class="st19" d="M296.7,147.8L296.7,147.8c0.6-1.8-0.1-3.8-2-4.5c-1.5-0.5-2.7,0.3-3.4,1.2l0,0c0.1-1.1-0.4-2.5-1.9-3
		c-1.9-0.7-3.7,0.5-4.3,2.2l0,0c-0.1,0.4-1.5,4.2,3.3,9.4l0,0l0,0l0,0l0,0l0,0l0,0C295.3,152,296.6,148.1,296.7,147.8z"/>
	<path class="st15" d="M120.7,474.1c3.9,10.3-1.4,21.8-11.7,25.7c-10.3,3.9-21.8-1.4-25.7-11.7c-3.9-10.3,1.4-21.8,11.7-25.7
		C105.3,458.5,116.8,463.8,120.7,474.1z"/>
	<path class="st16" d="M85.4,475.9c4.3-9.3,15.2-13.4,24.6-9.2c5.4,2.5,9.1,7.3,10.4,12.7c-0.6-6.4-4.5-12.3-10.8-15.1
		c-9.3-4.3-20.3-0.1-24.6,9.2c-1.8,3.9-2.1,8-1.2,11.9C83.5,482.2,84,478.9,85.4,475.9z"/>
	<path class="st17" d="M92.8,481.5c-0.3-0.7-1.2-0.5-1.3,0.2c-0.2,4,2,7.8,5.9,9.6c3.8,1.7,8.1,0.9,10.9-1.7c0.5-0.5,0-1.3-0.7-1.1
		C103.8,489.9,96.5,490.9,92.8,481.5z"/>
	<path class="st17" d="M118,480.1l-7.7-2.7c-0.1,0-0.2-0.1-0.3-0.1c-0.1,0-2.6-0.8-5.3-1.9c-0.1,0-0.1-0.1-0.2-0.1
		c-2.6-1.4-4.8-2.7-4.9-2.8c-0.1,0-0.2-0.1-0.2-0.1l-7.1-4c-1.4-0.7-2.6-0.3-3.1,0.9c0,0-0.8,3.2-0.8,3.2c-0.3,1.1-0.5,2-0.3,3.1
		c0.1,0.6,0.4,1.2,0.8,1.6c0.2,0.2,0.4,0.5,0.7,0.7c0.2,0.2,0.5,0.3,0.7,0.4c0.2,0.1,0.6,0.3,0.8,0.4l1.7,0.8
		c0.5,0.2,0.6,0.3,0.7,0.3c0.8,0.4,1.7,0.5,2.5,0.5c1.3-0.1,2.4-0.7,3.4-1.6c0.9-0.9,2.1-1.3,3.3-1.4c0.7-0.1,1.3,0.2,1.7,0.8
		c0.3,0.5,0.6,1.1,0.8,1.8c0.2,0.5,0.2,1,0.3,1.5c0.1,0.6,0,1.1,0.1,1.7c0.1,0.6,0.2,1.1,0.5,1.6c0.5,0.8,1.2,1.5,2.1,2
		c0.1,0.1,0.2,0.1,0.3,0.2c0.1,0,0.2,0.1,0.7,0.3l1.7,0.8c0.2,0.1,0.6,0.2,0.8,0.3c0.3,0.1,0.5,0.2,0.8,0.3c0.3,0.1,0.6,0.1,0.9,0.1
		c0.6,0,1.2-0.2,1.8-0.5c1-0.6,1.6-1.3,2.2-2.3c0,0,1.8-2.6,1.8-2.7C119.9,481.8,119.4,480.7,118,480.1z"/>
	<path class="st20" d="M108.6,486.7c0.1,0,0.2,0.1,0.7,0.3l1.7,0.8c0.2,0.1,0.6,0.2,0.8,0.3c0.3,0.1,0.5,0.2,0.8,0.3
		c0.3,0.1,0.6,0.1,0.9,0.1c0.6,0,1.2-0.2,1.8-0.5c1-0.6,1.6-1.3,2.2-2.3c0,0,1.8-2.6,1.8-2.7c0.1-0.2,0.2-0.3,0.2-0.5
		c-5.8,3.7-10.5,3.1-13.3,2.1c0.5,0.8,1.2,1.4,2,1.9C108.3,486.6,108.4,486.6,108.6,486.7z"/>
	<path class="st20" d="M89,477.2c0.2,0.2,0.4,0.5,0.7,0.7c0.2,0.2,0.5,0.3,0.7,0.4c0.2,0.1,0.6,0.3,0.8,0.4l1.7,0.8
		c0.5,0.2,0.6,0.3,0.7,0.3c0.8,0.4,1.7,0.5,2.5,0.5c1.3-0.1,2.4-0.7,3.4-1.6c0.5-0.5,1-0.8,1.7-1c-6.4,1-10.7-0.3-12.5-1.1
		C88.7,476.9,88.8,477.1,89,477.2z"/>
	<path class="st15" d="M336.7,692.7c10.6,2.9,16.9,13.9,13.9,24.6c-2.9,10.6-13.9,16.9-24.6,13.9c-10.6-2.9-16.9-13.9-13.9-24.6
		C315,696,326,689.8,336.7,692.7z"/>
	<path class="st16" d="M317.4,722.3c-5.1-8.9-1.9-20.2,7-25.3c5.2-2.9,11.2-3.1,16.4-1c-5.5-3.2-12.6-3.6-18.6-0.2
		c-8.9,5.1-12,16.4-7,25.3c2.1,3.7,5.3,6.4,8.9,7.9C321.4,727.5,319.1,725.2,317.4,722.3z"/>
	<path class="st17" d="M339.2,710.4c0.2-0.1,0.4,0,0.5,0.2c0.4,0.8,0.7,1.7,0.7,2.7c0,0.9-0.1,1.9-0.5,2.8c-0.7,1.8-2,3.4-3.7,4.3
		c-1.7,1-3.8,1.4-5.7,1c-2-0.4-3.7-1.5-4.6-3.1c-0.1-0.2-0.1-0.5,0.1-0.5c0.2-0.1,0.4,0.1,0.6,0.1c0.3,0.1,0.6,0.1,0.8,0.1
		c0.5,0.1,1.1,0.1,1.7,0.1c2-0.1,4.1-0.6,5.8-1.8c1.1-0.8,2-1.7,2.7-2.8c0.4-0.7,0.8-1.3,1.1-2.1
		C338.9,711.2,338.9,710.6,339.2,710.4L339.2,710.4z"/>
	<path class="st21" d="M324.3,711.9c0.7,1.2,0.7,2.5-0.1,2.9c-0.7,0.4-1.8-0.2-2.5-1.4c-0.7-1.2-0.7-2.5,0.1-2.9
		C322.5,710,323.6,710.7,324.3,711.9z"/>
	<path class="st21" d="M339,704.5c-1.2-0.9-2.8-1.1-4.1-0.3c-1.3,0.7-2,2.2-1.8,3.6c0,0.3,0.3,0.5,0.5,0.5c0.3,0,0.5-0.1,0.6-0.4
		c0.4-1.5,1.5-3.1,4.3-2.4c0.2,0,0.3,0,0.5-0.1c0.1-0.1,0.2-0.1,0.2-0.2C339.3,705,339.2,704.7,339,704.5z"/>
	<path class="st22" d="M336.2,688.1c2.2,6.9-1.8,11.1-1.8,11.1s5.7-1.3,10.5,4.2c-2.2-6.9,1.8-11.1,1.8-11.1S341,693.6,336.2,688.1z
		"/>
	<path class="st23" d="M336.2,688.1c2.2,6.9-1.8,11.1-1.8,11.1S341.5,696.5,336.2,688.1z"/>
	<path class="st24" d="M710.7,71.7c8.3,6.2,10,18,3.8,26.3s-18,10-26.3,3.8c-8.3-6.2-10-18-3.8-26.3
		C690.6,67.2,702.4,65.5,710.7,71.7z"/>
	<path class="st25" d="M715.6,77.1c0.3,3.5-0.3,7-2.1,10.3c-4.8,9.2-16.2,12.7-25.3,7.9c-3.2-1.7-5.7-4.1-7.4-7
		c0.5,6.2,4.1,11.9,10,15c9.2,4.8,20.5,1.3,25.3-7.9C719.2,89.5,718.8,82.5,715.6,77.1z"/>
	<path class="st26" d="M684.2,81c4.5-8.5,15-11.8,23.5-7.3c5,2.6,8.2,7.3,9.1,12.4c-0.2-6-3.6-11.8-9.3-14.8
		c-8.5-4.5-19.1-1.2-23.5,7.3c-1.9,3.6-2.4,7.4-1.7,11.1C682,86.8,682.7,83.8,684.2,81z"/>
	<path class="st22" d="M711.1,87.9l-2.7-1.4l-1.1-0.6l-2.1-1.1c-0.2-0.1-0.2-0.3-0.1-0.4c0.7-0.7,1.2-1.6,1.6-2.5
		c0.2-0.5,0.6-1,0.8-1.5c0.2-0.6,0.4-1.1,0.3-1.7c-0.1-0.6-0.5-1.2-1-1.5c-1.3-0.7-2.2,0.5-2.9,1.5c-0.8,1.2-1.5,2.4-2.6,3.2
		c-0.8,0.6-1.7,1-2.7,0.9c-0.8-0.1-1.3-0.1-2.1-0.4c-0.1,0-0.2,0-0.3,0.1l-4.5,8.6c-0.1,0.1,0,0.3,0.1,0.4l2.4,1.2
		c0.1,0,0.1,0.1,0.1,0.2c0.1,0.9,0.7,1.7,1.5,2.1l3.7,1.9l2.7,1.4l1.1,0.6c1.1,0.6,2.4,0.2,3-0.9l0,0c0.1-0.3,0.2-0.6,0.2-0.9
		c0-0.1,0.1-0.2,0.2-0.2c0.6-0.1,1.2-0.7,1.5-1.3l0.1-0.2c0.1-0.3,0.2-0.6,0.2-0.9c0-0.1,0.1-0.2,0.2-0.2c0.6-0.1,1.1-0.5,1.4-1
		l0.1-0.2c0.1-0.3,0.2-0.6,0.2-0.9c0-0.1,0.1-0.2,0.2-0.2c0.6-0.1,1.1-0.5,1.4-1l0,0C712.6,89.8,712.2,88.4,711.1,87.9z"/>
	<path class="st22" d="M689.5,91.3l-3.5-1.8c-0.3-0.2-0.4-0.5-0.2-0.8l5.1-9.8c0.2-0.3,0.5-0.4,0.8-0.2l3.5,1.8
		c0.3,0.2,0.4,0.5,0.3,0.8l-5.1,9.8C690.1,91.3,689.8,91.5,689.5,91.3z"/>
</g>
<g id="Calque_3" class="st0">
	<path class="st6" d="M653.3,370c0.7,0,1.2,0.6,1.2,1.2c0,0.7-0.5,1.2-1.2,1.2c-0.7,0-1.2-0.6-1.2-1.2
		C652.1,370.5,652.6,370,653.3,370z M642.4,370c0.7,0,1.2,0.6,1.2,1.2c0,0.7-0.5,1.2-1.2,1.2c-0.7,0-1.2-0.6-1.2-1.2
		C641.1,370.5,641.7,370,642.4,370z M631.4,370c0.7,0,1.2,0.6,1.2,1.2c0,0.7-0.5,1.2-1.2,1.2c-0.7,0-1.2-0.6-1.2-1.2
		C630.1,370.5,630.7,370,631.4,370z M620.4,370c0.7,0,1.2,0.6,1.2,1.2c0,0.7-0.5,1.2-1.2,1.2c-0.7,0-1.2-0.6-1.2-1.2
		C619.2,370.5,619.7,370,620.4,370z M609.4,370c0.7,0,1.2,0.6,1.2,1.2c0,0.7-0.5,1.2-1.2,1.2c-0.7,0-1.2-0.6-1.2-1.2
		C608.2,370.5,608.8,370,609.4,370z M598.5,370c0.7,0,1.2,0.6,1.2,1.2c0,0.7-0.5,1.2-1.2,1.2c-0.7,0-1.2-0.6-1.2-1.2
		C597.2,370.5,597.8,370,598.5,370z M587.5,370c0.7,0,1.2,0.6,1.2,1.2c0,0.7-0.5,1.2-1.2,1.2c-0.7,0-1.2-0.6-1.2-1.2
		C586.3,370.5,586.8,370,587.5,370z M576.5,370c0.7,0,1.2,0.6,1.2,1.2c0,0.7-0.5,1.2-1.2,1.2c-0.7,0-1.2-0.6-1.2-1.2
		C575.3,370.5,575.8,370,576.5,370z M565.6,370c0.7,0,1.2,0.6,1.2,1.2c0,0.7-0.5,1.2-1.2,1.2s-1.2-0.6-1.2-1.2
		C564.3,370.5,564.9,370,565.6,370z M554.8,370c0.7,0,1.2,0.6,1.2,1.2c0,0.7-0.5,1.2-1.2,1.2s-1.2-0.6-1.2-1.2
		C553.6,370.5,554.1,370,554.8,370z M543.8,370c0.7,0,1.2,0.6,1.2,1.2c0,0.7-0.5,1.2-1.2,1.2s-1.2-0.6-1.2-1.2
		C542.6,370.5,543.2,370,543.8,370z M532.9,370c0.7,0,1.2,0.6,1.2,1.2c0,0.7-0.5,1.2-1.2,1.2s-1.2-0.6-1.2-1.2
		C531.7,370.5,532.2,370,532.9,370z M521.9,370c0.7,0,1.2,0.6,1.2,1.2c0,0.7-0.5,1.2-1.2,1.2s-1.2-0.6-1.2-1.2
		C520.7,370.5,521.2,370,521.9,370z M510.9,370c0.7,0,1.2,0.6,1.2,1.2c0,0.7-0.6,1.2-1.2,1.2c-0.7,0-1.2-0.6-1.2-1.2
		C509.7,370.5,510.3,370,510.9,370z M500,370c0.7,0,1.2,0.6,1.2,1.2c0,0.7-0.6,1.2-1.2,1.2c-0.7,0-1.2-0.6-1.2-1.2
		C498.7,370.5,499.3,370,500,370z M489,370c0.7,0,1.2,0.6,1.2,1.2c0,0.7-0.6,1.2-1.2,1.2s-1.2-0.6-1.2-1.2
		C487.8,370.5,488.3,370,489,370z M478,370c0.7,0,1.2,0.6,1.2,1.2c0,0.7-0.6,1.2-1.2,1.2c-0.7,0-1.2-0.6-1.2-1.2
		C476.8,370.5,477.3,370,478,370z M467.1,370c0.7,0,1.2,0.6,1.2,1.2c0,0.7-0.6,1.2-1.2,1.2c-0.7,0-1.2-0.6-1.2-1.2
		C465.8,370.5,466.4,370,467.1,370z M653.3,359c0.7,0,1.2,0.6,1.2,1.2c0,0.7-0.5,1.2-1.2,1.2c-0.7,0-1.2-0.6-1.2-1.2
		C652.1,359.5,652.6,359,653.3,359z M642.4,359c0.7,0,1.2,0.6,1.2,1.2c0,0.7-0.5,1.2-1.2,1.2c-0.7,0-1.2-0.6-1.2-1.2
		S641.7,359,642.4,359z M631.4,359c0.7,0,1.2,0.6,1.2,1.2c0,0.7-0.5,1.2-1.2,1.2c-0.7,0-1.2-0.6-1.2-1.2S630.7,359,631.4,359z
		 M620.4,359c0.7,0,1.2,0.6,1.2,1.2c0,0.7-0.5,1.2-1.2,1.2c-0.7,0-1.2-0.6-1.2-1.2S619.7,359,620.4,359z M609.4,359
		c0.7,0,1.2,0.6,1.2,1.2c0,0.7-0.5,1.2-1.2,1.2c-0.7,0-1.2-0.6-1.2-1.2S608.8,359,609.4,359z M598.5,359c0.7,0,1.2,0.6,1.2,1.2
		c0,0.7-0.5,1.2-1.2,1.2c-0.7,0-1.2-0.6-1.2-1.2C597.2,359.5,597.8,359,598.5,359z M587.5,359c0.7,0,1.2,0.6,1.2,1.2
		c0,0.7-0.5,1.2-1.2,1.2c-0.7,0-1.2-0.6-1.2-1.2C586.3,359.5,586.8,359,587.5,359z M576.5,359c0.7,0,1.2,0.6,1.2,1.2
		c0,0.7-0.5,1.2-1.2,1.2c-0.7,0-1.2-0.6-1.2-1.2C575.3,359.5,575.8,359,576.5,359z M565.6,359c0.7,0,1.2,0.6,1.2,1.2
		c0,0.7-0.5,1.2-1.2,1.2s-1.2-0.6-1.2-1.2S564.9,359,565.6,359z M554.8,359c0.7,0,1.2,0.6,1.2,1.2c0,0.7-0.5,1.2-1.2,1.2
		s-1.2-0.6-1.2-1.2S554.1,359,554.8,359z M543.8,359c0.7,0,1.2,0.6,1.2,1.2c0,0.7-0.5,1.2-1.2,1.2s-1.2-0.6-1.2-1.2
		S543.2,359,543.8,359z M532.9,359c0.7,0,1.2,0.6,1.2,1.2c0,0.7-0.5,1.2-1.2,1.2s-1.2-0.6-1.2-1.2C531.6,359.5,532.2,359,532.9,359z
		 M521.9,359c0.7,0,1.2,0.6,1.2,1.2c0,0.7-0.5,1.2-1.2,1.2s-1.2-0.6-1.2-1.2S521.2,359,521.9,359z M510.9,359c0.7,0,1.2,0.6,1.2,1.2
		c0,0.7-0.6,1.2-1.2,1.2c-0.7,0-1.2-0.6-1.2-1.2S510.3,359,510.9,359z M500,359c0.7,0,1.2,0.6,1.2,1.2c0,0.7-0.6,1.2-1.2,1.2
		c-0.7,0-1.2-0.6-1.2-1.2S499.3,359,500,359z M489,359c0.7,0,1.2,0.6,1.2,1.2c0,0.7-0.6,1.2-1.2,1.2s-1.2-0.6-1.2-1.2
		S488.3,359,489,359z M478,359c0.7,0,1.2,0.6,1.2,1.2c0,0.7-0.6,1.2-1.2,1.2c-0.7,0-1.2-0.6-1.2-1.2S477.3,359,478,359z M467.1,359
		c0.7,0,1.2,0.6,1.2,1.2c0,0.7-0.6,1.2-1.2,1.2c-0.7,0-1.2-0.6-1.2-1.2S466.4,359,467.1,359z M653.3,348c0.7,0,1.2,0.6,1.2,1.2
		s-0.5,1.2-1.2,1.2c-0.7,0-1.2-0.6-1.2-1.2C652.1,348.5,652.6,348,653.3,348z M642.4,348c0.7,0,1.2,0.6,1.2,1.2s-0.5,1.2-1.2,1.2
		c-0.7,0-1.2-0.6-1.2-1.2S641.7,348,642.4,348z M631.4,348c0.7,0,1.2,0.6,1.2,1.2s-0.5,1.2-1.2,1.2c-0.7,0-1.2-0.6-1.2-1.2
		S630.7,348,631.4,348z M620.4,348c0.7,0,1.2,0.6,1.2,1.2s-0.5,1.2-1.2,1.2c-0.7,0-1.2-0.6-1.2-1.2S619.7,348,620.4,348z M609.4,348
		c0.7,0,1.2,0.6,1.2,1.2s-0.5,1.2-1.2,1.2c-0.7,0-1.2-0.6-1.2-1.2S608.8,348,609.4,348z M598.5,348c0.7,0,1.2,0.6,1.2,1.2
		s-0.5,1.2-1.2,1.2c-0.7,0-1.2-0.6-1.2-1.2C597.2,348.5,597.8,348,598.5,348z M587.5,348c0.7,0,1.2,0.6,1.2,1.2s-0.5,1.2-1.2,1.2
		c-0.7,0-1.2-0.6-1.2-1.2C586.3,348.5,586.8,348,587.5,348z M576.5,348c0.7,0,1.2,0.6,1.2,1.2s-0.5,1.2-1.2,1.2
		c-0.7,0-1.2-0.6-1.2-1.2C575.3,348.5,575.8,348,576.5,348z M565.6,348c0.7,0,1.2,0.6,1.2,1.2s-0.5,1.2-1.2,1.2s-1.2-0.6-1.2-1.2
		S564.9,348,565.6,348z M554.8,348c0.7,0,1.2,0.6,1.2,1.2s-0.5,1.2-1.2,1.2s-1.2-0.6-1.2-1.2S554.1,348,554.8,348z M543.8,348
		c0.7,0,1.2,0.6,1.2,1.2s-0.5,1.2-1.2,1.2s-1.2-0.6-1.2-1.2S543.2,348,543.8,348z M532.9,348c0.7,0,1.2,0.6,1.2,1.2
		s-0.5,1.2-1.2,1.2s-1.2-0.6-1.2-1.2C531.6,348.5,532.2,348,532.9,348z M521.9,348c0.7,0,1.2,0.6,1.2,1.2s-0.5,1.2-1.2,1.2
		s-1.2-0.6-1.2-1.2S521.2,348,521.9,348z M510.9,348c0.7,0,1.2,0.6,1.2,1.2s-0.6,1.2-1.2,1.2c-0.7,0-1.2-0.6-1.2-1.2
		S510.3,348,510.9,348z M500,348c0.7,0,1.2,0.6,1.2,1.2s-0.6,1.2-1.2,1.2c-0.7,0-1.2-0.6-1.2-1.2S499.3,348,500,348z M489,348
		c0.7,0,1.2,0.6,1.2,1.2s-0.6,1.2-1.2,1.2s-1.2-0.6-1.2-1.2S488.3,348,489,348z M478,348c0.7,0,1.2,0.6,1.2,1.2s-0.6,1.2-1.2,1.2
		c-0.7,0-1.2-0.6-1.2-1.2S477.3,348,478,348z M467.1,348c0.7,0,1.2,0.6,1.2,1.2s-0.6,1.2-1.2,1.2c-0.7,0-1.2-0.6-1.2-1.2
		S466.4,348,467.1,348z M653.3,337c0.7,0,1.2,0.6,1.2,1.2c0,0.7-0.5,1.2-1.2,1.2c-0.7,0-1.2-0.6-1.2-1.2
		C652.1,337.5,652.6,337,653.3,337z M642.4,337c0.7,0,1.2,0.6,1.2,1.2c0,0.7-0.5,1.2-1.2,1.2c-0.7,0-1.2-0.6-1.2-1.2
		C641.1,337.5,641.7,337,642.4,337z M631.4,337c0.7,0,1.2,0.6,1.2,1.2c0,0.7-0.5,1.2-1.2,1.2c-0.7,0-1.2-0.6-1.2-1.2
		C630.1,337.5,630.7,337,631.4,337z M620.4,337c0.7,0,1.2,0.6,1.2,1.2c0,0.7-0.5,1.2-1.2,1.2c-0.7,0-1.2-0.6-1.2-1.2
		C619.2,337.5,619.7,337,620.4,337z M609.4,337c0.7,0,1.2,0.6,1.2,1.2c0,0.7-0.5,1.2-1.2,1.2c-0.7,0-1.2-0.6-1.2-1.2
		C608.2,337.5,608.8,337,609.4,337z M598.5,337c0.7,0,1.2,0.6,1.2,1.2c0,0.7-0.5,1.2-1.2,1.2c-0.7,0-1.2-0.6-1.2-1.2
		C597.2,337.5,597.8,337,598.5,337z M587.5,337c0.7,0,1.2,0.6,1.2,1.2c0,0.7-0.5,1.2-1.2,1.2c-0.7,0-1.2-0.6-1.2-1.2
		C586.3,337.5,586.8,337,587.5,337z M576.5,337c0.7,0,1.2,0.6,1.2,1.2c0,0.7-0.5,1.2-1.2,1.2c-0.7,0-1.2-0.6-1.2-1.2
		C575.3,337.5,575.8,337,576.5,337z M565.6,337c0.7,0,1.2,0.6,1.2,1.2c0,0.7-0.5,1.2-1.2,1.2s-1.2-0.6-1.2-1.2
		C564.3,337.5,564.9,337,565.6,337z M554.8,337c0.7,0,1.2,0.6,1.2,1.2c0,0.7-0.5,1.2-1.2,1.2s-1.2-0.6-1.2-1.2
		C553.6,337.5,554.1,337,554.8,337z M543.8,337c0.7,0,1.2,0.6,1.2,1.2c0,0.7-0.5,1.2-1.2,1.2s-1.2-0.6-1.2-1.2
		C542.6,337.5,543.2,337,543.8,337z M532.9,337c0.7,0,1.2,0.6,1.2,1.2c0,0.7-0.5,1.2-1.2,1.2s-1.2-0.6-1.2-1.2
		C531.7,337.5,532.2,337,532.9,337z M521.9,337c0.7,0,1.2,0.6,1.2,1.2c0,0.7-0.5,1.2-1.2,1.2s-1.2-0.6-1.2-1.2
		C520.7,337.5,521.2,337,521.9,337z M510.9,337c0.7,0,1.2,0.6,1.2,1.2c0,0.7-0.6,1.2-1.2,1.2c-0.7,0-1.2-0.6-1.2-1.2
		C509.7,337.5,510.3,337,510.9,337z M500,337c0.7,0,1.2,0.6,1.2,1.2c0,0.7-0.6,1.2-1.2,1.2c-0.7,0-1.2-0.6-1.2-1.2
		C498.7,337.5,499.3,337,500,337z M489,337c0.7,0,1.2,0.6,1.2,1.2c0,0.7-0.6,1.2-1.2,1.2s-1.2-0.6-1.2-1.2
		C487.8,337.5,488.3,337,489,337z M478,337c0.7,0,1.2,0.6,1.2,1.2c0,0.7-0.6,1.2-1.2,1.2c-0.7,0-1.2-0.6-1.2-1.2
		C476.8,337.5,477.3,337,478,337z M467.1,337c0.7,0,1.2,0.6,1.2,1.2c0,0.7-0.6,1.2-1.2,1.2c-0.7,0-1.2-0.6-1.2-1.2
		C465.8,337.5,466.4,337,467.1,337z M653.3,325.9c0.7,0,1.2,0.6,1.2,1.2c0,0.7-0.5,1.2-1.2,1.2c-0.7,0-1.2-0.6-1.2-1.2
		C652.1,326.5,652.6,325.9,653.3,325.9z M642.4,325.9c0.7,0,1.2,0.6,1.2,1.2c0,0.7-0.5,1.2-1.2,1.2c-0.7,0-1.2-0.6-1.2-1.2
		C641.1,326.5,641.7,325.9,642.4,325.9z M631.4,325.9c0.7,0,1.2,0.6,1.2,1.2c0,0.7-0.5,1.2-1.2,1.2c-0.7,0-1.2-0.6-1.2-1.2
		C630.1,326.5,630.7,325.9,631.4,325.9z M620.4,325.9c0.7,0,1.2,0.6,1.2,1.2c0,0.7-0.5,1.2-1.2,1.2c-0.7,0-1.2-0.6-1.2-1.2
		C619.2,326.5,619.7,325.9,620.4,325.9z M609.4,325.9c0.7,0,1.2,0.6,1.2,1.2c0,0.7-0.5,1.2-1.2,1.2c-0.7,0-1.2-0.6-1.2-1.2
		C608.2,326.5,608.8,325.9,609.4,325.9z M598.5,325.9c0.7,0,1.2,0.6,1.2,1.2c0,0.7-0.5,1.2-1.2,1.2c-0.7,0-1.2-0.6-1.2-1.2
		C597.2,326.5,597.8,325.9,598.5,325.9z M587.5,325.9c0.7,0,1.2,0.6,1.2,1.2c0,0.7-0.5,1.2-1.2,1.2c-0.7,0-1.2-0.6-1.2-1.2
		C586.3,326.5,586.8,325.9,587.5,325.9z M576.5,325.9c0.7,0,1.2,0.6,1.2,1.2c0,0.7-0.5,1.2-1.2,1.2c-0.7,0-1.2-0.6-1.2-1.2
		C575.3,326.5,575.8,325.9,576.5,325.9z M565.6,325.9c0.7,0,1.2,0.6,1.2,1.2c0,0.7-0.5,1.2-1.2,1.2s-1.2-0.6-1.2-1.2
		C564.3,326.5,564.9,325.9,565.6,325.9z M554.8,325.9c0.7,0,1.2,0.6,1.2,1.2c0,0.7-0.5,1.2-1.2,1.2s-1.2-0.6-1.2-1.2
		C553.6,326.5,554.1,325.9,554.8,325.9z M543.8,325.9c0.7,0,1.2,0.6,1.2,1.2c0,0.7-0.5,1.2-1.2,1.2s-1.2-0.6-1.2-1.2
		C542.6,326.5,543.2,325.9,543.8,325.9z M532.9,325.9c0.7,0,1.2,0.6,1.2,1.2c0,0.7-0.5,1.2-1.2,1.2s-1.2-0.6-1.2-1.2
		C531.6,326.5,532.2,325.9,532.9,325.9z M521.9,325.9c0.7,0,1.2,0.6,1.2,1.2c0,0.7-0.5,1.2-1.2,1.2s-1.2-0.6-1.2-1.2
		C520.7,326.5,521.2,325.9,521.9,325.9z M510.9,325.9c0.7,0,1.2,0.6,1.2,1.2c0,0.7-0.6,1.2-1.2,1.2c-0.7,0-1.2-0.6-1.2-1.2
		C509.7,326.5,510.3,325.9,510.9,325.9z M500,325.9c0.7,0,1.2,0.6,1.2,1.2c0,0.7-0.6,1.2-1.2,1.2c-0.7,0-1.2-0.6-1.2-1.2
		C498.7,326.5,499.3,325.9,500,325.9z M489,325.9c0.7,0,1.2,0.6,1.2,1.2c0,0.7-0.6,1.2-1.2,1.2s-1.2-0.6-1.2-1.2
		C487.8,326.5,488.3,325.9,489,325.9z M478,325.9c0.7,0,1.2,0.6,1.2,1.2c0,0.7-0.6,1.2-1.2,1.2c-0.7,0-1.2-0.6-1.2-1.2
		C476.8,326.5,477.3,325.9,478,325.9z M467.1,325.9c0.7,0,1.2,0.6,1.2,1.2c0,0.7-0.6,1.2-1.2,1.2c-0.7,0-1.2-0.6-1.2-1.2
		C465.8,326.5,466.4,325.9,467.1,325.9z M653.3,314.9c0.7,0,1.2,0.6,1.2,1.2c0,0.7-0.5,1.2-1.2,1.2c-0.7,0-1.2-0.6-1.2-1.2
		C652.1,315.5,652.6,314.9,653.3,314.9z M642.4,314.9c0.7,0,1.2,0.6,1.2,1.2c0,0.7-0.5,1.2-1.2,1.2c-0.7,0-1.2-0.6-1.2-1.2
		C641.1,315.5,641.7,314.9,642.4,314.9z M631.4,314.9c0.7,0,1.2,0.6,1.2,1.2c0,0.7-0.5,1.2-1.2,1.2c-0.7,0-1.2-0.6-1.2-1.2
		C630.1,315.5,630.7,314.9,631.4,314.9z M620.4,314.9c0.7,0,1.2,0.6,1.2,1.2c0,0.7-0.5,1.2-1.2,1.2c-0.7,0-1.2-0.6-1.2-1.2
		C619.2,315.5,619.7,314.9,620.4,314.9z M609.4,314.9c0.7,0,1.2,0.6,1.2,1.2c0,0.7-0.5,1.2-1.2,1.2c-0.7,0-1.2-0.6-1.2-1.2
		C608.2,315.5,608.8,314.9,609.4,314.9z M598.5,314.9c0.7,0,1.2,0.6,1.2,1.2c0,0.7-0.5,1.2-1.2,1.2c-0.7,0-1.2-0.6-1.2-1.2
		C597.2,315.5,597.8,314.9,598.5,314.9z M587.5,314.9c0.7,0,1.2,0.6,1.2,1.2c0,0.7-0.5,1.2-1.2,1.2c-0.7,0-1.2-0.6-1.2-1.2
		C586.3,315.5,586.8,314.9,587.5,314.9z M576.5,314.9c0.7,0,1.2,0.6,1.2,1.2c0,0.7-0.5,1.2-1.2,1.2c-0.7,0-1.2-0.6-1.2-1.2
		C575.3,315.5,575.8,314.9,576.5,314.9z M565.6,314.9c0.7,0,1.2,0.6,1.2,1.2c0,0.7-0.5,1.2-1.2,1.2s-1.2-0.6-1.2-1.2
		C564.3,315.5,564.9,314.9,565.6,314.9z M554.8,314.9c0.7,0,1.2,0.6,1.2,1.2c0,0.7-0.5,1.2-1.2,1.2s-1.2-0.6-1.2-1.2
		C553.6,315.5,554.1,314.9,554.8,314.9z M543.8,314.9c0.7,0,1.2,0.6,1.2,1.2c0,0.7-0.5,1.2-1.2,1.2s-1.2-0.6-1.2-1.2
		C542.6,315.5,543.2,314.9,543.8,314.9z M532.9,314.9c0.7,0,1.2,0.6,1.2,1.2c0,0.7-0.5,1.2-1.2,1.2s-1.2-0.6-1.2-1.2
		C531.6,315.5,532.2,314.9,532.9,314.9z M521.9,314.9c0.7,0,1.2,0.6,1.2,1.2c0,0.7-0.5,1.2-1.2,1.2s-1.2-0.6-1.2-1.2
		C520.7,315.5,521.2,314.9,521.9,314.9z M510.9,314.9c0.7,0,1.2,0.6,1.2,1.2c0,0.7-0.6,1.2-1.2,1.2c-0.7,0-1.2-0.6-1.2-1.2
		C509.7,315.5,510.3,314.9,510.9,314.9z M500,314.9c0.7,0,1.2,0.6,1.2,1.2c0,0.7-0.6,1.2-1.2,1.2c-0.7,0-1.2-0.6-1.2-1.2
		C498.7,315.5,499.3,314.9,500,314.9z M489,314.9c0.7,0,1.2,0.6,1.2,1.2c0,0.7-0.6,1.2-1.2,1.2s-1.2-0.6-1.2-1.2
		C487.8,315.5,488.3,314.9,489,314.9z M478,314.9c0.7,0,1.2,0.6,1.2,1.2c0,0.7-0.6,1.2-1.2,1.2c-0.7,0-1.2-0.6-1.2-1.2
		C476.8,315.5,477.3,314.9,478,314.9z M467.1,314.9c0.7,0,1.2,0.6,1.2,1.2c0,0.7-0.6,1.2-1.2,1.2c-0.7,0-1.2-0.6-1.2-1.2
		C465.8,315.5,466.4,314.9,467.1,314.9z M653.3,303.9c0.7,0,1.2,0.6,1.2,1.2c0,0.7-0.5,1.2-1.2,1.2c-0.7,0-1.2-0.6-1.2-1.2
		C652.1,304.5,652.6,303.9,653.3,303.9z M642.4,303.9c0.7,0,1.2,0.6,1.2,1.2c0,0.7-0.5,1.2-1.2,1.2c-0.7,0-1.2-0.6-1.2-1.2
		C641.1,304.5,641.7,303.9,642.4,303.9z M631.4,303.9c0.7,0,1.2,0.6,1.2,1.2c0,0.7-0.5,1.2-1.2,1.2c-0.7,0-1.2-0.6-1.2-1.2
		C630.1,304.5,630.7,303.9,631.4,303.9z M620.4,303.9c0.7,0,1.2,0.6,1.2,1.2c0,0.7-0.5,1.2-1.2,1.2c-0.7,0-1.2-0.6-1.2-1.2
		C619.2,304.5,619.7,303.9,620.4,303.9z M609.4,303.9c0.7,0,1.2,0.6,1.2,1.2c0,0.7-0.5,1.2-1.2,1.2c-0.7,0-1.2-0.6-1.2-1.2
		C608.2,304.5,608.8,303.9,609.4,303.9z M598.5,303.9c0.7,0,1.2,0.6,1.2,1.2c0,0.7-0.5,1.2-1.2,1.2c-0.7,0-1.2-0.6-1.2-1.2
		C597.2,304.5,597.8,303.9,598.5,303.9z M587.5,303.9c0.7,0,1.2,0.6,1.2,1.2c0,0.7-0.5,1.2-1.2,1.2c-0.7,0-1.2-0.6-1.2-1.2
		C586.3,304.5,586.8,303.9,587.5,303.9z M576.5,303.9c0.7,0,1.2,0.6,1.2,1.2c0,0.7-0.5,1.2-1.2,1.2c-0.7,0-1.2-0.6-1.2-1.2
		C575.3,304.5,575.8,303.9,576.5,303.9z M565.6,303.9c0.7,0,1.2,0.6,1.2,1.2c0,0.7-0.5,1.2-1.2,1.2s-1.2-0.6-1.2-1.2
		C564.3,304.5,564.9,303.9,565.6,303.9z M554.8,303.9c0.7,0,1.2,0.6,1.2,1.2c0,0.7-0.5,1.2-1.2,1.2s-1.2-0.6-1.2-1.2
		C553.6,304.5,554.1,303.9,554.8,303.9z M543.8,303.9c0.7,0,1.2,0.6,1.2,1.2c0,0.7-0.5,1.2-1.2,1.2s-1.2-0.6-1.2-1.2
		C542.6,304.5,543.2,303.9,543.8,303.9z M532.9,303.9c0.7,0,1.2,0.6,1.2,1.2c0,0.7-0.5,1.2-1.2,1.2s-1.2-0.6-1.2-1.2
		C531.7,304.5,532.2,303.9,532.9,303.9z M521.9,303.9c0.7,0,1.2,0.6,1.2,1.2c0,0.7-0.5,1.2-1.2,1.2s-1.2-0.6-1.2-1.2
		C520.7,304.5,521.2,303.9,521.9,303.9z M510.9,303.9c0.7,0,1.2,0.6,1.2,1.2c0,0.7-0.6,1.2-1.2,1.2c-0.7,0-1.2-0.6-1.2-1.2
		C509.7,304.5,510.3,303.9,510.9,303.9z M500,303.9c0.7,0,1.2,0.6,1.2,1.2c0,0.7-0.6,1.2-1.2,1.2c-0.7,0-1.2-0.6-1.2-1.2
		C498.7,304.5,499.3,303.9,500,303.9z M489,303.9c0.7,0,1.2,0.6,1.2,1.2c0,0.7-0.6,1.2-1.2,1.2s-1.2-0.6-1.2-1.2
		C487.8,304.5,488.3,303.9,489,303.9z M478,303.9c0.7,0,1.2,0.6,1.2,1.2c0,0.7-0.6,1.2-1.2,1.2c-0.7,0-1.2-0.6-1.2-1.2
		C476.8,304.5,477.3,303.9,478,303.9z M467.1,303.9c0.7,0,1.2,0.6,1.2,1.2c0,0.7-0.6,1.2-1.2,1.2c-0.7,0-1.2-0.6-1.2-1.2
		C465.8,304.5,466.4,303.9,467.1,303.9z M653.3,292.9c0.7,0,1.2,0.6,1.2,1.2c0,0.7-0.5,1.2-1.2,1.2c-0.7,0-1.2-0.6-1.2-1.2
		C652.1,293.5,652.6,292.9,653.3,292.9z M642.4,292.9c0.7,0,1.2,0.6,1.2,1.2c0,0.7-0.5,1.2-1.2,1.2c-0.7,0-1.2-0.6-1.2-1.2
		C641.1,293.5,641.7,292.9,642.4,292.9z M631.4,292.9c0.7,0,1.2,0.6,1.2,1.2c0,0.7-0.5,1.2-1.2,1.2c-0.7,0-1.2-0.6-1.2-1.2
		C630.1,293.5,630.7,292.9,631.4,292.9z M620.4,292.9c0.7,0,1.2,0.6,1.2,1.2c0,0.7-0.5,1.2-1.2,1.2c-0.7,0-1.2-0.6-1.2-1.2
		C619.2,293.5,619.7,292.9,620.4,292.9z M609.4,292.9c0.7,0,1.2,0.6,1.2,1.2c0,0.7-0.5,1.2-1.2,1.2c-0.7,0-1.2-0.6-1.2-1.2
		C608.2,293.5,608.8,292.9,609.4,292.9z M598.5,292.9c0.7,0,1.2,0.6,1.2,1.2c0,0.7-0.5,1.2-1.2,1.2c-0.7,0-1.2-0.6-1.2-1.2
		C597.2,293.5,597.8,292.9,598.5,292.9z M587.5,292.9c0.7,0,1.2,0.6,1.2,1.2c0,0.7-0.5,1.2-1.2,1.2c-0.7,0-1.2-0.6-1.2-1.2
		C586.3,293.5,586.8,292.9,587.5,292.9z M576.5,292.9c0.7,0,1.2,0.6,1.2,1.2c0,0.7-0.5,1.2-1.2,1.2c-0.7,0-1.2-0.6-1.2-1.2
		C575.3,293.5,575.8,292.9,576.5,292.9z M565.6,292.9c0.7,0,1.2,0.6,1.2,1.2c0,0.7-0.5,1.2-1.2,1.2s-1.2-0.6-1.2-1.2
		C564.3,293.5,564.9,292.9,565.6,292.9z M554.8,292.9c0.7,0,1.2,0.6,1.2,1.2c0,0.7-0.5,1.2-1.2,1.2s-1.2-0.6-1.2-1.2
		C553.6,293.5,554.1,292.9,554.8,292.9z M543.8,292.9c0.7,0,1.2,0.6,1.2,1.2c0,0.7-0.5,1.2-1.2,1.2s-1.2-0.6-1.2-1.2
		C542.6,293.5,543.2,292.9,543.8,292.9z M532.9,292.9c0.7,0,1.2,0.6,1.2,1.2c0,0.7-0.5,1.2-1.2,1.2s-1.2-0.6-1.2-1.2
		C531.6,293.5,532.2,292.9,532.9,292.9z M521.9,292.9c0.7,0,1.2,0.6,1.2,1.2c0,0.7-0.5,1.2-1.2,1.2s-1.2-0.6-1.2-1.2
		C520.7,293.5,521.2,292.9,521.9,292.9z M510.9,292.9c0.7,0,1.2,0.6,1.2,1.2c0,0.7-0.6,1.2-1.2,1.2c-0.7,0-1.2-0.6-1.2-1.2
		C509.7,293.5,510.3,292.9,510.9,292.9z M500,292.9c0.7,0,1.2,0.6,1.2,1.2c0,0.7-0.6,1.2-1.2,1.2c-0.7,0-1.2-0.6-1.2-1.2
		C498.7,293.5,499.3,292.9,500,292.9z M489,292.9c0.7,0,1.2,0.6,1.2,1.2c0,0.7-0.6,1.2-1.2,1.2s-1.2-0.6-1.2-1.2
		C487.8,293.5,488.3,292.9,489,292.9z M478,292.9c0.7,0,1.2,0.6,1.2,1.2c0,0.7-0.6,1.2-1.2,1.2c-0.7,0-1.2-0.6-1.2-1.2
		C476.8,293.5,477.3,292.9,478,292.9z M467.1,292.9c0.7,0,1.2,0.6,1.2,1.2c0,0.7-0.6,1.2-1.2,1.2c-0.7,0-1.2-0.6-1.2-1.2
		C465.8,293.5,466.4,292.9,467.1,292.9z M653.3,281.9c0.7,0,1.2,0.6,1.2,1.2c0,0.7-0.5,1.2-1.2,1.2c-0.7,0-1.2-0.6-1.2-1.2
		C652.1,282.5,652.6,281.9,653.3,281.9z M642.4,281.9c0.7,0,1.2,0.6,1.2,1.2c0,0.7-0.5,1.2-1.2,1.2c-0.7,0-1.2-0.6-1.2-1.2
		C641.1,282.5,641.7,281.9,642.4,281.9z M631.4,281.9c0.7,0,1.2,0.6,1.2,1.2c0,0.7-0.5,1.2-1.2,1.2c-0.7,0-1.2-0.6-1.2-1.2
		C630.1,282.5,630.7,281.9,631.4,281.9z M620.4,281.9c0.7,0,1.2,0.6,1.2,1.2c0,0.7-0.5,1.2-1.2,1.2c-0.7,0-1.2-0.6-1.2-1.2
		C619.2,282.5,619.7,281.9,620.4,281.9z M609.4,281.9c0.7,0,1.2,0.6,1.2,1.2c0,0.7-0.5,1.2-1.2,1.2c-0.7,0-1.2-0.6-1.2-1.2
		C608.2,282.5,608.8,281.9,609.4,281.9z M598.5,281.9c0.7,0,1.2,0.6,1.2,1.2c0,0.7-0.5,1.2-1.2,1.2c-0.7,0-1.2-0.6-1.2-1.2
		C597.2,282.5,597.8,281.9,598.5,281.9z M587.5,281.9c0.7,0,1.2,0.6,1.2,1.2c0,0.7-0.5,1.2-1.2,1.2c-0.7,0-1.2-0.6-1.2-1.2
		C586.3,282.5,586.8,281.9,587.5,281.9z M576.5,281.9c0.7,0,1.2,0.6,1.2,1.2c0,0.7-0.5,1.2-1.2,1.2c-0.7,0-1.2-0.6-1.2-1.2
		C575.3,282.5,575.8,281.9,576.5,281.9z M565.6,281.9c0.7,0,1.2,0.6,1.2,1.2c0,0.7-0.5,1.2-1.2,1.2s-1.2-0.6-1.2-1.2
		C564.3,282.5,564.9,281.9,565.6,281.9z M554.8,281.9c0.7,0,1.2,0.6,1.2,1.2c0,0.7-0.5,1.2-1.2,1.2s-1.2-0.6-1.2-1.2
		C553.6,282.5,554.1,281.9,554.8,281.9z M543.8,281.9c0.7,0,1.2,0.6,1.2,1.2c0,0.7-0.5,1.2-1.2,1.2s-1.2-0.6-1.2-1.2
		C542.6,282.5,543.2,281.9,543.8,281.9z M532.9,281.9c0.7,0,1.2,0.6,1.2,1.2c0,0.7-0.5,1.2-1.2,1.2s-1.2-0.6-1.2-1.2
		C531.6,282.5,532.2,281.9,532.9,281.9z M521.9,281.9c0.7,0,1.2,0.6,1.2,1.2c0,0.7-0.5,1.2-1.2,1.2s-1.2-0.6-1.2-1.2
		C520.7,282.5,521.2,281.9,521.9,281.9z M510.9,281.9c0.7,0,1.2,0.6,1.2,1.2c0,0.7-0.6,1.2-1.2,1.2c-0.7,0-1.2-0.6-1.2-1.2
		C509.7,282.5,510.3,281.9,510.9,281.9z M500,281.9c0.7,0,1.2,0.6,1.2,1.2c0,0.7-0.6,1.2-1.2,1.2c-0.7,0-1.2-0.6-1.2-1.2
		C498.7,282.5,499.3,281.9,500,281.9z M489,281.9c0.7,0,1.2,0.6,1.2,1.2c0,0.7-0.6,1.2-1.2,1.2s-1.2-0.6-1.2-1.2
		C487.8,282.5,488.3,281.9,489,281.9z M478,281.9c0.7,0,1.2,0.6,1.2,1.2c0,0.7-0.6,1.2-1.2,1.2c-0.7,0-1.2-0.6-1.2-1.2
		C476.8,282.5,477.3,281.9,478,281.9z M467.1,281.9c0.7,0,1.2,0.6,1.2,1.2c0,0.7-0.6,1.2-1.2,1.2c-0.7,0-1.2-0.6-1.2-1.2
		C465.8,282.5,466.4,281.9,467.1,281.9z M653.3,271.8c0.7,0,1.2,0.6,1.2,1.2c0,0.7-0.5,1.2-1.2,1.2c-0.7,0-1.2-0.6-1.2-1.2
		C652.1,272.3,652.6,271.8,653.3,271.8z M642.4,271.8c0.7,0,1.2,0.6,1.2,1.2c0,0.7-0.5,1.2-1.2,1.2c-0.7,0-1.2-0.6-1.2-1.2
		S641.7,271.8,642.4,271.8z M631.4,271.8c0.7,0,1.2,0.6,1.2,1.2c0,0.7-0.5,1.2-1.2,1.2c-0.7,0-1.2-0.6-1.2-1.2
		S630.7,271.8,631.4,271.8z M620.4,271.8c0.7,0,1.2,0.6,1.2,1.2c0,0.7-0.5,1.2-1.2,1.2c-0.7,0-1.2-0.6-1.2-1.2
		S619.7,271.8,620.4,271.8z M609.4,271.8c0.7,0,1.2,0.6,1.2,1.2c0,0.7-0.5,1.2-1.2,1.2c-0.7,0-1.2-0.6-1.2-1.2
		S608.8,271.8,609.4,271.8z M598.5,271.8c0.7,0,1.2,0.6,1.2,1.2c0,0.7-0.5,1.2-1.2,1.2c-0.7,0-1.2-0.6-1.2-1.2
		C597.2,272.3,597.8,271.8,598.5,271.8z M587.5,271.8c0.7,0,1.2,0.6,1.2,1.2c0,0.7-0.5,1.2-1.2,1.2c-0.7,0-1.2-0.6-1.2-1.2
		C586.3,272.3,586.8,271.8,587.5,271.8z M576.5,271.8c0.7,0,1.2,0.6,1.2,1.2c0,0.7-0.5,1.2-1.2,1.2c-0.7,0-1.2-0.6-1.2-1.2
		C575.3,272.3,575.8,271.8,576.5,271.8z M565.6,271.8c0.7,0,1.2,0.6,1.2,1.2c0,0.7-0.5,1.2-1.2,1.2s-1.2-0.6-1.2-1.2
		S564.9,271.8,565.6,271.8z M554.8,271.8c0.7,0,1.2,0.6,1.2,1.2c0,0.7-0.5,1.2-1.2,1.2s-1.2-0.6-1.2-1.2S554.1,271.8,554.8,271.8z
		 M543.8,271.8c0.7,0,1.2,0.6,1.2,1.2c0,0.7-0.5,1.2-1.2,1.2s-1.2-0.6-1.2-1.2S543.2,271.8,543.8,271.8z M532.9,271.8
		c0.7,0,1.2,0.6,1.2,1.2c0,0.7-0.5,1.2-1.2,1.2s-1.2-0.6-1.2-1.2C531.6,272.3,532.2,271.8,532.9,271.8z M521.9,271.8
		c0.7,0,1.2,0.6,1.2,1.2c0,0.7-0.5,1.2-1.2,1.2s-1.2-0.6-1.2-1.2S521.2,271.8,521.9,271.8z M510.9,271.8c0.7,0,1.2,0.6,1.2,1.2
		c0,0.7-0.6,1.2-1.2,1.2c-0.7,0-1.2-0.6-1.2-1.2S510.3,271.8,510.9,271.8z M500,271.8c0.7,0,1.2,0.6,1.2,1.2c0,0.7-0.6,1.2-1.2,1.2
		c-0.7,0-1.2-0.6-1.2-1.2S499.3,271.8,500,271.8z M489,271.8c0.7,0,1.2,0.6,1.2,1.2c0,0.7-0.6,1.2-1.2,1.2s-1.2-0.6-1.2-1.2
		S488.3,271.8,489,271.8z M478,271.8c0.7,0,1.2,0.6,1.2,1.2c0,0.7-0.6,1.2-1.2,1.2c-0.7,0-1.2-0.6-1.2-1.2S477.3,271.8,478,271.8z
		 M467.1,271.8c0.7,0,1.2,0.6,1.2,1.2c0,0.7-0.6,1.2-1.2,1.2c-0.7,0-1.2-0.6-1.2-1.2S466.4,271.8,467.1,271.8z M653.3,260.8
		c0.7,0,1.2,0.6,1.2,1.2c0,0.7-0.5,1.2-1.2,1.2c-0.7,0-1.2-0.6-1.2-1.2C652.1,261.3,652.6,260.8,653.3,260.8z M642.4,260.8
		c0.7,0,1.2,0.6,1.2,1.2c0,0.7-0.5,1.2-1.2,1.2c-0.7,0-1.2-0.6-1.2-1.2C641.1,261.3,641.7,260.8,642.4,260.8z M631.4,260.8
		c0.7,0,1.2,0.6,1.2,1.2c0,0.7-0.5,1.2-1.2,1.2c-0.7,0-1.2-0.6-1.2-1.2C630.1,261.3,630.7,260.8,631.4,260.8z M620.4,260.8
		c0.7,0,1.2,0.6,1.2,1.2c0,0.7-0.5,1.2-1.2,1.2c-0.7,0-1.2-0.6-1.2-1.2C619.2,261.3,619.7,260.8,620.4,260.8z M609.4,260.8
		c0.7,0,1.2,0.6,1.2,1.2c0,0.7-0.5,1.2-1.2,1.2c-0.7,0-1.2-0.6-1.2-1.2C608.2,261.3,608.8,260.8,609.4,260.8z M598.5,260.8
		c0.7,0,1.2,0.6,1.2,1.2c0,0.7-0.5,1.2-1.2,1.2c-0.7,0-1.2-0.6-1.2-1.2C597.2,261.3,597.8,260.8,598.5,260.8z M587.5,260.8
		c0.7,0,1.2,0.6,1.2,1.2c0,0.7-0.5,1.2-1.2,1.2c-0.7,0-1.2-0.6-1.2-1.2C586.3,261.3,586.8,260.8,587.5,260.8z M576.5,260.8
		c0.7,0,1.2,0.6,1.2,1.2c0,0.7-0.5,1.2-1.2,1.2c-0.7,0-1.2-0.6-1.2-1.2C575.3,261.3,575.8,260.8,576.5,260.8z M565.6,260.8
		c0.7,0,1.2,0.6,1.2,1.2c0,0.7-0.5,1.2-1.2,1.2s-1.2-0.6-1.2-1.2C564.3,261.3,564.9,260.8,565.6,260.8z M554.8,260.8
		c0.7,0,1.2,0.6,1.2,1.2c0,0.7-0.5,1.2-1.2,1.2s-1.2-0.6-1.2-1.2C553.6,261.3,554.1,260.8,554.8,260.8z M543.8,260.8
		c0.7,0,1.2,0.6,1.2,1.2c0,0.7-0.5,1.2-1.2,1.2s-1.2-0.6-1.2-1.2C542.6,261.3,543.2,260.8,543.8,260.8z M532.9,260.8
		c0.7,0,1.2,0.6,1.2,1.2c0,0.7-0.5,1.2-1.2,1.2s-1.2-0.6-1.2-1.2C531.6,261.3,532.2,260.8,532.9,260.8z M521.9,260.8
		c0.7,0,1.2,0.6,1.2,1.2c0,0.7-0.5,1.2-1.2,1.2s-1.2-0.6-1.2-1.2C520.7,261.3,521.2,260.8,521.9,260.8z M510.9,260.8
		c0.7,0,1.2,0.6,1.2,1.2c0,0.7-0.6,1.2-1.2,1.2c-0.7,0-1.2-0.6-1.2-1.2C509.7,261.3,510.3,260.8,510.9,260.8z M500,260.8
		c0.7,0,1.2,0.6,1.2,1.2c0,0.7-0.6,1.2-1.2,1.2c-0.7,0-1.2-0.6-1.2-1.2C498.7,261.3,499.3,260.8,500,260.8z M489,260.8
		c0.7,0,1.2,0.6,1.2,1.2c0,0.7-0.6,1.2-1.2,1.2s-1.2-0.6-1.2-1.2C487.8,261.3,488.3,260.8,489,260.8z M478,260.8
		c0.7,0,1.2,0.6,1.2,1.2c0,0.7-0.6,1.2-1.2,1.2c-0.7,0-1.2-0.6-1.2-1.2C476.8,261.3,477.3,260.8,478,260.8z M467.1,260.8
		c0.7,0,1.2,0.6,1.2,1.2c0,0.7-0.6,1.2-1.2,1.2c-0.7,0-1.2-0.6-1.2-1.2C465.8,261.3,466.4,260.8,467.1,260.8z M565.6,249.8
		c0.7,0,1.2,0.6,1.2,1.2c0,0.7-0.5,1.2-1.2,1.2s-1.2-0.6-1.2-1.2C564.3,250.3,564.9,249.8,565.6,249.8z M576.5,249.8
		c0.7,0,1.2,0.6,1.2,1.2c0,0.7-0.5,1.2-1.2,1.2c-0.7,0-1.2-0.6-1.2-1.2C575.3,250.3,575.8,249.8,576.5,249.8z M587.5,249.8
		c0.7,0,1.2,0.6,1.2,1.2c0,0.7-0.5,1.2-1.2,1.2c-0.7,0-1.2-0.6-1.2-1.2C586.3,250.3,586.8,249.8,587.5,249.8z M598.5,249.8
		c0.7,0,1.2,0.6,1.2,1.2c0,0.7-0.5,1.2-1.2,1.2c-0.7,0-1.2-0.6-1.2-1.2C597.2,250.3,597.8,249.8,598.5,249.8z M609.4,249.8
		c0.7,0,1.2,0.6,1.2,1.2c0,0.7-0.5,1.2-1.2,1.2c-0.7,0-1.2-0.6-1.2-1.2C608.2,250.3,608.8,249.8,609.4,249.8z M620.4,249.8
		c0.7,0,1.2,0.6,1.2,1.2c0,0.7-0.5,1.2-1.2,1.2c-0.7,0-1.2-0.6-1.2-1.2C619.2,250.3,619.7,249.8,620.4,249.8z M631.4,249.8
		c0.7,0,1.2,0.6,1.2,1.2c0,0.7-0.5,1.2-1.2,1.2c-0.7,0-1.2-0.6-1.2-1.2C630.1,250.3,630.7,249.8,631.4,249.8z M642.4,249.8
		c0.7,0,1.2,0.6,1.2,1.2c0,0.7-0.5,1.2-1.2,1.2c-0.7,0-1.2-0.6-1.2-1.2C641.1,250.3,641.7,249.8,642.4,249.8z M653.3,249.8
		c0.7,0,1.2,0.6,1.2,1.2c0,0.7-0.5,1.2-1.2,1.2c-0.7,0-1.2-0.6-1.2-1.2C652.1,250.3,652.6,249.8,653.3,249.8z M467.1,249.8
		c0.7,0,1.2,0.6,1.2,1.2c0,0.7-0.6,1.2-1.2,1.2c-0.7,0-1.2-0.6-1.2-1.2C465.8,250.3,466.4,249.8,467.1,249.8z M478,249.8
		c0.7,0,1.2,0.6,1.2,1.2c0,0.7-0.6,1.2-1.2,1.2c-0.7,0-1.2-0.6-1.2-1.2C476.8,250.3,477.3,249.8,478,249.8z M489,249.8
		c0.7,0,1.2,0.6,1.2,1.2c0,0.7-0.6,1.2-1.2,1.2s-1.2-0.6-1.2-1.2C487.8,250.3,488.3,249.8,489,249.8z M500,249.8
		c0.7,0,1.2,0.6,1.2,1.2c0,0.7-0.6,1.2-1.2,1.2c-0.7,0-1.2-0.6-1.2-1.2C498.7,250.3,499.3,249.8,500,249.8z M510.9,249.8
		c0.7,0,1.2,0.6,1.2,1.2c0,0.7-0.6,1.2-1.2,1.2c-0.7,0-1.2-0.6-1.2-1.2C509.7,250.3,510.3,249.8,510.9,249.8z M521.9,249.8
		c0.7,0,1.2,0.6,1.2,1.2c0,0.7-0.5,1.2-1.2,1.2s-1.2-0.6-1.2-1.2C520.7,250.3,521.2,249.8,521.9,249.8z M532.9,249.8
		c0.7,0,1.2,0.6,1.2,1.2c0,0.7-0.5,1.2-1.2,1.2s-1.2-0.6-1.2-1.2C531.6,250.3,532.2,249.8,532.9,249.8z M543.8,249.8
		c0.7,0,1.2,0.6,1.2,1.2c0,0.7-0.5,1.2-1.2,1.2s-1.2-0.6-1.2-1.2C542.6,250.3,543.2,249.8,543.8,249.8z M554.8,249.8
		c0.7,0,1.2,0.6,1.2,1.2c0,0.7-0.5,1.2-1.2,1.2s-1.2-0.6-1.2-1.2C553.6,250.3,554.1,249.8,554.8,249.8z M565.6,238.8
		c0.7,0,1.2,0.6,1.2,1.2s-0.5,1.2-1.2,1.2s-1.2-0.6-1.2-1.2C564.3,239.3,564.9,238.8,565.6,238.8z M576.5,238.8
		c0.7,0,1.2,0.6,1.2,1.2s-0.5,1.2-1.2,1.2c-0.7,0-1.2-0.6-1.2-1.2C575.3,239.3,575.8,238.8,576.5,238.8z M587.5,238.8
		c0.7,0,1.2,0.6,1.2,1.2s-0.5,1.2-1.2,1.2c-0.7,0-1.2-0.6-1.2-1.2C586.3,239.3,586.8,238.8,587.5,238.8z M598.5,238.8
		c0.7,0,1.2,0.6,1.2,1.2s-0.5,1.2-1.2,1.2c-0.7,0-1.2-0.6-1.2-1.2C597.2,239.3,597.8,238.8,598.5,238.8z M609.4,238.8
		c0.7,0,1.2,0.6,1.2,1.2s-0.5,1.2-1.2,1.2c-0.7,0-1.2-0.6-1.2-1.2C608.2,239.3,608.8,238.8,609.4,238.8z M620.4,238.8
		c0.7,0,1.2,0.6,1.2,1.2s-0.5,1.2-1.2,1.2c-0.7,0-1.2-0.6-1.2-1.2C619.2,239.3,619.7,238.8,620.4,238.8z M631.4,238.8
		c0.7,0,1.2,0.6,1.2,1.2s-0.5,1.2-1.2,1.2c-0.7,0-1.2-0.6-1.2-1.2C630.1,239.3,630.7,238.8,631.4,238.8z M642.4,238.8
		c0.7,0,1.2,0.6,1.2,1.2s-0.5,1.2-1.2,1.2c-0.7,0-1.2-0.6-1.2-1.2C641.1,239.3,641.7,238.8,642.4,238.8z M653.3,238.8
		c0.7,0,1.2,0.6,1.2,1.2s-0.5,1.2-1.2,1.2c-0.7,0-1.2-0.6-1.2-1.2C652.1,239.3,652.6,238.8,653.3,238.8z M467.1,238.8
		c0.7,0,1.2,0.6,1.2,1.2s-0.6,1.2-1.2,1.2c-0.7,0-1.2-0.6-1.2-1.2C465.8,239.3,466.4,238.8,467.1,238.8z M478,238.8
		c0.7,0,1.2,0.6,1.2,1.2s-0.6,1.2-1.2,1.2c-0.7,0-1.2-0.6-1.2-1.2C476.8,239.3,477.3,238.8,478,238.8z M489,238.8
		c0.7,0,1.2,0.6,1.2,1.2c0,0.7-0.6,1.2-1.2,1.2s-1.2-0.6-1.2-1.2C487.8,239.3,488.3,238.8,489,238.8z M500,238.8
		c0.7,0,1.2,0.6,1.2,1.2c0,0.7-0.6,1.2-1.2,1.2c-0.7,0-1.2-0.6-1.2-1.2C498.7,239.3,499.3,238.8,500,238.8z M510.9,238.8
		c0.7,0,1.2,0.6,1.2,1.2c0,0.7-0.6,1.2-1.2,1.2c-0.7,0-1.2-0.6-1.2-1.2C509.7,239.3,510.3,238.8,510.9,238.8z M521.9,238.8
		c0.7,0,1.2,0.6,1.2,1.2c0,0.7-0.5,1.2-1.2,1.2s-1.2-0.6-1.2-1.2C520.7,239.3,521.2,238.8,521.9,238.8z M532.9,238.8
		c0.7,0,1.2,0.6,1.2,1.2c0,0.7-0.5,1.2-1.2,1.2s-1.2-0.6-1.2-1.2C531.6,239.3,532.2,238.8,532.9,238.8z M543.8,238.8
		c0.7,0,1.2,0.6,1.2,1.2c0,0.7-0.5,1.2-1.2,1.2s-1.2-0.6-1.2-1.2C542.6,239.3,543.2,238.8,543.8,238.8z M554.8,238.8
		c0.7,0,1.2,0.6,1.2,1.2c0,0.7-0.5,1.2-1.2,1.2s-1.2-0.6-1.2-1.2C553.6,239.3,554.1,238.8,554.8,238.8z M565.6,227.7
		c0.7,0,1.2,0.6,1.2,1.2c0,0.7-0.5,1.2-1.2,1.2s-1.2-0.6-1.2-1.2S564.9,227.7,565.6,227.7z M576.5,227.7c0.7,0,1.2,0.6,1.2,1.2
		c0,0.7-0.5,1.2-1.2,1.2c-0.7,0-1.2-0.6-1.2-1.2C575.3,228.3,575.8,227.7,576.5,227.7z M587.5,227.7c0.7,0,1.2,0.6,1.2,1.2
		c0,0.7-0.5,1.2-1.2,1.2c-0.7,0-1.2-0.6-1.2-1.2C586.3,228.3,586.8,227.7,587.5,227.7z M598.5,227.7c0.7,0,1.2,0.6,1.2,1.2
		c0,0.7-0.5,1.2-1.2,1.2c-0.7,0-1.2-0.6-1.2-1.2C597.2,228.3,597.8,227.7,598.5,227.7z M609.4,227.7c0.7,0,1.2,0.6,1.2,1.2
		c0,0.7-0.5,1.2-1.2,1.2c-0.7,0-1.2-0.6-1.2-1.2S608.8,227.7,609.4,227.7z M620.4,227.7c0.7,0,1.2,0.6,1.2,1.2
		c0,0.7-0.5,1.2-1.2,1.2c-0.7,0-1.2-0.6-1.2-1.2S619.7,227.7,620.4,227.7z M631.4,227.7c0.7,0,1.2,0.6,1.2,1.2
		c0,0.7-0.5,1.2-1.2,1.2c-0.7,0-1.2-0.6-1.2-1.2S630.7,227.7,631.4,227.7z M642.4,227.7c0.7,0,1.2,0.6,1.2,1.2
		c0,0.7-0.5,1.2-1.2,1.2c-0.7,0-1.2-0.6-1.2-1.2S641.7,227.7,642.4,227.7z M653.3,227.7c0.7,0,1.2,0.6,1.2,1.2
		c0,0.7-0.5,1.2-1.2,1.2c-0.7,0-1.2-0.6-1.2-1.2C652.1,228.3,652.6,227.7,653.3,227.7z M467.1,227.7c0.7,0,1.2,0.6,1.2,1.2
		c0,0.7-0.6,1.2-1.2,1.2c-0.7,0-1.2-0.6-1.2-1.2S466.4,227.7,467.1,227.7z M478,227.7c0.7,0,1.2,0.6,1.2,1.2c0,0.7-0.6,1.2-1.2,1.2
		c-0.7,0-1.2-0.6-1.2-1.2S477.3,227.7,478,227.7z M489,227.7c0.7,0,1.2,0.6,1.2,1.2c0,0.7-0.6,1.2-1.2,1.2s-1.2-0.6-1.2-1.2
		S488.3,227.7,489,227.7z M500,227.7c0.7,0,1.2,0.6,1.2,1.2c0,0.7-0.6,1.2-1.2,1.2c-0.7,0-1.2-0.6-1.2-1.2S499.3,227.7,500,227.7z
		 M510.9,227.7c0.7,0,1.2,0.6,1.2,1.2c0,0.7-0.6,1.2-1.2,1.2c-0.7,0-1.2-0.6-1.2-1.2S510.3,227.7,510.9,227.7z M521.9,227.7
		c0.7,0,1.2,0.6,1.2,1.2c0,0.7-0.5,1.2-1.2,1.2s-1.2-0.6-1.2-1.2S521.2,227.7,521.9,227.7z M532.9,227.7c0.7,0,1.2,0.6,1.2,1.2
		c0,0.7-0.5,1.2-1.2,1.2s-1.2-0.6-1.2-1.2C531.6,228.3,532.2,227.7,532.9,227.7z M543.8,227.7c0.7,0,1.2,0.6,1.2,1.2
		c0,0.7-0.5,1.2-1.2,1.2s-1.2-0.6-1.2-1.2S543.2,227.7,543.8,227.7z M554.8,227.7c0.7,0,1.2,0.6,1.2,1.2c0,0.7-0.5,1.2-1.2,1.2
		s-1.2-0.6-1.2-1.2S554.1,227.7,554.8,227.7z M565.6,216.7c0.7,0,1.2,0.6,1.2,1.2s-0.5,1.2-1.2,1.2s-1.2-0.6-1.2-1.2
		C564.3,217.3,564.9,216.7,565.6,216.7z M576.5,216.7c0.7,0,1.2,0.6,1.2,1.2s-0.5,1.2-1.2,1.2c-0.7,0-1.2-0.6-1.2-1.2
		C575.3,217.3,575.8,216.7,576.5,216.7z M587.5,216.7c0.7,0,1.2,0.6,1.2,1.2s-0.5,1.2-1.2,1.2c-0.7,0-1.2-0.6-1.2-1.2
		C586.3,217.3,586.8,216.7,587.5,216.7z M598.5,216.7c0.7,0,1.2,0.6,1.2,1.2s-0.5,1.2-1.2,1.2c-0.7,0-1.2-0.6-1.2-1.2
		C597.2,217.3,597.8,216.7,598.5,216.7z M609.4,216.7c0.7,0,1.2,0.6,1.2,1.2s-0.5,1.2-1.2,1.2c-0.7,0-1.2-0.6-1.2-1.2
		C608.2,217.3,608.8,216.7,609.4,216.7z M620.4,216.7c0.7,0,1.2,0.6,1.2,1.2s-0.5,1.2-1.2,1.2c-0.7,0-1.2-0.6-1.2-1.2
		C619.2,217.3,619.7,216.7,620.4,216.7z M631.4,216.7c0.7,0,1.2,0.6,1.2,1.2s-0.5,1.2-1.2,1.2c-0.7,0-1.2-0.6-1.2-1.2
		C630.1,217.3,630.7,216.7,631.4,216.7z M642.4,216.7c0.7,0,1.2,0.6,1.2,1.2s-0.5,1.2-1.2,1.2c-0.7,0-1.2-0.6-1.2-1.2
		C641.1,217.3,641.7,216.7,642.4,216.7z M653.3,216.7c0.7,0,1.2,0.6,1.2,1.2s-0.5,1.2-1.2,1.2c-0.7,0-1.2-0.6-1.2-1.2
		C652.1,217.3,652.6,216.7,653.3,216.7z M467.1,216.7c0.7,0,1.2,0.6,1.2,1.2s-0.6,1.2-1.2,1.2c-0.7,0-1.2-0.6-1.2-1.2
		C465.8,217.3,466.4,216.7,467.1,216.7z M478,216.7c0.7,0,1.2,0.6,1.2,1.2s-0.6,1.2-1.2,1.2c-0.7,0-1.2-0.6-1.2-1.2
		C476.8,217.3,477.3,216.7,478,216.7z M489,216.7c0.7,0,1.2,0.6,1.2,1.2c0,0.7-0.6,1.2-1.2,1.2s-1.2-0.6-1.2-1.2
		C487.8,217.3,488.3,216.7,489,216.7z M500,216.7c0.7,0,1.2,0.6,1.2,1.2c0,0.7-0.6,1.2-1.2,1.2c-0.7,0-1.2-0.6-1.2-1.2
		C498.7,217.3,499.3,216.7,500,216.7z M510.9,216.7c0.7,0,1.2,0.6,1.2,1.2c0,0.7-0.6,1.2-1.2,1.2c-0.7,0-1.2-0.6-1.2-1.2
		C509.7,217.3,510.3,216.7,510.9,216.7z M521.9,216.7c0.7,0,1.2,0.6,1.2,1.2c0,0.7-0.5,1.2-1.2,1.2s-1.2-0.6-1.2-1.2
		C520.7,217.3,521.2,216.7,521.9,216.7z M532.9,216.7c0.7,0,1.2,0.6,1.2,1.2c0,0.7-0.5,1.2-1.2,1.2s-1.2-0.6-1.2-1.2
		C531.7,217.3,532.2,216.7,532.9,216.7z M543.8,216.7c0.7,0,1.2,0.6,1.2,1.2c0,0.7-0.5,1.2-1.2,1.2s-1.2-0.6-1.2-1.2
		C542.6,217.3,543.2,216.7,543.8,216.7z M554.8,216.7c0.7,0,1.2,0.6,1.2,1.2c0,0.7-0.5,1.2-1.2,1.2s-1.2-0.6-1.2-1.2
		C553.6,217.3,554.1,216.7,554.8,216.7z M554.8,205.7c0.7,0,1.2,0.6,1.2,1.2s-0.5,1.2-1.2,1.2s-1.2-0.6-1.2-1.2
		C553.6,206.3,554.1,205.7,554.8,205.7z M565.6,205.7c0.7,0,1.2,0.6,1.2,1.2s-0.5,1.2-1.2,1.2s-1.2-0.6-1.2-1.2
		C564.3,206.3,564.9,205.7,565.6,205.7z M576.5,205.7c0.7,0,1.2,0.6,1.2,1.2s-0.5,1.2-1.2,1.2c-0.7,0-1.2-0.6-1.2-1.2
		C575.3,206.3,575.8,205.7,576.5,205.7z M587.5,205.7c0.7,0,1.2,0.6,1.2,1.2s-0.5,1.2-1.2,1.2c-0.7,0-1.2-0.6-1.2-1.2
		C586.3,206.3,586.8,205.7,587.5,205.7z M598.5,205.7c0.7,0,1.2,0.6,1.2,1.2s-0.5,1.2-1.2,1.2c-0.7,0-1.2-0.6-1.2-1.2
		C597.2,206.3,597.8,205.7,598.5,205.7z M609.4,205.7c0.7,0,1.2,0.6,1.2,1.2s-0.5,1.2-1.2,1.2c-0.7,0-1.2-0.6-1.2-1.2
		C608.2,206.3,608.8,205.7,609.4,205.7z M620.4,205.7c0.7,0,1.2,0.6,1.2,1.2s-0.5,1.2-1.2,1.2c-0.7,0-1.2-0.6-1.2-1.2
		C619.2,206.3,619.7,205.7,620.4,205.7z M631.4,205.7c0.7,0,1.2,0.6,1.2,1.2s-0.5,1.2-1.2,1.2c-0.7,0-1.2-0.6-1.2-1.2
		C630.1,206.3,630.7,205.7,631.4,205.7z M642.4,205.7c0.7,0,1.2,0.6,1.2,1.2s-0.5,1.2-1.2,1.2c-0.7,0-1.2-0.6-1.2-1.2
		C641.1,206.3,641.7,205.7,642.4,205.7z M653.3,205.7c0.7,0,1.2,0.6,1.2,1.2s-0.5,1.2-1.2,1.2c-0.7,0-1.2-0.6-1.2-1.2
		C652.1,206.3,652.6,205.7,653.3,205.7z M467.1,205.7c0.7,0,1.2,0.6,1.2,1.2s-0.6,1.2-1.2,1.2c-0.7,0-1.2-0.6-1.2-1.2
		C465.8,206.3,466.4,205.7,467.1,205.7z M478,205.7c0.7,0,1.2,0.6,1.2,1.2s-0.6,1.2-1.2,1.2c-0.7,0-1.2-0.6-1.2-1.2
		C476.8,206.3,477.3,205.7,478,205.7z M489,205.7c0.7,0,1.2,0.6,1.2,1.2s-0.6,1.2-1.2,1.2s-1.2-0.6-1.2-1.2
		C487.8,206.3,488.3,205.7,489,205.7z M500,205.7c0.7,0,1.2,0.6,1.2,1.2s-0.6,1.2-1.2,1.2c-0.7,0-1.2-0.6-1.2-1.2
		C498.7,206.3,499.3,205.7,500,205.7z M510.9,205.7c0.7,0,1.2,0.6,1.2,1.2c0,0.7-0.6,1.2-1.2,1.2c-0.7,0-1.2-0.6-1.2-1.2
		C509.7,206.3,510.3,205.7,510.9,205.7z M521.9,205.7c0.7,0,1.2,0.6,1.2,1.2c0,0.7-0.5,1.2-1.2,1.2s-1.2-0.6-1.2-1.2
		C520.7,206.3,521.2,205.7,521.9,205.7z M532.9,205.7c0.7,0,1.2,0.6,1.2,1.2c0,0.7-0.5,1.2-1.2,1.2s-1.2-0.6-1.2-1.2
		C531.6,206.3,532.2,205.7,532.9,205.7z M543.8,205.7c0.7,0,1.2,0.6,1.2,1.2c0,0.7-0.5,1.2-1.2,1.2s-1.2-0.6-1.2-1.2
		C542.6,206.3,543.2,205.7,543.8,205.7z M565.6,194.7c0.7,0,1.2,0.6,1.2,1.2c0,0.7-0.5,1.2-1.2,1.2s-1.2-0.6-1.2-1.2
		C564.3,195.3,564.9,194.7,565.6,194.7z M576.5,194.7c0.7,0,1.2,0.6,1.2,1.2c0,0.7-0.5,1.2-1.2,1.2c-0.7,0-1.2-0.6-1.2-1.2
		C575.3,195.3,575.8,194.7,576.5,194.7z M587.5,194.7c0.7,0,1.2,0.6,1.2,1.2c0,0.7-0.5,1.2-1.2,1.2c-0.7,0-1.2-0.6-1.2-1.2
		C586.3,195.3,586.8,194.7,587.5,194.7z M598.5,194.7c0.7,0,1.2,0.6,1.2,1.2c0,0.7-0.5,1.2-1.2,1.2c-0.7,0-1.2-0.6-1.2-1.2
		C597.2,195.3,597.8,194.7,598.5,194.7z M609.4,194.7c0.7,0,1.2,0.6,1.2,1.2c0,0.7-0.5,1.2-1.2,1.2c-0.7,0-1.2-0.6-1.2-1.2
		C608.2,195.3,608.8,194.7,609.4,194.7z M620.4,194.7c0.7,0,1.2,0.6,1.2,1.2c0,0.7-0.5,1.2-1.2,1.2c-0.7,0-1.2-0.6-1.2-1.2
		C619.2,195.3,619.7,194.7,620.4,194.7z M631.4,194.7c0.7,0,1.2,0.6,1.2,1.2c0,0.7-0.5,1.2-1.2,1.2c-0.7,0-1.2-0.6-1.2-1.2
		C630.1,195.3,630.7,194.7,631.4,194.7z M642.4,194.7c0.7,0,1.2,0.6,1.2,1.2c0,0.7-0.5,1.2-1.2,1.2c-0.7,0-1.2-0.6-1.2-1.2
		C641.1,195.3,641.7,194.7,642.4,194.7z M653.3,194.7c0.7,0,1.2,0.6,1.2,1.2c0,0.7-0.5,1.2-1.2,1.2c-0.7,0-1.2-0.6-1.2-1.2
		C652.1,195.3,652.6,194.7,653.3,194.7z M467.1,194.7c0.7,0,1.2,0.6,1.2,1.2c0,0.7-0.6,1.2-1.2,1.2c-0.7,0-1.2-0.6-1.2-1.2
		C465.8,195.3,466.4,194.7,467.1,194.7z M478,194.7c0.7,0,1.2,0.6,1.2,1.2c0,0.7-0.6,1.2-1.2,1.2c-0.7,0-1.2-0.6-1.2-1.2
		C476.8,195.3,477.3,194.7,478,194.7z M489,194.7c0.7,0,1.2,0.6,1.2,1.2c0,0.7-0.6,1.2-1.2,1.2s-1.2-0.6-1.2-1.2
		C487.8,195.3,488.3,194.7,489,194.7z M500,194.7c0.7,0,1.2,0.6,1.2,1.2s-0.6,1.2-1.2,1.2c-0.7,0-1.2-0.6-1.2-1.2
		C498.7,195.3,499.3,194.7,500,194.7z M510.9,194.7c0.7,0,1.2,0.6,1.2,1.2s-0.6,1.2-1.2,1.2c-0.7,0-1.2-0.6-1.2-1.2
		C509.7,195.3,510.3,194.7,510.9,194.7z M521.9,194.7c0.7,0,1.2,0.6,1.2,1.2s-0.5,1.2-1.2,1.2s-1.2-0.6-1.2-1.2
		C520.7,195.3,521.2,194.7,521.9,194.7z M532.9,194.7c0.7,0,1.2,0.6,1.2,1.2s-0.5,1.2-1.2,1.2s-1.2-0.6-1.2-1.2
		C531.6,195.3,532.2,194.7,532.9,194.7z M543.8,194.7c0.7,0,1.2,0.6,1.2,1.2s-0.5,1.2-1.2,1.2s-1.2-0.6-1.2-1.2
		C542.6,195.3,543.2,194.7,543.8,194.7z M554.8,194.7c0.7,0,1.2,0.6,1.2,1.2s-0.5,1.2-1.2,1.2s-1.2-0.6-1.2-1.2
		C553.6,195.3,554.1,194.7,554.8,194.7z M565.6,183.7c0.7,0,1.2,0.6,1.2,1.2c0,0.7-0.5,1.2-1.2,1.2s-1.2-0.6-1.2-1.2
		C564.3,184.3,564.9,183.7,565.6,183.7z M576.5,183.7c0.7,0,1.2,0.6,1.2,1.2c0,0.7-0.5,1.2-1.2,1.2c-0.7,0-1.2-0.6-1.2-1.2
		C575.3,184.3,575.8,183.7,576.5,183.7z M587.5,183.7c0.7,0,1.2,0.6,1.2,1.2c0,0.7-0.5,1.2-1.2,1.2c-0.7,0-1.2-0.6-1.2-1.2
		C586.3,184.3,586.8,183.7,587.5,183.7z M598.5,183.7c0.7,0,1.2,0.6,1.2,1.2c0,0.7-0.5,1.2-1.2,1.2c-0.7,0-1.2-0.6-1.2-1.2
		C597.2,184.3,597.8,183.7,598.5,183.7z M609.4,183.7c0.7,0,1.2,0.6,1.2,1.2c0,0.7-0.5,1.2-1.2,1.2c-0.7,0-1.2-0.6-1.2-1.2
		C608.2,184.3,608.8,183.7,609.4,183.7z M620.4,183.7c0.7,0,1.2,0.6,1.2,1.2c0,0.7-0.5,1.2-1.2,1.2c-0.7,0-1.2-0.6-1.2-1.2
		C619.2,184.3,619.7,183.7,620.4,183.7z M631.4,183.7c0.7,0,1.2,0.6,1.2,1.2c0,0.7-0.5,1.2-1.2,1.2c-0.7,0-1.2-0.6-1.2-1.2
		C630.1,184.3,630.7,183.7,631.4,183.7z M642.4,183.7c0.7,0,1.2,0.6,1.2,1.2c0,0.7-0.5,1.2-1.2,1.2c-0.7,0-1.2-0.6-1.2-1.2
		C641.1,184.3,641.7,183.7,642.4,183.7z M653.3,183.7c0.7,0,1.2,0.6,1.2,1.2c0,0.7-0.5,1.2-1.2,1.2c-0.7,0-1.2-0.6-1.2-1.2
		C652.1,184.3,652.6,183.7,653.3,183.7z M467.1,183.7c0.7,0,1.2,0.6,1.2,1.2c0,0.7-0.6,1.2-1.2,1.2c-0.7,0-1.2-0.6-1.2-1.2
		C465.8,184.3,466.4,183.7,467.1,183.7z M478,183.7c0.7,0,1.2,0.6,1.2,1.2s-0.6,1.2-1.2,1.2c-0.7,0-1.2-0.6-1.2-1.2
		S477.3,183.7,478,183.7z M489,183.7c0.7,0,1.2,0.6,1.2,1.2s-0.6,1.2-1.2,1.2s-1.2-0.6-1.2-1.2S488.3,183.7,489,183.7z M500,183.7
		c0.7,0,1.2,0.6,1.2,1.2s-0.6,1.2-1.2,1.2c-0.7,0-1.2-0.6-1.2-1.2S499.3,183.7,500,183.7z M510.9,183.7c0.7,0,1.2,0.6,1.2,1.2
		s-0.6,1.2-1.2,1.2c-0.7,0-1.2-0.6-1.2-1.2S510.3,183.7,510.9,183.7z M521.9,183.7c0.7,0,1.2,0.6,1.2,1.2s-0.5,1.2-1.2,1.2
		s-1.2-0.6-1.2-1.2S521.2,183.7,521.9,183.7z M532.9,183.7c0.7,0,1.2,0.6,1.2,1.2s-0.5,1.2-1.2,1.2s-1.2-0.6-1.2-1.2
		S532.2,183.7,532.9,183.7z M543.8,183.7c0.7,0,1.2,0.6,1.2,1.2s-0.5,1.2-1.2,1.2s-1.2-0.6-1.2-1.2S543.2,183.7,543.8,183.7z
		 M554.8,183.7c0.7,0,1.2,0.6,1.2,1.2s-0.5,1.2-1.2,1.2s-1.2-0.6-1.2-1.2S554.1,183.7,554.8,183.7z"/>
	<path class="st6" d="M333.1,613.5c0.7,0,1.2,0.6,1.2,1.2c0,0.7-0.6,1.2-1.2,1.2s-1.2-0.6-1.2-1.2S332.4,613.5,333.1,613.5z
		 M322.1,613.5c0.7,0,1.2,0.6,1.2,1.2c0,0.7-0.6,1.2-1.2,1.2s-1.2-0.6-1.2-1.2C320.9,614.1,321.4,613.5,322.1,613.5z M311.1,613.5
		c0.7,0,1.2,0.6,1.2,1.2c0,0.7-0.6,1.2-1.2,1.2c-0.7,0-1.2-0.6-1.2-1.2C309.9,614.1,310.5,613.5,311.1,613.5z M300.2,613.5
		c0.7,0,1.2,0.6,1.2,1.2c0,0.7-0.6,1.2-1.2,1.2c-0.7,0-1.2-0.6-1.2-1.2S299.5,613.5,300.2,613.5z M289.2,613.5
		c0.7,0,1.2,0.6,1.2,1.2c0,0.7-0.6,1.2-1.2,1.2c-0.7,0-1.2-0.6-1.2-1.2S288.5,613.5,289.2,613.5z M278.2,613.5
		c0.7,0,1.2,0.6,1.2,1.2c0,0.7-0.6,1.2-1.2,1.2s-1.2-0.6-1.2-1.2C277,614.1,277.5,613.5,278.2,613.5z M267.3,613.5
		c0.7,0,1.2,0.6,1.2,1.2c0,0.7-0.6,1.2-1.2,1.2c-0.7,0-1.2-0.6-1.2-1.2S266.6,613.5,267.3,613.5z M256.3,613.5
		c0.7,0,1.2,0.6,1.2,1.2c0,0.7-0.6,1.2-1.2,1.2c-0.7,0-1.2-0.6-1.2-1.2S255.6,613.5,256.3,613.5z M245.3,613.5
		c0.7,0,1.2,0.6,1.2,1.2c0,0.7-0.6,1.2-1.2,1.2s-1.2-0.6-1.2-1.2C244.1,614.1,244.6,613.5,245.3,613.5z M234.6,613.5
		c0.7,0,1.2,0.6,1.2,1.2c0,0.7-0.6,1.2-1.2,1.2s-1.2-0.6-1.2-1.2C233.3,614.1,233.9,613.5,234.6,613.5z M223.6,613.5
		c0.7,0,1.2,0.6,1.2,1.2c0,0.7-0.6,1.2-1.2,1.2c-0.7,0-1.2-0.6-1.2-1.2S222.9,613.5,223.6,613.5z M212.6,613.5
		c0.7,0,1.2,0.6,1.2,1.2c0,0.7-0.6,1.2-1.2,1.2s-1.2-0.6-1.2-1.2S211.9,613.5,212.6,613.5z M201.7,613.5c0.7,0,1.2,0.6,1.2,1.2
		c0,0.7-0.6,1.2-1.2,1.2c-0.7,0-1.2-0.6-1.2-1.2C200.4,614.1,201,613.5,201.7,613.5z M190.7,613.5c0.7,0,1.2,0.6,1.2,1.2
		c0,0.7-0.6,1.2-1.2,1.2c-0.7,0-1.2-0.6-1.2-1.2S190,613.5,190.7,613.5z M179.7,613.5c0.7,0,1.2,0.6,1.2,1.2c0,0.7-0.6,1.2-1.2,1.2
		c-0.7,0-1.2-0.6-1.2-1.2S179,613.5,179.7,613.5z M168.7,613.5c0.7,0,1.2,0.6,1.2,1.2c0,0.7-0.6,1.2-1.2,1.2c-0.7,0-1.2-0.6-1.2-1.2
		S168.1,613.5,168.7,613.5z M157.8,613.5c0.7,0,1.2,0.6,1.2,1.2c0,0.7-0.6,1.2-1.2,1.2c-0.7,0-1.2-0.6-1.2-1.2
		S157.1,613.5,157.8,613.5z M146.8,613.5c0.7,0,1.2,0.6,1.2,1.2c0,0.7-0.6,1.2-1.2,1.2s-1.2-0.6-1.2-1.2S146.1,613.5,146.8,613.5z
		 M333.1,602.6c0.7,0,1.2,0.5,1.2,1.2c0,0.7-0.6,1.2-1.2,1.2s-1.2-0.6-1.2-1.2S332.4,602.6,333.1,602.6z M322.1,602.6
		c0.7,0,1.2,0.5,1.2,1.2c0,0.7-0.6,1.2-1.2,1.2s-1.2-0.6-1.2-1.2C320.9,603.1,321.4,602.6,322.1,602.6z M311.1,602.6
		c0.7,0,1.2,0.5,1.2,1.2c0,0.7-0.6,1.2-1.2,1.2c-0.7,0-1.2-0.6-1.2-1.2C309.9,603.1,310.5,602.6,311.1,602.6z M300.2,602.6
		c0.7,0,1.2,0.5,1.2,1.2c0,0.7-0.6,1.2-1.2,1.2c-0.7,0-1.2-0.6-1.2-1.2S299.5,602.6,300.2,602.6z M289.2,602.6
		c0.7,0,1.2,0.5,1.2,1.2c0,0.7-0.6,1.2-1.2,1.2c-0.7,0-1.2-0.6-1.2-1.2S288.5,602.6,289.2,602.6z M278.2,602.6
		c0.7,0,1.2,0.5,1.2,1.2c0,0.7-0.6,1.2-1.2,1.2s-1.2-0.6-1.2-1.2C277,603.1,277.5,602.6,278.2,602.6z M267.3,602.6
		c0.7,0,1.2,0.5,1.2,1.2c0,0.7-0.6,1.2-1.2,1.2c-0.7,0-1.2-0.6-1.2-1.2S266.6,602.6,267.3,602.6z M256.3,602.6
		c0.7,0,1.2,0.5,1.2,1.2c0,0.7-0.6,1.2-1.2,1.2c-0.7,0-1.2-0.6-1.2-1.2S255.6,602.6,256.3,602.6z M245.3,602.6
		c0.7,0,1.2,0.5,1.2,1.2c0,0.7-0.6,1.2-1.2,1.2s-1.2-0.6-1.2-1.2C244.1,603.1,244.6,602.6,245.3,602.6z M234.6,602.6
		c0.7,0,1.2,0.5,1.2,1.2c0,0.7-0.6,1.2-1.2,1.2s-1.2-0.6-1.2-1.2C233.3,603.1,233.9,602.6,234.6,602.6z M223.6,602.6
		c0.7,0,1.2,0.5,1.2,1.2c0,0.7-0.6,1.2-1.2,1.2c-0.7,0-1.2-0.6-1.2-1.2S222.9,602.6,223.6,602.6z M212.6,602.6
		c0.7,0,1.2,0.5,1.2,1.2c0,0.7-0.6,1.2-1.2,1.2s-1.2-0.6-1.2-1.2S211.9,602.6,212.6,602.6z M201.7,602.6c0.7,0,1.2,0.5,1.2,1.2
		c0,0.7-0.6,1.2-1.2,1.2c-0.7,0-1.2-0.6-1.2-1.2C200.4,603.1,201,602.6,201.7,602.6z M190.7,602.6c0.7,0,1.2,0.5,1.2,1.2
		c0,0.7-0.6,1.2-1.2,1.2c-0.7,0-1.2-0.6-1.2-1.2S190,602.6,190.7,602.6z M179.7,602.6c0.7,0,1.2,0.5,1.2,1.2c0,0.7-0.6,1.2-1.2,1.2
		c-0.7,0-1.2-0.6-1.2-1.2S179,602.6,179.7,602.6z M168.7,602.6c0.7,0,1.2,0.5,1.2,1.2c0,0.7-0.6,1.2-1.2,1.2c-0.7,0-1.2-0.6-1.2-1.2
		S168.1,602.6,168.7,602.6z M157.8,602.6c0.7,0,1.2,0.5,1.2,1.2c0,0.7-0.6,1.2-1.2,1.2c-0.7,0-1.2-0.6-1.2-1.2
		S157.1,602.6,157.8,602.6z M146.8,602.6c0.7,0,1.2,0.5,1.2,1.2c0,0.7-0.6,1.2-1.2,1.2s-1.2-0.6-1.2-1.2S146.1,602.6,146.8,602.6z
		 M333.1,591.7c0.7,0,1.2,0.6,1.2,1.2c0,0.7-0.6,1.2-1.2,1.2s-1.2-0.5-1.2-1.2C331.8,592.2,332.4,591.7,333.1,591.7z M322.1,591.7
		c0.7,0,1.2,0.6,1.2,1.2c0,0.7-0.6,1.2-1.2,1.2s-1.2-0.5-1.2-1.2C320.9,592.2,321.4,591.7,322.1,591.7z M311.1,591.7
		c0.7,0,1.2,0.6,1.2,1.2c0,0.7-0.6,1.2-1.2,1.2c-0.7,0-1.2-0.5-1.2-1.2C309.9,592.2,310.5,591.7,311.1,591.7z M300.2,591.7
		c0.7,0,1.2,0.6,1.2,1.2c0,0.7-0.6,1.2-1.2,1.2c-0.7,0-1.2-0.5-1.2-1.2C298.9,592.2,299.5,591.7,300.2,591.7z M289.2,591.7
		c0.7,0,1.2,0.6,1.2,1.2c0,0.7-0.6,1.2-1.2,1.2c-0.7,0-1.2-0.5-1.2-1.2C288,592.2,288.5,591.7,289.2,591.7z M278.2,591.7
		c0.7,0,1.2,0.6,1.2,1.2c0,0.7-0.6,1.2-1.2,1.2s-1.2-0.5-1.2-1.2C277,592.2,277.5,591.7,278.2,591.7z M267.3,591.7
		c0.7,0,1.2,0.6,1.2,1.2c0,0.7-0.6,1.2-1.2,1.2c-0.7,0-1.2-0.5-1.2-1.2C266,592.2,266.6,591.7,267.3,591.7z M256.3,591.7
		c0.7,0,1.2,0.6,1.2,1.2c0,0.7-0.6,1.2-1.2,1.2c-0.7,0-1.2-0.5-1.2-1.2C255,592.2,255.6,591.7,256.3,591.7z M245.3,591.7
		c0.7,0,1.2,0.6,1.2,1.2c0,0.7-0.6,1.2-1.2,1.2s-1.2-0.5-1.2-1.2C244.1,592.2,244.6,591.7,245.3,591.7z M234.6,591.7
		c0.7,0,1.2,0.6,1.2,1.2c0,0.7-0.6,1.2-1.2,1.2s-1.2-0.5-1.2-1.2C233.3,592.2,233.9,591.7,234.6,591.7z M223.6,591.7
		c0.7,0,1.2,0.6,1.2,1.2c0,0.7-0.6,1.2-1.2,1.2c-0.7,0-1.2-0.5-1.2-1.2C222.4,592.2,222.9,591.7,223.6,591.7z M212.6,591.7
		c0.7,0,1.2,0.6,1.2,1.2c0,0.7-0.6,1.2-1.2,1.2s-1.2-0.5-1.2-1.2C211.4,592.2,211.9,591.7,212.6,591.7z M201.7,591.7
		c0.7,0,1.2,0.6,1.2,1.2c0,0.7-0.6,1.2-1.2,1.2c-0.7,0-1.2-0.5-1.2-1.2C200.4,592.2,201,591.7,201.7,591.7z M190.7,591.7
		c0.7,0,1.2,0.6,1.2,1.2c0,0.7-0.6,1.2-1.2,1.2c-0.7,0-1.2-0.5-1.2-1.2C189.5,592.2,190,591.7,190.7,591.7z M179.7,591.7
		c0.7,0,1.2,0.6,1.2,1.2c0,0.7-0.6,1.2-1.2,1.2c-0.7,0-1.2-0.5-1.2-1.2C178.5,592.2,179,591.7,179.7,591.7z M168.7,591.7
		c0.7,0,1.2,0.6,1.2,1.2c0,0.7-0.6,1.2-1.2,1.2c-0.7,0-1.2-0.5-1.2-1.2C167.5,592.2,168.1,591.7,168.7,591.7z M157.8,591.7
		c0.7,0,1.2,0.6,1.2,1.2c0,0.7-0.6,1.2-1.2,1.2c-0.7,0-1.2-0.5-1.2-1.2C156.5,592.2,157.1,591.7,157.8,591.7z M146.8,591.7
		c0.7,0,1.2,0.6,1.2,1.2c0,0.7-0.6,1.2-1.2,1.2s-1.2-0.5-1.2-1.2C145.6,592.2,146.1,591.7,146.8,591.7z M333.1,580.7
		c0.7,0,1.2,0.5,1.2,1.2c0,0.7-0.6,1.2-1.2,1.2s-1.2-0.6-1.2-1.2S332.4,580.7,333.1,580.7z M322.1,580.7c0.7,0,1.2,0.5,1.2,1.2
		c0,0.7-0.6,1.2-1.2,1.2s-1.2-0.6-1.2-1.2C320.9,581.3,321.4,580.7,322.1,580.7z M311.1,580.7c0.7,0,1.2,0.5,1.2,1.2
		c0,0.7-0.6,1.2-1.2,1.2c-0.7,0-1.2-0.6-1.2-1.2C309.9,581.3,310.5,580.7,311.1,580.7z M300.2,580.7c0.7,0,1.2,0.5,1.2,1.2
		c0,0.7-0.6,1.2-1.2,1.2c-0.7,0-1.2-0.6-1.2-1.2S299.5,580.7,300.2,580.7z M289.2,580.7c0.7,0,1.2,0.5,1.2,1.2
		c0,0.7-0.6,1.2-1.2,1.2c-0.7,0-1.2-0.6-1.2-1.2S288.5,580.7,289.2,580.7z M278.2,580.7c0.7,0,1.2,0.5,1.2,1.2
		c0,0.7-0.6,1.2-1.2,1.2s-1.2-0.6-1.2-1.2C277,581.3,277.5,580.7,278.2,580.7z M267.3,580.7c0.7,0,1.2,0.5,1.2,1.2
		c0,0.7-0.6,1.2-1.2,1.2c-0.7,0-1.2-0.6-1.2-1.2S266.6,580.7,267.3,580.7z M256.3,580.7c0.7,0,1.2,0.5,1.2,1.2
		c0,0.7-0.6,1.2-1.2,1.2c-0.7,0-1.2-0.6-1.2-1.2S255.6,580.7,256.3,580.7z M245.3,580.7c0.7,0,1.2,0.5,1.2,1.2
		c0,0.7-0.6,1.2-1.2,1.2s-1.2-0.6-1.2-1.2C244.1,581.3,244.6,580.7,245.3,580.7z M234.6,580.7c0.7,0,1.2,0.5,1.2,1.2
		c0,0.7-0.6,1.2-1.2,1.2s-1.2-0.6-1.2-1.2C233.3,581.3,233.9,580.7,234.6,580.7z M223.6,580.7c0.7,0,1.2,0.5,1.2,1.2
		c0,0.7-0.6,1.2-1.2,1.2c-0.7,0-1.2-0.6-1.2-1.2S222.9,580.7,223.6,580.7z M212.6,580.7c0.7,0,1.2,0.5,1.2,1.2
		c0,0.7-0.6,1.2-1.2,1.2s-1.2-0.6-1.2-1.2S211.9,580.7,212.6,580.7z M201.7,580.7c0.7,0,1.2,0.5,1.2,1.2c0,0.7-0.6,1.2-1.2,1.2
		c-0.7,0-1.2-0.6-1.2-1.2C200.4,581.3,201,580.7,201.7,580.7z M190.7,580.7c0.7,0,1.2,0.5,1.2,1.2c0,0.7-0.6,1.2-1.2,1.2
		c-0.7,0-1.2-0.6-1.2-1.2S190,580.7,190.7,580.7z M179.7,580.7c0.7,0,1.2,0.5,1.2,1.2c0,0.7-0.6,1.2-1.2,1.2c-0.7,0-1.2-0.6-1.2-1.2
		S179,580.7,179.7,580.7z M168.7,580.7c0.7,0,1.2,0.5,1.2,1.2c0,0.7-0.6,1.2-1.2,1.2c-0.7,0-1.2-0.6-1.2-1.2
		S168.1,580.7,168.7,580.7z M157.8,580.7c0.7,0,1.2,0.5,1.2,1.2c0,0.7-0.6,1.2-1.2,1.2c-0.7,0-1.2-0.6-1.2-1.2
		S157.1,580.7,157.8,580.7z M146.8,580.7c0.7,0,1.2,0.5,1.2,1.2c0,0.7-0.6,1.2-1.2,1.2s-1.2-0.6-1.2-1.2S146.1,580.7,146.8,580.7z
		 M333.1,569.8c0.7,0,1.2,0.6,1.2,1.2c0,0.7-0.6,1.2-1.2,1.2s-1.2-0.6-1.2-1.2C331.8,570.3,332.4,569.8,333.1,569.8z M322.1,569.8
		c0.7,0,1.2,0.6,1.2,1.2c0,0.7-0.6,1.2-1.2,1.2s-1.2-0.6-1.2-1.2C320.9,570.3,321.4,569.8,322.1,569.8z M311.1,569.8
		c0.7,0,1.2,0.6,1.2,1.2c0,0.7-0.6,1.2-1.2,1.2c-0.7,0-1.2-0.6-1.2-1.2C309.9,570.3,310.5,569.8,311.1,569.8z M300.2,569.8
		c0.7,0,1.2,0.6,1.2,1.2c0,0.7-0.6,1.2-1.2,1.2c-0.7,0-1.2-0.6-1.2-1.2C298.9,570.3,299.5,569.8,300.2,569.8z M289.2,569.8
		c0.7,0,1.2,0.6,1.2,1.2c0,0.7-0.6,1.2-1.2,1.2c-0.7,0-1.2-0.6-1.2-1.2C288,570.3,288.5,569.8,289.2,569.8z M278.2,569.8
		c0.7,0,1.2,0.6,1.2,1.2c0,0.7-0.6,1.2-1.2,1.2s-1.2-0.6-1.2-1.2C277,570.3,277.5,569.8,278.2,569.8z M267.3,569.8
		c0.7,0,1.2,0.6,1.2,1.2c0,0.7-0.6,1.2-1.2,1.2c-0.7,0-1.2-0.6-1.2-1.2C266,570.3,266.6,569.8,267.3,569.8z M256.3,569.8
		c0.7,0,1.2,0.6,1.2,1.2c0,0.7-0.6,1.2-1.2,1.2c-0.7,0-1.2-0.6-1.2-1.2C255,570.3,255.6,569.8,256.3,569.8z M245.3,569.8
		c0.7,0,1.2,0.6,1.2,1.2c0,0.7-0.6,1.2-1.2,1.2s-1.2-0.6-1.2-1.2C244.1,570.3,244.6,569.8,245.3,569.8z M234.6,569.8
		c0.7,0,1.2,0.6,1.2,1.2c0,0.7-0.6,1.2-1.2,1.2s-1.2-0.6-1.2-1.2C233.3,570.3,233.9,569.8,234.6,569.8z M223.6,569.8
		c0.7,0,1.2,0.6,1.2,1.2c0,0.7-0.6,1.2-1.2,1.2c-0.7,0-1.2-0.6-1.2-1.2C222.4,570.3,222.9,569.8,223.6,569.8z M212.6,569.8
		c0.7,0,1.2,0.6,1.2,1.2c0,0.7-0.6,1.2-1.2,1.2s-1.2-0.6-1.2-1.2C211.4,570.3,211.9,569.8,212.6,569.8z M201.7,569.8
		c0.7,0,1.2,0.6,1.2,1.2c0,0.7-0.6,1.2-1.2,1.2c-0.7,0-1.2-0.6-1.2-1.2C200.4,570.3,201,569.8,201.7,569.8z M190.7,569.8
		c0.7,0,1.2,0.6,1.2,1.2c0,0.7-0.6,1.2-1.2,1.2c-0.7,0-1.2-0.6-1.2-1.2C189.5,570.3,190,569.8,190.7,569.8z M179.7,569.8
		c0.7,0,1.2,0.6,1.2,1.2c0,0.7-0.6,1.2-1.2,1.2c-0.7,0-1.2-0.6-1.2-1.2C178.5,570.3,179,569.8,179.7,569.8z M168.7,569.8
		c0.7,0,1.2,0.6,1.2,1.2c0,0.7-0.6,1.2-1.2,1.2c-0.7,0-1.2-0.6-1.2-1.2C167.5,570.3,168.1,569.8,168.7,569.8z M157.8,569.8
		c0.7,0,1.2,0.6,1.2,1.2c0,0.7-0.6,1.2-1.2,1.2c-0.7,0-1.2-0.6-1.2-1.2C156.5,570.3,157.1,569.8,157.8,569.8z M146.8,569.8
		c0.7,0,1.2,0.6,1.2,1.2c0,0.7-0.6,1.2-1.2,1.2s-1.2-0.6-1.2-1.2C145.6,570.3,146.1,569.8,146.8,569.8z M333.1,558.8
		c0.7,0,1.2,0.6,1.2,1.2c0,0.7-0.6,1.2-1.2,1.2s-1.2-0.6-1.2-1.2C331.8,559.4,332.4,558.8,333.1,558.8z M322.1,558.8
		c0.7,0,1.2,0.6,1.2,1.2c0,0.7-0.6,1.2-1.2,1.2s-1.2-0.6-1.2-1.2C320.9,559.4,321.4,558.8,322.1,558.8z M311.1,558.8
		c0.7,0,1.2,0.6,1.2,1.2c0,0.7-0.6,1.2-1.2,1.2c-0.7,0-1.2-0.6-1.2-1.2C309.9,559.4,310.5,558.8,311.1,558.8z M300.2,558.8
		c0.7,0,1.2,0.6,1.2,1.2c0,0.7-0.6,1.2-1.2,1.2c-0.7,0-1.2-0.6-1.2-1.2C298.9,559.4,299.5,558.8,300.2,558.8z M289.2,558.8
		c0.7,0,1.2,0.6,1.2,1.2c0,0.7-0.6,1.2-1.2,1.2c-0.7,0-1.2-0.6-1.2-1.2C288,559.4,288.5,558.8,289.2,558.8z M278.2,558.8
		c0.7,0,1.2,0.6,1.2,1.2c0,0.7-0.6,1.2-1.2,1.2s-1.2-0.6-1.2-1.2C277,559.4,277.5,558.8,278.2,558.8z M267.3,558.8
		c0.7,0,1.2,0.6,1.2,1.2c0,0.7-0.6,1.2-1.2,1.2c-0.7,0-1.2-0.6-1.2-1.2C266,559.4,266.6,558.8,267.3,558.8z M256.3,558.8
		c0.7,0,1.2,0.6,1.2,1.2c0,0.7-0.6,1.2-1.2,1.2c-0.7,0-1.2-0.6-1.2-1.2C255,559.4,255.6,558.8,256.3,558.8z M245.3,558.8
		c0.7,0,1.2,0.6,1.2,1.2c0,0.7-0.6,1.2-1.2,1.2s-1.2-0.6-1.2-1.2C244.1,559.4,244.6,558.8,245.3,558.8z M234.6,558.8
		c0.7,0,1.2,0.6,1.2,1.2c0,0.7-0.6,1.2-1.2,1.2s-1.2-0.6-1.2-1.2C233.3,559.4,233.9,558.8,234.6,558.8z M223.6,558.8
		c0.7,0,1.2,0.6,1.2,1.2c0,0.7-0.6,1.2-1.2,1.2c-0.7,0-1.2-0.6-1.2-1.2C222.4,559.4,222.9,558.8,223.6,558.8z M212.6,558.8
		c0.7,0,1.2,0.6,1.2,1.2c0,0.7-0.6,1.2-1.2,1.2s-1.2-0.6-1.2-1.2C211.4,559.4,211.9,558.8,212.6,558.8z M201.7,558.8
		c0.7,0,1.2,0.6,1.2,1.2c0,0.7-0.6,1.2-1.2,1.2c-0.7,0-1.2-0.6-1.2-1.2C200.4,559.4,201,558.8,201.7,558.8z M190.7,558.8
		c0.7,0,1.2,0.6,1.2,1.2c0,0.7-0.6,1.2-1.2,1.2c-0.7,0-1.2-0.6-1.2-1.2C189.5,559.4,190,558.8,190.7,558.8z M179.7,558.8
		c0.7,0,1.2,0.6,1.2,1.2c0,0.7-0.6,1.2-1.2,1.2c-0.7,0-1.2-0.6-1.2-1.2C178.5,559.4,179,558.8,179.7,558.8z M168.7,558.8
		c0.7,0,1.2,0.6,1.2,1.2c0,0.7-0.6,1.2-1.2,1.2c-0.7,0-1.2-0.6-1.2-1.2C167.5,559.4,168.1,558.8,168.7,558.8z M157.8,558.8
		c0.7,0,1.2,0.6,1.2,1.2c0,0.7-0.6,1.2-1.2,1.2c-0.7,0-1.2-0.6-1.2-1.2C156.5,559.4,157.1,558.8,157.8,558.8z M146.8,558.8
		c0.7,0,1.2,0.6,1.2,1.2c0,0.7-0.6,1.2-1.2,1.2s-1.2-0.6-1.2-1.2C145.6,559.4,146.1,558.8,146.8,558.8z M333.1,547.9
		c0.7,0,1.2,0.6,1.2,1.2c0,0.7-0.6,1.2-1.2,1.2s-1.2-0.6-1.2-1.2C331.8,548.5,332.4,547.9,333.1,547.9z M322.1,547.9
		c0.7,0,1.2,0.6,1.2,1.2c0,0.7-0.6,1.2-1.2,1.2s-1.2-0.6-1.2-1.2C320.9,548.5,321.4,547.9,322.1,547.9z M311.1,547.9
		c0.7,0,1.2,0.6,1.2,1.2c0,0.7-0.6,1.2-1.2,1.2c-0.7,0-1.2-0.6-1.2-1.2C309.9,548.5,310.5,547.9,311.1,547.9z M300.2,547.9
		c0.7,0,1.2,0.6,1.2,1.2c0,0.7-0.6,1.2-1.2,1.2c-0.7,0-1.2-0.6-1.2-1.2C298.9,548.5,299.5,547.9,300.2,547.9z M289.2,547.9
		c0.7,0,1.2,0.6,1.2,1.2c0,0.7-0.6,1.2-1.2,1.2c-0.7,0-1.2-0.6-1.2-1.2C288,548.5,288.5,547.9,289.2,547.9z M278.2,547.9
		c0.7,0,1.2,0.6,1.2,1.2c0,0.7-0.6,1.2-1.2,1.2s-1.2-0.6-1.2-1.2C277,548.5,277.5,547.9,278.2,547.9z M267.3,547.9
		c0.7,0,1.2,0.6,1.2,1.2c0,0.7-0.6,1.2-1.2,1.2c-0.7,0-1.2-0.6-1.2-1.2C266,548.5,266.6,547.9,267.3,547.9z M256.3,547.9
		c0.7,0,1.2,0.6,1.2,1.2c0,0.7-0.6,1.2-1.2,1.2c-0.7,0-1.2-0.6-1.2-1.2C255,548.5,255.6,547.9,256.3,547.9z M245.3,547.9
		c0.7,0,1.2,0.6,1.2,1.2c0,0.7-0.6,1.2-1.2,1.2s-1.2-0.6-1.2-1.2C244.1,548.5,244.6,547.9,245.3,547.9z M234.6,547.9
		c0.7,0,1.2,0.6,1.2,1.2c0,0.7-0.6,1.2-1.2,1.2s-1.2-0.6-1.2-1.2C233.3,548.5,233.9,547.9,234.6,547.9z M223.6,547.9
		c0.7,0,1.2,0.6,1.2,1.2c0,0.7-0.6,1.2-1.2,1.2c-0.7,0-1.2-0.6-1.2-1.2C222.4,548.5,222.9,547.9,223.6,547.9z M212.6,547.9
		c0.7,0,1.2,0.6,1.2,1.2c0,0.7-0.6,1.2-1.2,1.2s-1.2-0.6-1.2-1.2C211.4,548.5,211.9,547.9,212.6,547.9z M201.7,547.9
		c0.7,0,1.2,0.6,1.2,1.2c0,0.7-0.6,1.2-1.2,1.2c-0.7,0-1.2-0.6-1.2-1.2C200.4,548.5,201,547.9,201.7,547.9z M190.7,547.9
		c0.7,0,1.2,0.6,1.2,1.2c0,0.7-0.6,1.2-1.2,1.2c-0.7,0-1.2-0.6-1.2-1.2C189.5,548.5,190,547.9,190.7,547.9z M179.7,547.9
		c0.7,0,1.2,0.6,1.2,1.2c0,0.7-0.6,1.2-1.2,1.2c-0.7,0-1.2-0.6-1.2-1.2C178.5,548.5,179,547.9,179.7,547.9z M168.7,547.9
		c0.7,0,1.2,0.6,1.2,1.2c0,0.7-0.6,1.2-1.2,1.2c-0.7,0-1.2-0.6-1.2-1.2C167.5,548.5,168.1,547.9,168.7,547.9z M157.8,547.9
		c0.7,0,1.2,0.6,1.2,1.2c0,0.7-0.6,1.2-1.2,1.2c-0.7,0-1.2-0.6-1.2-1.2C156.5,548.5,157.1,547.9,157.8,547.9z M146.8,547.9
		c0.7,0,1.2,0.6,1.2,1.2c0,0.7-0.6,1.2-1.2,1.2s-1.2-0.6-1.2-1.2C145.6,548.5,146.1,547.9,146.8,547.9z M333.1,537
		c0.7,0,1.2,0.6,1.2,1.2c0,0.7-0.6,1.2-1.2,1.2s-1.2-0.6-1.2-1.2C331.8,537.5,332.4,537,333.1,537z M322.1,537
		c0.7,0,1.2,0.6,1.2,1.2c0,0.7-0.6,1.2-1.2,1.2s-1.2-0.6-1.2-1.2C320.9,537.5,321.4,537,322.1,537z M311.1,537
		c0.7,0,1.2,0.6,1.2,1.2c0,0.7-0.6,1.2-1.2,1.2c-0.7,0-1.2-0.6-1.2-1.2C309.9,537.5,310.5,537,311.1,537z M300.2,537
		c0.7,0,1.2,0.6,1.2,1.2c0,0.7-0.6,1.2-1.2,1.2c-0.7,0-1.2-0.6-1.2-1.2C298.9,537.5,299.5,537,300.2,537z M289.2,537
		c0.7,0,1.2,0.6,1.2,1.2c0,0.7-0.6,1.2-1.2,1.2c-0.7,0-1.2-0.6-1.2-1.2C288,537.5,288.5,537,289.2,537z M278.2,537
		c0.7,0,1.2,0.6,1.2,1.2c0,0.7-0.6,1.2-1.2,1.2s-1.2-0.6-1.2-1.2C277,537.5,277.5,537,278.2,537z M267.3,537c0.7,0,1.2,0.6,1.2,1.2
		c0,0.7-0.6,1.2-1.2,1.2c-0.7,0-1.2-0.6-1.2-1.2C266,537.5,266.6,537,267.3,537z M256.3,537c0.7,0,1.2,0.6,1.2,1.2
		c0,0.7-0.6,1.2-1.2,1.2c-0.7,0-1.2-0.6-1.2-1.2C255,537.5,255.6,537,256.3,537z M245.3,537c0.7,0,1.2,0.6,1.2,1.2
		c0,0.7-0.6,1.2-1.2,1.2s-1.2-0.6-1.2-1.2C244.1,537.5,244.6,537,245.3,537z M234.6,537c0.7,0,1.2,0.6,1.2,1.2
		c0,0.7-0.6,1.2-1.2,1.2s-1.2-0.6-1.2-1.2C233.3,537.5,233.9,537,234.6,537z M223.6,537c0.7,0,1.2,0.6,1.2,1.2
		c0,0.7-0.6,1.2-1.2,1.2c-0.7,0-1.2-0.6-1.2-1.2C222.4,537.5,222.9,537,223.6,537z M212.6,537c0.7,0,1.2,0.6,1.2,1.2
		c0,0.7-0.6,1.2-1.2,1.2s-1.2-0.6-1.2-1.2C211.4,537.5,211.9,537,212.6,537z M201.7,537c0.7,0,1.2,0.6,1.2,1.2
		c0,0.7-0.6,1.2-1.2,1.2c-0.7,0-1.2-0.6-1.2-1.2C200.4,537.5,201,537,201.7,537z M190.7,537c0.7,0,1.2,0.6,1.2,1.2
		c0,0.7-0.6,1.2-1.2,1.2c-0.7,0-1.2-0.6-1.2-1.2C189.5,537.5,190,537,190.7,537z M179.7,537c0.7,0,1.2,0.6,1.2,1.2
		c0,0.7-0.6,1.2-1.2,1.2c-0.7,0-1.2-0.6-1.2-1.2C178.5,537.5,179,537,179.7,537z M168.7,537c0.7,0,1.2,0.6,1.2,1.2
		c0,0.7-0.6,1.2-1.2,1.2c-0.7,0-1.2-0.6-1.2-1.2C167.5,537.5,168.1,537,168.7,537z M157.8,537c0.7,0,1.2,0.6,1.2,1.2
		c0,0.7-0.6,1.2-1.2,1.2c-0.7,0-1.2-0.6-1.2-1.2C156.5,537.5,157.1,537,157.8,537z M146.8,537c0.7,0,1.2,0.6,1.2,1.2
		c0,0.7-0.6,1.2-1.2,1.2s-1.2-0.6-1.2-1.2C145.6,537.5,146.1,537,146.8,537z M333.1,526c0.7,0,1.2,0.6,1.2,1.2
		c0,0.7-0.6,1.2-1.2,1.2s-1.2-0.6-1.2-1.2C331.8,526.6,332.4,526,333.1,526z M322.1,526c0.7,0,1.2,0.6,1.2,1.2
		c0,0.7-0.6,1.2-1.2,1.2s-1.2-0.6-1.2-1.2C320.9,526.6,321.4,526,322.1,526z M311.1,526c0.7,0,1.2,0.6,1.2,1.2
		c0,0.7-0.6,1.2-1.2,1.2c-0.7,0-1.2-0.6-1.2-1.2C309.9,526.6,310.5,526,311.1,526z M300.2,526c0.7,0,1.2,0.6,1.2,1.2
		c0,0.7-0.6,1.2-1.2,1.2c-0.7,0-1.2-0.6-1.2-1.2C298.9,526.6,299.5,526,300.2,526z M289.2,526c0.7,0,1.2,0.6,1.2,1.2
		c0,0.7-0.6,1.2-1.2,1.2c-0.7,0-1.2-0.6-1.2-1.2C288,526.6,288.5,526,289.2,526z M278.2,526c0.7,0,1.2,0.6,1.2,1.2
		c0,0.7-0.6,1.2-1.2,1.2s-1.2-0.6-1.2-1.2C277,526.6,277.5,526,278.2,526z M267.3,526c0.7,0,1.2,0.6,1.2,1.2c0,0.7-0.6,1.2-1.2,1.2
		c-0.7,0-1.2-0.6-1.2-1.2C266,526.6,266.6,526,267.3,526z M256.3,526c0.7,0,1.2,0.6,1.2,1.2c0,0.7-0.6,1.2-1.2,1.2
		c-0.7,0-1.2-0.6-1.2-1.2C255,526.6,255.6,526,256.3,526z M245.3,526c0.7,0,1.2,0.6,1.2,1.2c0,0.7-0.6,1.2-1.2,1.2s-1.2-0.6-1.2-1.2
		C244.1,526.6,244.6,526,245.3,526z M234.6,526c0.7,0,1.2,0.6,1.2,1.2c0,0.7-0.6,1.2-1.2,1.2s-1.2-0.6-1.2-1.2
		C233.3,526.6,233.9,526,234.6,526z M223.6,526c0.7,0,1.2,0.6,1.2,1.2c0,0.7-0.6,1.2-1.2,1.2c-0.7,0-1.2-0.6-1.2-1.2
		C222.4,526.6,222.9,526,223.6,526z M212.6,526c0.7,0,1.2,0.6,1.2,1.2c0,0.7-0.6,1.2-1.2,1.2s-1.2-0.6-1.2-1.2
		C211.4,526.6,211.9,526,212.6,526z M201.7,526c0.7,0,1.2,0.6,1.2,1.2c0,0.7-0.6,1.2-1.2,1.2c-0.7,0-1.2-0.6-1.2-1.2
		C200.4,526.6,201,526,201.7,526z M190.7,526c0.7,0,1.2,0.6,1.2,1.2c0,0.7-0.6,1.2-1.2,1.2c-0.7,0-1.2-0.6-1.2-1.2
		C189.5,526.6,190,526,190.7,526z M179.7,526c0.7,0,1.2,0.6,1.2,1.2c0,0.7-0.6,1.2-1.2,1.2c-0.7,0-1.2-0.6-1.2-1.2
		C178.5,526.6,179,526,179.7,526z M168.7,526c0.7,0,1.2,0.6,1.2,1.2c0,0.7-0.6,1.2-1.2,1.2c-0.7,0-1.2-0.6-1.2-1.2
		C167.5,526.6,168.1,526,168.7,526z M157.8,526c0.7,0,1.2,0.6,1.2,1.2c0,0.7-0.6,1.2-1.2,1.2c-0.7,0-1.2-0.6-1.2-1.2
		C156.5,526.6,157.1,526,157.8,526z M146.8,526c0.7,0,1.2,0.6,1.2,1.2c0,0.7-0.6,1.2-1.2,1.2s-1.2-0.6-1.2-1.2
		C145.6,526.6,146.1,526,146.8,526z M333.1,516c0.7,0,1.2,0.6,1.2,1.2c0,0.7-0.6,1.2-1.2,1.2s-1.2-0.6-1.2-1.2
		C331.8,516.5,332.4,516,333.1,516z M322.1,516c0.7,0,1.2,0.6,1.2,1.2c0,0.7-0.6,1.2-1.2,1.2s-1.2-0.6-1.2-1.2
		C320.9,516.5,321.4,516,322.1,516z M311.1,516c0.7,0,1.2,0.6,1.2,1.2c0,0.7-0.6,1.2-1.2,1.2c-0.7,0-1.2-0.6-1.2-1.2
		C309.9,516.5,310.5,516,311.1,516z M300.2,516c0.7,0,1.2,0.6,1.2,1.2c0,0.7-0.6,1.2-1.2,1.2c-0.7,0-1.2-0.6-1.2-1.2
		C298.9,516.5,299.5,516,300.2,516z M289.2,516c0.7,0,1.2,0.6,1.2,1.2c0,0.7-0.6,1.2-1.2,1.2c-0.7,0-1.2-0.6-1.2-1.2
		C288,516.5,288.5,516,289.2,516z M278.2,516c0.7,0,1.2,0.6,1.2,1.2c0,0.7-0.6,1.2-1.2,1.2s-1.2-0.6-1.2-1.2
		C277,516.5,277.5,516,278.2,516z M267.3,516c0.7,0,1.2,0.6,1.2,1.2c0,0.7-0.6,1.2-1.2,1.2c-0.7,0-1.2-0.6-1.2-1.2
		C266,516.5,266.6,516,267.3,516z M256.3,516c0.7,0,1.2,0.6,1.2,1.2c0,0.7-0.6,1.2-1.2,1.2c-0.7,0-1.2-0.6-1.2-1.2
		C255,516.5,255.6,516,256.3,516z M245.3,516c0.7,0,1.2,0.6,1.2,1.2c0,0.7-0.6,1.2-1.2,1.2s-1.2-0.6-1.2-1.2
		C244.1,516.5,244.6,516,245.3,516z M234.6,516c0.7,0,1.2,0.6,1.2,1.2c0,0.7-0.6,1.2-1.2,1.2s-1.2-0.6-1.2-1.2
		C233.3,516.5,233.9,516,234.6,516z M223.6,516c0.7,0,1.2,0.6,1.2,1.2c0,0.7-0.6,1.2-1.2,1.2c-0.7,0-1.2-0.6-1.2-1.2
		C222.4,516.5,222.9,516,223.6,516z M212.6,516c0.7,0,1.2,0.6,1.2,1.2c0,0.7-0.6,1.2-1.2,1.2s-1.2-0.6-1.2-1.2
		C211.4,516.5,211.9,516,212.6,516z M201.7,516c0.7,0,1.2,0.6,1.2,1.2c0,0.7-0.6,1.2-1.2,1.2c-0.7,0-1.2-0.6-1.2-1.2
		C200.4,516.5,201,516,201.7,516z M190.7,516c0.7,0,1.2,0.6,1.2,1.2c0,0.7-0.6,1.2-1.2,1.2c-0.7,0-1.2-0.6-1.2-1.2
		C189.5,516.5,190,516,190.7,516z M179.7,516c0.7,0,1.2,0.6,1.2,1.2c0,0.7-0.6,1.2-1.2,1.2c-0.7,0-1.2-0.6-1.2-1.2
		C178.5,516.5,179,516,179.7,516z M168.7,516c0.7,0,1.2,0.6,1.2,1.2c0,0.7-0.6,1.2-1.2,1.2c-0.7,0-1.2-0.6-1.2-1.2
		C167.5,516.5,168.1,516,168.7,516z M157.8,516c0.7,0,1.2,0.6,1.2,1.2c0,0.7-0.6,1.2-1.2,1.2c-0.7,0-1.2-0.6-1.2-1.2
		C156.5,516.5,157.1,516,157.8,516z M146.8,516c0.7,0,1.2,0.6,1.2,1.2c0,0.7-0.6,1.2-1.2,1.2s-1.2-0.6-1.2-1.2
		C145.6,516.5,146.1,516,146.8,516z M333.1,505c0.7,0,1.2,0.6,1.2,1.2c0,0.7-0.6,1.2-1.2,1.2s-1.2-0.6-1.2-1.2
		C331.8,505.6,332.4,505,333.1,505z M322.1,505c0.7,0,1.2,0.6,1.2,1.2c0,0.7-0.6,1.2-1.2,1.2s-1.2-0.6-1.2-1.2
		C320.9,505.6,321.4,505,322.1,505z M311.1,505c0.7,0,1.2,0.6,1.2,1.2c0,0.7-0.6,1.2-1.2,1.2c-0.7,0-1.2-0.6-1.2-1.2
		C309.9,505.6,310.5,505,311.1,505z M300.2,505c0.7,0,1.2,0.6,1.2,1.2c0,0.7-0.6,1.2-1.2,1.2c-0.7,0-1.2-0.6-1.2-1.2
		C298.9,505.6,299.5,505,300.2,505z M289.2,505c0.7,0,1.2,0.6,1.2,1.2c0,0.7-0.6,1.2-1.2,1.2c-0.7,0-1.2-0.6-1.2-1.2
		C288,505.6,288.5,505,289.2,505z M278.2,505c0.7,0,1.2,0.6,1.2,1.2c0,0.7-0.6,1.2-1.2,1.2s-1.2-0.6-1.2-1.2
		C277,505.6,277.5,505,278.2,505z M267.3,505c0.7,0,1.2,0.6,1.2,1.2c0,0.7-0.6,1.2-1.2,1.2c-0.7,0-1.2-0.6-1.2-1.2
		C266,505.6,266.6,505,267.3,505z M256.3,505c0.7,0,1.2,0.6,1.2,1.2c0,0.7-0.6,1.2-1.2,1.2c-0.7,0-1.2-0.6-1.2-1.2
		C255,505.6,255.6,505,256.3,505z M245.3,505c0.7,0,1.2,0.6,1.2,1.2c0,0.7-0.6,1.2-1.2,1.2s-1.2-0.6-1.2-1.2
		C244.1,505.6,244.6,505,245.3,505z M234.6,505c0.7,0,1.2,0.6,1.2,1.2c0,0.7-0.6,1.2-1.2,1.2s-1.2-0.6-1.2-1.2
		C233.3,505.6,233.9,505,234.6,505z M223.6,505c0.7,0,1.2,0.6,1.2,1.2c0,0.7-0.6,1.2-1.2,1.2c-0.7,0-1.2-0.6-1.2-1.2
		C222.4,505.6,222.9,505,223.6,505z M212.6,505c0.7,0,1.2,0.6,1.2,1.2c0,0.7-0.6,1.2-1.2,1.2s-1.2-0.6-1.2-1.2
		C211.4,505.6,211.9,505,212.6,505z M201.7,505c0.7,0,1.2,0.6,1.2,1.2c0,0.7-0.6,1.2-1.2,1.2c-0.7,0-1.2-0.6-1.2-1.2
		C200.4,505.6,201,505,201.7,505z M190.7,505c0.7,0,1.2,0.6,1.2,1.2c0,0.7-0.6,1.2-1.2,1.2c-0.7,0-1.2-0.6-1.2-1.2
		C189.5,505.6,190,505,190.7,505z M179.7,505c0.7,0,1.2,0.6,1.2,1.2c0,0.7-0.6,1.2-1.2,1.2c-0.7,0-1.2-0.6-1.2-1.2
		C178.5,505.6,179,505,179.7,505z M168.7,505c0.7,0,1.2,0.6,1.2,1.2c0,0.7-0.6,1.2-1.2,1.2c-0.7,0-1.2-0.6-1.2-1.2
		C167.5,505.6,168.1,505,168.7,505z M157.8,505c0.7,0,1.2,0.6,1.2,1.2c0,0.7-0.6,1.2-1.2,1.2c-0.7,0-1.2-0.6-1.2-1.2
		C156.5,505.6,157.1,505,157.8,505z M146.8,505c0.7,0,1.2,0.6,1.2,1.2c0,0.7-0.6,1.2-1.2,1.2s-1.2-0.6-1.2-1.2
		C145.6,505.6,146.1,505,146.8,505z M245.3,494.1c0.7,0,1.2,0.6,1.2,1.2c0,0.7-0.6,1.2-1.2,1.2s-1.2-0.6-1.2-1.2
		C244.1,494.6,244.6,494.1,245.3,494.1z M256.3,494.1c0.7,0,1.2,0.6,1.2,1.2c0,0.7-0.6,1.2-1.2,1.2c-0.7,0-1.2-0.6-1.2-1.2
		C255,494.6,255.6,494.1,256.3,494.1z M267.3,494.1c0.7,0,1.2,0.6,1.2,1.2c0,0.7-0.6,1.2-1.2,1.2c-0.7,0-1.2-0.6-1.2-1.2
		C266,494.6,266.6,494.1,267.3,494.1z M278.2,494.1c0.7,0,1.2,0.6,1.2,1.2c0,0.7-0.6,1.2-1.2,1.2s-1.2-0.6-1.2-1.2
		C277,494.6,277.5,494.1,278.2,494.1z M289.2,494.1c0.7,0,1.2,0.6,1.2,1.2c0,0.7-0.6,1.2-1.2,1.2c-0.7,0-1.2-0.6-1.2-1.2
		C288,494.6,288.5,494.1,289.2,494.1z M300.2,494.1c0.7,0,1.2,0.6,1.2,1.2c0,0.7-0.6,1.2-1.2,1.2c-0.7,0-1.2-0.6-1.2-1.2
		C298.9,494.6,299.5,494.1,300.2,494.1z M311.1,494.1c0.7,0,1.2,0.6,1.2,1.2c0,0.7-0.6,1.2-1.2,1.2c-0.7,0-1.2-0.6-1.2-1.2
		C309.9,494.6,310.5,494.1,311.1,494.1z M322.1,494.1c0.7,0,1.2,0.6,1.2,1.2c0,0.7-0.6,1.2-1.2,1.2s-1.2-0.6-1.2-1.2
		C320.9,494.6,321.4,494.1,322.1,494.1z M333.1,494.1c0.7,0,1.2,0.6,1.2,1.2c0,0.7-0.6,1.2-1.2,1.2s-1.2-0.6-1.2-1.2
		C331.8,494.6,332.4,494.1,333.1,494.1z M146.8,494.1c0.7,0,1.2,0.6,1.2,1.2c0,0.7-0.6,1.2-1.2,1.2s-1.2-0.6-1.2-1.2
		C145.6,494.6,146.1,494.1,146.8,494.1z M157.8,494.1c0.7,0,1.2,0.6,1.2,1.2c0,0.7-0.6,1.2-1.2,1.2c-0.7,0-1.2-0.6-1.2-1.2
		C156.5,494.6,157.1,494.1,157.8,494.1z M168.7,494.1c0.7,0,1.2,0.6,1.2,1.2c0,0.7-0.6,1.2-1.2,1.2c-0.7,0-1.2-0.6-1.2-1.2
		C167.5,494.6,168.1,494.1,168.7,494.1z M179.7,494.1c0.7,0,1.2,0.6,1.2,1.2c0,0.7-0.6,1.2-1.2,1.2c-0.7,0-1.2-0.6-1.2-1.2
		C178.5,494.6,179,494.1,179.7,494.1z M190.7,494.1c0.7,0,1.2,0.6,1.2,1.2c0,0.7-0.6,1.2-1.2,1.2c-0.7,0-1.2-0.6-1.2-1.2
		C189.5,494.6,190,494.1,190.7,494.1z M201.7,494.1c0.7,0,1.2,0.6,1.2,1.2c0,0.7-0.6,1.2-1.2,1.2c-0.7,0-1.2-0.6-1.2-1.2
		C200.4,494.6,201,494.1,201.7,494.1z M212.6,494.1c0.7,0,1.2,0.6,1.2,1.2c0,0.7-0.6,1.2-1.2,1.2s-1.2-0.6-1.2-1.2
		C211.4,494.6,211.9,494.1,212.6,494.1z M223.6,494.1c0.7,0,1.2,0.6,1.2,1.2c0,0.7-0.6,1.2-1.2,1.2c-0.7,0-1.2-0.6-1.2-1.2
		C222.4,494.6,222.9,494.1,223.6,494.1z M234.6,494.1c0.7,0,1.2,0.6,1.2,1.2c0,0.7-0.6,1.2-1.2,1.2s-1.2-0.6-1.2-1.2
		C233.3,494.6,233.9,494.1,234.6,494.1z M245.3,483.2c0.7,0,1.2,0.6,1.2,1.2c0,0.7-0.6,1.2-1.2,1.2s-1.2-0.6-1.2-1.2
		C244.1,483.7,244.6,483.2,245.3,483.2z M256.3,483.2c0.7,0,1.2,0.6,1.2,1.2c0,0.7-0.6,1.2-1.2,1.2c-0.7,0-1.2-0.6-1.2-1.2
		C255,483.7,255.6,483.2,256.3,483.2z M267.3,483.2c0.7,0,1.2,0.6,1.2,1.2c0,0.7-0.6,1.2-1.2,1.2c-0.7,0-1.2-0.6-1.2-1.2
		C266,483.7,266.6,483.2,267.3,483.2z M278.2,483.2c0.7,0,1.2,0.6,1.2,1.2c0,0.7-0.6,1.2-1.2,1.2s-1.2-0.6-1.2-1.2
		C277,483.7,277.5,483.2,278.2,483.2z M289.2,483.2c0.7,0,1.2,0.6,1.2,1.2c0,0.7-0.6,1.2-1.2,1.2c-0.7,0-1.2-0.6-1.2-1.2
		C288,483.7,288.5,483.2,289.2,483.2z M300.2,483.2c0.7,0,1.2,0.6,1.2,1.2c0,0.7-0.6,1.2-1.2,1.2c-0.7,0-1.2-0.6-1.2-1.2
		C298.9,483.7,299.5,483.2,300.2,483.2z M311.1,483.2c0.7,0,1.2,0.6,1.2,1.2c0,0.7-0.6,1.2-1.2,1.2c-0.7,0-1.2-0.6-1.2-1.2
		C309.9,483.7,310.5,483.2,311.1,483.2z M322.1,483.2c0.7,0,1.2,0.6,1.2,1.2c0,0.7-0.6,1.2-1.2,1.2s-1.2-0.6-1.2-1.2
		C320.9,483.7,321.4,483.2,322.1,483.2z M333.1,483.2c0.7,0,1.2,0.6,1.2,1.2c0,0.7-0.6,1.2-1.2,1.2s-1.2-0.6-1.2-1.2
		C331.8,483.7,332.4,483.2,333.1,483.2z M146.8,483.2c0.7,0,1.2,0.6,1.2,1.2c0,0.7-0.6,1.2-1.2,1.2s-1.2-0.6-1.2-1.2
		C145.6,483.7,146.1,483.2,146.8,483.2z M157.8,483.2c0.7,0,1.2,0.6,1.2,1.2c0,0.7-0.6,1.2-1.2,1.2c-0.7,0-1.2-0.6-1.2-1.2
		C156.5,483.7,157.1,483.2,157.8,483.2z M168.7,483.2c0.7,0,1.2,0.6,1.2,1.2c0,0.7-0.6,1.2-1.2,1.2c-0.7,0-1.2-0.6-1.2-1.2
		C167.5,483.7,168.1,483.2,168.7,483.2z M179.7,483.2c0.7,0,1.2,0.6,1.2,1.2c0,0.7-0.6,1.2-1.2,1.2c-0.7,0-1.2-0.6-1.2-1.2
		C178.5,483.7,179,483.2,179.7,483.2z M190.7,483.2c0.7,0,1.2,0.6,1.2,1.2c0,0.7-0.6,1.2-1.2,1.2c-0.7,0-1.2-0.6-1.2-1.2
		C189.5,483.7,190,483.2,190.7,483.2z M201.7,483.2c0.7,0,1.2,0.6,1.2,1.2c0,0.7-0.6,1.2-1.2,1.2c-0.7,0-1.2-0.6-1.2-1.2
		C200.4,483.7,201,483.2,201.7,483.2z M212.6,483.2c0.7,0,1.2,0.6,1.2,1.2c0,0.7-0.6,1.2-1.2,1.2s-1.2-0.6-1.2-1.2
		C211.4,483.7,211.9,483.2,212.6,483.2z M223.6,483.2c0.7,0,1.2,0.6,1.2,1.2c0,0.7-0.6,1.2-1.2,1.2c-0.7,0-1.2-0.6-1.2-1.2
		C222.4,483.7,222.9,483.2,223.6,483.2z M234.6,483.2c0.7,0,1.2,0.6,1.2,1.2c0,0.7-0.6,1.2-1.2,1.2s-1.2-0.6-1.2-1.2
		C233.3,483.7,233.9,483.2,234.6,483.2z M245.3,472.2c0.7,0,1.2,0.6,1.2,1.2c0,0.7-0.6,1.2-1.2,1.2s-1.2-0.6-1.2-1.2
		C244.1,472.8,244.6,472.2,245.3,472.2z M256.3,472.2c0.7,0,1.2,0.6,1.2,1.2c0,0.7-0.6,1.2-1.2,1.2c-0.7,0-1.2-0.6-1.2-1.2
		C255,472.8,255.6,472.2,256.3,472.2z M267.3,472.2c0.7,0,1.2,0.6,1.2,1.2c0,0.7-0.6,1.2-1.2,1.2c-0.7,0-1.2-0.6-1.2-1.2
		C266,472.8,266.6,472.2,267.3,472.2z M278.2,472.2c0.7,0,1.2,0.6,1.2,1.2c0,0.7-0.6,1.2-1.2,1.2s-1.2-0.6-1.2-1.2
		C277,472.8,277.5,472.2,278.2,472.2z M289.2,472.2c0.7,0,1.2,0.6,1.2,1.2c0,0.7-0.6,1.2-1.2,1.2c-0.7,0-1.2-0.6-1.2-1.2
		C288,472.8,288.5,472.2,289.2,472.2z M300.2,472.2c0.7,0,1.2,0.6,1.2,1.2c0,0.7-0.6,1.2-1.2,1.2c-0.7,0-1.2-0.6-1.2-1.2
		C298.9,472.8,299.5,472.2,300.2,472.2z M311.1,472.2c0.7,0,1.2,0.6,1.2,1.2c0,0.7-0.6,1.2-1.2,1.2c-0.7,0-1.2-0.6-1.2-1.2
		C309.9,472.8,310.5,472.2,311.1,472.2z M322.1,472.2c0.7,0,1.2,0.6,1.2,1.2c0,0.7-0.6,1.2-1.2,1.2s-1.2-0.6-1.2-1.2
		C320.9,472.8,321.4,472.2,322.1,472.2z M333.1,472.2c0.7,0,1.2,0.6,1.2,1.2c0,0.7-0.6,1.2-1.2,1.2s-1.2-0.6-1.2-1.2
		C331.8,472.8,332.4,472.2,333.1,472.2z M146.8,472.2c0.7,0,1.2,0.6,1.2,1.2c0,0.7-0.6,1.2-1.2,1.2s-1.2-0.6-1.2-1.2
		C145.6,472.8,146.1,472.2,146.8,472.2z M157.8,472.2c0.7,0,1.2,0.6,1.2,1.2c0,0.7-0.6,1.2-1.2,1.2c-0.7,0-1.2-0.6-1.2-1.2
		C156.5,472.8,157.1,472.2,157.8,472.2z M168.7,472.2c0.7,0,1.2,0.6,1.2,1.2c0,0.7-0.6,1.2-1.2,1.2c-0.7,0-1.2-0.6-1.2-1.2
		C167.5,472.8,168.1,472.2,168.7,472.2z M179.7,472.2c0.7,0,1.2,0.6,1.2,1.2c0,0.7-0.6,1.2-1.2,1.2c-0.7,0-1.2-0.6-1.2-1.2
		C178.5,472.8,179,472.2,179.7,472.2z M190.7,472.2c0.7,0,1.2,0.6,1.2,1.2c0,0.7-0.6,1.2-1.2,1.2c-0.7,0-1.2-0.6-1.2-1.2
		C189.5,472.8,190,472.2,190.7,472.2z M201.7,472.2c0.7,0,1.2,0.6,1.2,1.2c0,0.7-0.6,1.2-1.2,1.2c-0.7,0-1.2-0.6-1.2-1.2
		C200.4,472.8,201,472.2,201.7,472.2z M212.6,472.2c0.7,0,1.2,0.6,1.2,1.2c0,0.7-0.6,1.2-1.2,1.2s-1.2-0.6-1.2-1.2
		C211.4,472.8,211.9,472.2,212.6,472.2z M223.6,472.2c0.7,0,1.2,0.6,1.2,1.2c0,0.7-0.6,1.2-1.2,1.2c-0.7,0-1.2-0.6-1.2-1.2
		C222.4,472.8,222.9,472.2,223.6,472.2z M234.6,472.2c0.7,0,1.2,0.6,1.2,1.2c0,0.7-0.6,1.2-1.2,1.2s-1.2-0.6-1.2-1.2
		C233.3,472.8,233.9,472.2,234.6,472.2z M245.3,461.3c0.7,0,1.2,0.6,1.2,1.2c0,0.7-0.6,1.2-1.2,1.2s-1.2-0.6-1.2-1.2
		C244.1,461.8,244.6,461.3,245.3,461.3z M256.3,461.3c0.7,0,1.2,0.6,1.2,1.2c0,0.7-0.6,1.2-1.2,1.2c-0.7,0-1.2-0.6-1.2-1.2
		C255,461.8,255.6,461.3,256.3,461.3z M267.3,461.3c0.7,0,1.2,0.6,1.2,1.2c0,0.7-0.6,1.2-1.2,1.2c-0.7,0-1.2-0.6-1.2-1.2
		S266.6,461.3,267.3,461.3z M278.2,461.3c0.7,0,1.2,0.6,1.2,1.2c0,0.7-0.6,1.2-1.2,1.2s-1.2-0.6-1.2-1.2
		C277,461.8,277.5,461.3,278.2,461.3z M289.2,461.3c0.7,0,1.2,0.6,1.2,1.2c0,0.7-0.6,1.2-1.2,1.2c-0.7,0-1.2-0.6-1.2-1.2
		S288.5,461.3,289.2,461.3z M300.2,461.3c0.7,0,1.2,0.6,1.2,1.2c0,0.7-0.6,1.2-1.2,1.2c-0.7,0-1.2-0.6-1.2-1.2
		S299.5,461.3,300.2,461.3z M311.1,461.3c0.7,0,1.2,0.6,1.2,1.2c0,0.7-0.6,1.2-1.2,1.2c-0.7,0-1.2-0.6-1.2-1.2
		C309.9,461.8,310.5,461.3,311.1,461.3z M322.1,461.3c0.7,0,1.2,0.6,1.2,1.2c0,0.7-0.6,1.2-1.2,1.2s-1.2-0.6-1.2-1.2
		C320.9,461.8,321.4,461.3,322.1,461.3z M333.1,461.3c0.7,0,1.2,0.6,1.2,1.2c0,0.7-0.6,1.2-1.2,1.2s-1.2-0.6-1.2-1.2
		S332.4,461.3,333.1,461.3z M146.8,461.3c0.7,0,1.2,0.6,1.2,1.2c0,0.7-0.6,1.2-1.2,1.2s-1.2-0.6-1.2-1.2S146.1,461.3,146.8,461.3z
		 M157.8,461.3c0.7,0,1.2,0.6,1.2,1.2c0,0.7-0.6,1.2-1.2,1.2c-0.7,0-1.2-0.6-1.2-1.2S157.1,461.3,157.8,461.3z M168.7,461.3
		c0.7,0,1.2,0.6,1.2,1.2c0,0.7-0.6,1.2-1.2,1.2c-0.7,0-1.2-0.6-1.2-1.2S168.1,461.3,168.7,461.3z M179.7,461.3
		c0.7,0,1.2,0.6,1.2,1.2c0,0.7-0.6,1.2-1.2,1.2c-0.7,0-1.2-0.6-1.2-1.2S179,461.3,179.7,461.3z M190.7,461.3c0.7,0,1.2,0.6,1.2,1.2
		c0,0.7-0.6,1.2-1.2,1.2c-0.7,0-1.2-0.6-1.2-1.2S190,461.3,190.7,461.3z M201.7,461.3c0.7,0,1.2,0.6,1.2,1.2c0,0.7-0.6,1.2-1.2,1.2
		c-0.7,0-1.2-0.6-1.2-1.2C200.4,461.8,201,461.3,201.7,461.3z M212.6,461.3c0.7,0,1.2,0.6,1.2,1.2c0,0.7-0.6,1.2-1.2,1.2
		s-1.2-0.6-1.2-1.2S211.9,461.3,212.6,461.3z M223.6,461.3c0.7,0,1.2,0.6,1.2,1.2c0,0.7-0.6,1.2-1.2,1.2c-0.7,0-1.2-0.6-1.2-1.2
		S222.9,461.3,223.6,461.3z M234.6,461.3c0.7,0,1.2,0.6,1.2,1.2c0,0.7-0.6,1.2-1.2,1.2s-1.2-0.6-1.2-1.2
		C233.3,461.8,233.9,461.3,234.6,461.3z M234.6,450.3c0.7,0,1.2,0.6,1.2,1.2c0,0.7-0.6,1.2-1.2,1.2s-1.2-0.6-1.2-1.2
		C233.3,450.9,233.9,450.3,234.6,450.3z M245.3,450.3c0.7,0,1.2,0.6,1.2,1.2c0,0.7-0.6,1.2-1.2,1.2s-1.2-0.6-1.2-1.2
		C244.1,450.9,244.6,450.3,245.3,450.3z M256.3,450.3c0.7,0,1.2,0.6,1.2,1.2c0,0.7-0.6,1.2-1.2,1.2c-0.7,0-1.2-0.6-1.2-1.2
		S255.6,450.3,256.3,450.3z M267.3,450.3c0.7,0,1.2,0.6,1.2,1.2c0,0.7-0.6,1.2-1.2,1.2c-0.7,0-1.2-0.6-1.2-1.2
		S266.6,450.3,267.3,450.3z M278.2,450.3c0.7,0,1.2,0.6,1.2,1.2c0,0.7-0.6,1.2-1.2,1.2s-1.2-0.6-1.2-1.2
		C277,450.9,277.5,450.3,278.2,450.3z M289.2,450.3c0.7,0,1.2,0.6,1.2,1.2c0,0.7-0.6,1.2-1.2,1.2c-0.7,0-1.2-0.6-1.2-1.2
		S288.5,450.3,289.2,450.3z M300.2,450.3c0.7,0,1.2,0.6,1.2,1.2c0,0.7-0.6,1.2-1.2,1.2c-0.7,0-1.2-0.6-1.2-1.2
		S299.5,450.3,300.2,450.3z M311.1,450.3c0.7,0,1.2,0.6,1.2,1.2c0,0.7-0.6,1.2-1.2,1.2c-0.7,0-1.2-0.6-1.2-1.2
		C309.9,450.9,310.5,450.3,311.1,450.3z M322.1,450.3c0.7,0,1.2,0.6,1.2,1.2c0,0.7-0.6,1.2-1.2,1.2s-1.2-0.6-1.2-1.2
		C320.9,450.9,321.4,450.3,322.1,450.3z M333.1,450.3c0.7,0,1.2,0.6,1.2,1.2c0,0.7-0.6,1.2-1.2,1.2s-1.2-0.6-1.2-1.2
		S332.4,450.3,333.1,450.3z M146.8,450.3c0.7,0,1.2,0.6,1.2,1.2c0,0.7-0.6,1.2-1.2,1.2s-1.2-0.6-1.2-1.2S146.1,450.3,146.8,450.3z
		 M157.8,450.3c0.7,0,1.2,0.6,1.2,1.2c0,0.7-0.6,1.2-1.2,1.2c-0.7,0-1.2-0.6-1.2-1.2S157.1,450.3,157.8,450.3z M168.7,450.3
		c0.7,0,1.2,0.6,1.2,1.2c0,0.7-0.6,1.2-1.2,1.2c-0.7,0-1.2-0.6-1.2-1.2S168.1,450.3,168.7,450.3z M179.7,450.3
		c0.7,0,1.2,0.6,1.2,1.2c0,0.7-0.6,1.2-1.2,1.2c-0.7,0-1.2-0.6-1.2-1.2S179,450.3,179.7,450.3z M190.7,450.3c0.7,0,1.2,0.6,1.2,1.2
		c0,0.7-0.6,1.2-1.2,1.2c-0.7,0-1.2-0.6-1.2-1.2S190,450.3,190.7,450.3z M201.7,450.3c0.7,0,1.2,0.6,1.2,1.2c0,0.7-0.6,1.2-1.2,1.2
		c-0.7,0-1.2-0.6-1.2-1.2C200.4,450.9,201,450.3,201.7,450.3z M212.6,450.3c0.7,0,1.2,0.6,1.2,1.2c0,0.7-0.6,1.2-1.2,1.2
		s-1.2-0.6-1.2-1.2S211.9,450.3,212.6,450.3z M223.6,450.3c0.7,0,1.2,0.6,1.2,1.2c0,0.7-0.6,1.2-1.2,1.2c-0.7,0-1.2-0.6-1.2-1.2
		S222.9,450.3,223.6,450.3z M245.3,439.4c0.7,0,1.2,0.6,1.2,1.2c0,0.7-0.6,1.2-1.2,1.2s-1.2-0.6-1.2-1.2
		C244.1,440,244.6,439.4,245.3,439.4z M256.3,439.4c0.7,0,1.2,0.6,1.2,1.2c0,0.7-0.6,1.2-1.2,1.2c-0.7,0-1.2-0.6-1.2-1.2
		S255.6,439.4,256.3,439.4z M267.3,439.4c0.7,0,1.2,0.6,1.2,1.2c0,0.7-0.6,1.2-1.2,1.2c-0.7,0-1.2-0.6-1.2-1.2
		S266.6,439.4,267.3,439.4z M278.2,439.4c0.7,0,1.2,0.6,1.2,1.2c0,0.7-0.6,1.2-1.2,1.2s-1.2-0.6-1.2-1.2
		C277,440,277.5,439.4,278.2,439.4z M289.2,439.4c0.7,0,1.2,0.6,1.2,1.2c0,0.7-0.6,1.2-1.2,1.2c-0.7,0-1.2-0.6-1.2-1.2
		S288.5,439.4,289.2,439.4z M300.2,439.4c0.7,0,1.2,0.6,1.2,1.2c0,0.7-0.6,1.2-1.2,1.2c-0.7,0-1.2-0.6-1.2-1.2
		S299.5,439.4,300.2,439.4z M311.1,439.4c0.7,0,1.2,0.6,1.2,1.2c0,0.7-0.6,1.2-1.2,1.2c-0.7,0-1.2-0.6-1.2-1.2
		C309.9,440,310.5,439.4,311.1,439.4z M322.1,439.4c0.7,0,1.2,0.6,1.2,1.2c0,0.7-0.6,1.2-1.2,1.2s-1.2-0.6-1.2-1.2
		C320.9,440,321.4,439.4,322.1,439.4z M333.1,439.4c0.7,0,1.2,0.6,1.2,1.2c0,0.7-0.6,1.2-1.2,1.2s-1.2-0.6-1.2-1.2
		S332.4,439.4,333.1,439.4z M146.8,439.4c0.7,0,1.2,0.6,1.2,1.2c0,0.7-0.6,1.2-1.2,1.2s-1.2-0.6-1.2-1.2S146.1,439.4,146.8,439.4z
		 M157.8,439.4c0.7,0,1.2,0.6,1.2,1.2c0,0.7-0.6,1.2-1.2,1.2c-0.7,0-1.2-0.6-1.2-1.2S157.1,439.4,157.8,439.4z M168.7,439.4
		c0.7,0,1.2,0.6,1.2,1.2c0,0.7-0.6,1.2-1.2,1.2c-0.7,0-1.2-0.6-1.2-1.2S168.1,439.4,168.7,439.4z M179.7,439.4
		c0.7,0,1.2,0.6,1.2,1.2c0,0.7-0.6,1.2-1.2,1.2c-0.7,0-1.2-0.6-1.2-1.2S179,439.4,179.7,439.4z M190.7,439.4c0.7,0,1.2,0.6,1.2,1.2
		c0,0.7-0.6,1.2-1.2,1.2c-0.7,0-1.2-0.6-1.2-1.2S190,439.4,190.7,439.4z M201.7,439.4c0.7,0,1.2,0.6,1.2,1.2c0,0.7-0.6,1.2-1.2,1.2
		c-0.7,0-1.2-0.6-1.2-1.2C200.4,440,201,439.4,201.7,439.4z M212.6,439.4c0.7,0,1.2,0.6,1.2,1.2c0,0.7-0.6,1.2-1.2,1.2
		s-1.2-0.6-1.2-1.2S211.9,439.4,212.6,439.4z M223.6,439.4c0.7,0,1.2,0.6,1.2,1.2c0,0.7-0.6,1.2-1.2,1.2c-0.7,0-1.2-0.6-1.2-1.2
		S222.9,439.4,223.6,439.4z M234.6,439.4c0.7,0,1.2,0.6,1.2,1.2c0,0.7-0.6,1.2-1.2,1.2s-1.2-0.6-1.2-1.2
		C233.3,440,233.9,439.4,234.6,439.4z M245.3,428.5c0.7,0,1.2,0.6,1.2,1.2c0,0.7-0.6,1.2-1.2,1.2s-1.2-0.6-1.2-1.2
		C244.1,429,244.6,428.5,245.3,428.5z M256.3,428.5c0.7,0,1.2,0.6,1.2,1.2c0,0.7-0.6,1.2-1.2,1.2c-0.7,0-1.2-0.6-1.2-1.2
		S255.6,428.5,256.3,428.5z M267.3,428.5c0.7,0,1.2,0.6,1.2,1.2c0,0.7-0.6,1.2-1.2,1.2c-0.7,0-1.2-0.6-1.2-1.2
		S266.6,428.5,267.3,428.5z M278.2,428.5c0.7,0,1.2,0.6,1.2,1.2c0,0.7-0.6,1.2-1.2,1.2s-1.2-0.6-1.2-1.2
		C277,429,277.5,428.5,278.2,428.5z M289.2,428.5c0.7,0,1.2,0.6,1.2,1.2c0,0.7-0.6,1.2-1.2,1.2c-0.7,0-1.2-0.6-1.2-1.2
		S288.5,428.5,289.2,428.5z M300.2,428.5c0.7,0,1.2,0.6,1.2,1.2c0,0.7-0.6,1.2-1.2,1.2c-0.7,0-1.2-0.6-1.2-1.2
		S299.5,428.5,300.2,428.5z M311.1,428.5c0.7,0,1.2,0.6,1.2,1.2c0,0.7-0.6,1.2-1.2,1.2c-0.7,0-1.2-0.6-1.2-1.2
		C309.9,429,310.5,428.5,311.1,428.5z M322.1,428.5c0.7,0,1.2,0.6,1.2,1.2c0,0.7-0.6,1.2-1.2,1.2s-1.2-0.6-1.2-1.2
		C320.9,429,321.4,428.5,322.1,428.5z M333.1,428.5c0.7,0,1.2,0.6,1.2,1.2c0,0.7-0.6,1.2-1.2,1.2s-1.2-0.6-1.2-1.2
		S332.4,428.5,333.1,428.5z M146.8,428.5c0.7,0,1.2,0.6,1.2,1.2c0,0.7-0.6,1.2-1.2,1.2s-1.2-0.6-1.2-1.2S146.1,428.5,146.8,428.5z
		 M157.8,428.5c0.7,0,1.2,0.6,1.2,1.2c0,0.7-0.6,1.2-1.2,1.2c-0.7,0-1.2-0.6-1.2-1.2S157.1,428.5,157.8,428.5z M168.7,428.5
		c0.7,0,1.2,0.6,1.2,1.2c0,0.7-0.6,1.2-1.2,1.2c-0.7,0-1.2-0.6-1.2-1.2S168.1,428.5,168.7,428.5z M179.7,428.5
		c0.7,0,1.2,0.6,1.2,1.2c0,0.7-0.6,1.2-1.2,1.2c-0.7,0-1.2-0.6-1.2-1.2S179,428.5,179.7,428.5z M190.7,428.5c0.7,0,1.2,0.6,1.2,1.2
		c0,0.7-0.6,1.2-1.2,1.2c-0.7,0-1.2-0.6-1.2-1.2S190,428.5,190.7,428.5z M201.7,428.5c0.7,0,1.2,0.6,1.2,1.2c0,0.7-0.6,1.2-1.2,1.2
		c-0.7,0-1.2-0.6-1.2-1.2C200.4,429,201,428.5,201.7,428.5z M212.6,428.5c0.7,0,1.2,0.6,1.2,1.2c0,0.7-0.6,1.2-1.2,1.2
		s-1.2-0.6-1.2-1.2S211.9,428.5,212.6,428.5z M223.6,428.5c0.7,0,1.2,0.6,1.2,1.2c0,0.7-0.6,1.2-1.2,1.2c-0.7,0-1.2-0.6-1.2-1.2
		S222.9,428.5,223.6,428.5z M234.6,428.5c0.7,0,1.2,0.6,1.2,1.2c0,0.7-0.6,1.2-1.2,1.2s-1.2-0.6-1.2-1.2
		C233.3,429,233.9,428.5,234.6,428.5z"/>
</g>
<g id="Calque_4">
</g>
</svg>
