<?xml version="1.0" encoding="utf-8"?>
<!-- Generator: Adobe Illustrator 24.1.1, SVG Export Plug-In . SVG Version: 6.00 Build 0)  -->
<svg version="1.1" id="Calque_1" xmlns="http://www.w3.org/2000/svg" xmlns:xlink="http://www.w3.org/1999/xlink" x="0px" y="0px"
	 viewBox="0 0 800 800" style="enable-background:new 0 0 800 800;" xml:space="preserve">
<style type="text/css">
	.st0{fill-rule:evenodd;clip-rule:evenodd;fill:#FDEB18;}
	.st1{fill-rule:evenodd;clip-rule:evenodd;fill:#FFFFFF;fill-opacity:0.502;}
	.st2{fill-rule:evenodd;clip-rule:evenodd;fill:#313131;}
	.st3{fill-rule:evenodd;clip-rule:evenodd;fill:#7DC4E9;}
	.st4{fill-rule:evenodd;clip-rule:evenodd;fill:#64BCE9;}
	.st5{fill-rule:evenodd;clip-rule:evenodd;fill:#020203;}
	.st6{fill-rule:evenodd;clip-rule:evenodd;fill:#EC676A;}
	.st7{fill-rule:evenodd;clip-rule:evenodd;fill:#4E83C4;}
	.st8{fill-rule:evenodd;clip-rule:evenodd;fill:#407FC1;}
	.st9{fill-rule:evenodd;clip-rule:evenodd;fill:#5F99D2;}
	.st10{fill-rule:evenodd;clip-rule:evenodd;fill:#FFFFFF;}
	.st11{fill-rule:evenodd;clip-rule:evenodd;fill:#E94748;}
	.st12{fill-rule:evenodd;clip-rule:evenodd;fill:#E63A3A;}
	.st13{fill-rule:evenodd;clip-rule:evenodd;fill:#EC6565;}
</style>
<path class="st0" d="M611.4,660.2c-11.6,3.1-23.5-3.8-26.6-15.4c-3.1-11.6,3.8-23.5,15.4-26.6c11.6-3.1,23.5,3.8,26.6,15.4
	C630,645.3,623,657.1,611.4,660.2z"/>
<path class="st1" d="M613.3,621.8c9.6,5.6,12.9,17.9,7.3,27.6c-3.3,5.6-8.9,9.1-14.8,9.9c7,0,13.8-3.6,17.5-10
	c5.6-9.6,2.3-22-7.3-27.6c-4-2.3-8.5-3.1-12.7-2.6C606.7,619.1,610.2,620,613.3,621.8z"/>
<path class="st2" d="M611.5,628.9c0.1-0.2,0.4-0.4,0.7-0.5c0.5-0.1,1,0.3,1,0.8l0.5,3.9l3.3-1.8c0.4-0.2,1-0.1,1.2,0.3
	c0.2,0.4,0.1,1-0.3,1.2l-4.5,2.5c-0.3,0.1-0.6,0.2-0.9,0c-0.3-0.1-0.5-0.4-0.5-0.7l-0.7-5.3C611.3,629.3,611.4,629.1,611.5,628.9z"
	/>
<path class="st2" d="M599.7,649.2c0.1-0.2,0.3-0.3,0.5-0.4l4.9-2c0.3-0.1,0.6-0.1,0.9,0.1c0.2,0.2,0.4,0.4,0.4,0.8l0,5.1
	c0,0.5-0.4,0.9-0.9,0.9c-0.5,0-0.9-0.4-0.9-0.9l0-3.8l-3.7,1.5c-0.5,0.2-1,0-1.2-0.5C599.5,649.7,599.5,649.4,599.7,649.2z"/>
<path class="st3" d="M599.5,651.4c-7.5-6.2-11.8-5.4-11.8-5.4c-3.2,0.1-5.6,2.7-5.6,5.9c0.1,3.2,2.7,5.6,5.9,5.6
	C588.1,657.4,592.3,658,599.5,651.4z"/>
<path class="st4" d="M584,647.6c-1.1,1.1-1.8,2.6-1.8,4.3c0.1,3.2,2.7,5.6,5.9,5.6c0,0,1.8,0.2,5-1.4
	C585.6,655.1,584.2,650.5,584,647.6z"/>
<path class="st3" d="M613.6,627.5c2-9.6-0.7-12.9-0.7-12.9c-1.6-2.8-5-3.7-7.8-2.2c-2.8,1.6-3.7,5-2.2,7.8
	C602.9,620.2,604.3,624.3,613.6,627.5z"/>
<path class="st4" d="M609.7,612c-1.5-0.5-3.2-0.4-4.6,0.4c-2.8,1.6-3.7,5-2.2,7.8c0,0,0.6,1.7,3.6,3.8
	C603.8,617,607.2,613.5,609.7,612z"/>
<path class="st5" d="M609.6,627c-5.8-2.5-12.6-0.4-15.9,5.2c-3.2,5.6-1.7,12.6,3.4,16.4L609.6,627z"/>
<path class="st6" d="M601,626.4c-3,0.9-5.6,2.8-7.3,5.7c-1.6,2.8-2,5.9-1.4,8.8l0.3,0C600.3,635.8,601,626.6,601,626.4z"/>
<path class="st7" d="M53.4,199.9c4.3-4.5,11.5-4.7,16.1-0.4c4.5,4.3,4.7,11.5,0.4,16.1c-4.3,4.5-11.5,4.7-16.1,0.4
	C49.2,211.6,49.1,204.4,53.4,199.9z"/>
<path class="st8" d="M57,197.3c2.1,0.1,4.2,0.7,6.1,2c5.2,3.6,6.5,10.6,2.9,15.8c-1.2,1.8-2.9,3.1-4.8,3.9c3.7,0.1,7.5-1.6,9.8-4.9
	c3.6-5.2,2.2-12.3-2.9-15.8C64.7,196,60.5,195.8,57,197.3z"/>
<path class="st9" d="M57,216.5c-4.8-3.3-6-9.9-2.7-14.7c1.9-2.8,5-4.4,8.1-4.6c-3.6-0.3-7.3,1.3-9.6,4.5c-3.3,4.8-2.1,11.4,2.7,14.7
	c2,1.4,4.3,2,6.5,1.8C60.4,218.2,58.6,217.6,57,216.5z"/>
<path class="st10" d="M63.1,200.8l-1,1.5l-0.4,0.6l-0.8,1.2c-0.1,0.1-0.2,0.1-0.2,0c-0.4-0.5-0.9-0.8-1.4-1.1
	c-0.3-0.2-0.6-0.4-0.9-0.6c-0.3-0.2-0.7-0.3-1-0.3c-0.4,0-0.8,0.2-1,0.5c-0.5,0.7,0.1,1.4,0.7,1.8c0.6,0.6,1.3,1.1,1.7,1.8
	c0.3,0.5,0.5,1.1,0.3,1.7c-0.1,0.5-0.2,0.8-0.4,1.2c0,0.1,0,0.1,0.1,0.2l4.8,3.3c0.1,0,0.2,0,0.2,0l0.9-1.3c0,0,0.1-0.1,0.1-0.1
	c0.5,0,1.1-0.3,1.4-0.8l1.4-2.1l1-1.5l0.4-0.6c0.4-0.6,0.3-1.4-0.4-1.9l0,0c-0.2-0.1-0.3-0.2-0.5-0.2c-0.1,0-0.1-0.1-0.1-0.1
	c0-0.4-0.3-0.8-0.6-1l-0.1-0.1c-0.2-0.1-0.3-0.2-0.5-0.2c-0.1,0-0.1-0.1-0.1-0.1c0-0.4-0.2-0.7-0.5-0.9l-0.1-0.1
	c-0.2-0.1-0.3-0.2-0.5-0.2c-0.1,0-0.1-0.1-0.1-0.1c0-0.4-0.2-0.7-0.5-0.9l0,0C64.4,200.1,63.6,200.2,63.1,200.8z"/>
<path class="st10" d="M63.6,214.1l-1.4,2c-0.1,0.2-0.3,0.2-0.5,0.1l-5.5-3.8c-0.2-0.1-0.2-0.3-0.1-0.5l1.4-2
	c0.1-0.2,0.3-0.2,0.5-0.1l5.5,3.8C63.7,213.7,63.8,213.9,63.6,214.1z"/>
<path class="st11" d="M267.4,23.4c0.8-5.4,5.9-9.1,11.3-8.3c5.4,0.8,9.1,5.9,8.3,11.3c-0.8,5.4-5.9,9.1-11.3,8.3
	C270.3,33.9,266.6,28.9,267.4,23.4z"/>
<path class="st12" d="M267.3,25.8c0.7-1.7,1.8-3.3,3.4-4.4c4.4-3.2,10.7-2.3,13.9,2.1c1.1,1.5,1.8,3.3,1.9,5.1
	c1.2-3.1,0.8-6.6-1.3-9.5c-3.2-4.4-9.5-5.4-13.9-2.1C268.5,19,267.1,22.4,267.3,25.8z"/>
<path class="st13" d="M283.2,31.3c-4.1,3-9.9,2.1-12.9-2c-1.8-2.4-2.2-5.4-1.4-8c-1.3,2.9-1,6.4,1,9.2c3,4.1,8.8,5,12.9,2
	c1.7-1.3,2.9-3,3.4-4.9C285.5,29,284.5,30.3,283.2,31.3z"/>
<path class="st10" d="M272.9,20.9C272.8,20.9,272.8,20.9,272.9,20.9c-1.4,1.1-2,3-0.9,4.5c0.9,1.2,2.3,1.3,3.3,0.9l0,0
	c-0.6,0.8-1,2.2-0.1,3.4c1.1,1.5,3.2,1.6,4.6,0.6c0,0,0,0,0,0c0.3-0.2,3.4-2.5,2.5-9.1l0,0l0,0l0,0l0,0l0,0l0,0
	C276.3,18.4,273.2,20.7,272.9,20.9z"/>
<path class="st11" d="M730.5,773.7c0.8-5.4,5.9-9.1,11.3-8.3c5.4,0.8,9.2,5.9,8.3,11.3c-0.8,5.4-5.9,9.1-11.3,8.3
	C733.4,784.2,729.6,779.1,730.5,773.7z"/>
<path class="st12" d="M730.4,776c0.7-1.7,1.8-3.3,3.4-4.4c4.4-3.2,10.7-2.3,13.9,2.1c1.1,1.5,1.8,3.3,1.9,5.1
	c1.2-3.1,0.8-6.6-1.2-9.5c-3.2-4.4-9.5-5.4-13.9-2.1C731.5,769.3,730.1,772.7,730.4,776z"/>
<path class="st13" d="M746.3,781.5c-4.1,3-9.9,2.1-12.9-2c-1.8-2.4-2.2-5.4-1.4-8c-1.3,2.9-1,6.4,1,9.2c3,4.1,8.8,5,12.9,2
	c1.7-1.3,2.9-3,3.4-4.9C748.6,779.2,747.6,780.5,746.3,781.5z"/>
<path class="st10" d="M735.9,771.2C735.9,771.2,735.9,771.2,735.9,771.2c-1.4,1-2,3-0.8,4.6c0.9,1.2,2.3,1.3,3.3,0.9l0,0
	c-0.6,0.8-1,2.2-0.1,3.4c1.1,1.5,3.2,1.6,4.6,0.6c0,0,0,0,0,0c0.3-0.2,3.4-2.5,2.5-9.1l0,0l0,0l0,0l0,0l0,0l0,0
	C739.4,768.7,736.2,770.9,735.9,771.2z"/>
</svg>
