<?xml version="1.0" encoding="utf-8"?>
<!-- Generator: Adobe Illustrator 24.1.1, SVG Export Plug-In . SVG Version: 6.00 Build 0)  -->
<svg version="1.1" id="Calque_1" xmlns="http://www.w3.org/2000/svg" xmlns:xlink="http://www.w3.org/1999/xlink" x="0px" y="0px"
	 viewBox="0 0 1500 1500" style="enable-background:new 0 0 1500 1500;" xml:space="preserve">
<style type="text/css">
	.st0{fill-rule:evenodd;clip-rule:evenodd;fill:#FDEB18;}
	.st1{fill-rule:evenodd;clip-rule:evenodd;fill:#FFFFFF;fill-opacity:0.502;}
	.st2{fill-rule:evenodd;clip-rule:evenodd;fill:#313131;}
	.st3{fill-rule:evenodd;clip-rule:evenodd;fill:#7DC4E9;}
	.st4{fill-rule:evenodd;clip-rule:evenodd;fill:#64BCE9;}
	.st5{fill-rule:evenodd;clip-rule:evenodd;fill:#020203;}
	.st6{fill-rule:evenodd;clip-rule:evenodd;fill:#EC676A;}
	.st7{fill-rule:evenodd;clip-rule:evenodd;fill:#4E83C4;}
	.st8{fill-rule:evenodd;clip-rule:evenodd;fill:#407FC1;}
	.st9{fill-rule:evenodd;clip-rule:evenodd;fill:#5F99D2;}
	.st10{fill-rule:evenodd;clip-rule:evenodd;fill:#FFFFFF;}
	.st11{fill-rule:evenodd;clip-rule:evenodd;fill:#E94748;}
	.st12{fill-rule:evenodd;clip-rule:evenodd;fill:#E63A3A;}
	.st13{fill-rule:evenodd;clip-rule:evenodd;fill:#EC6565;}
</style>
<path class="st0" d="M1051.93,1121.71c-16.57,4.39-33.56-5.49-37.94-22.07c-4.4-16.58,5.49-33.57,22.05-37.96
	c16.59-4.39,33.58,5.49,37.96,22.07C1078.39,1100.33,1068.52,1117.32,1051.93,1121.71z"/>
<path class="st1" d="M1054.65,1066.84c13.76,8,18.42,25.64,10.42,39.4c-4.66,8.03-12.66,13-21.21,14.1
	c9.98,0.02,19.71-5.11,25.06-14.34c8-13.77,3.34-31.4-10.42-39.41c-5.74-3.33-12.11-4.47-18.2-3.66
	C1045.16,1062.93,1050.1,1064.21,1054.65,1066.84z"/>
<path class="st2" d="M1051.97,1076.96c0.2-0.35,0.53-0.57,0.97-0.66c0.72-0.08,1.36,0.41,1.49,1.12l0.77,5.63l4.7-2.63
	c0.62-0.35,1.43-0.14,1.78,0.49c0.35,0.63,0.15,1.43-0.5,1.78l-6.37,3.58c-0.39,0.21-0.86,0.22-1.25,0.03
	c-0.4-0.19-0.66-0.55-0.72-1.01l-1.03-7.54C1051.75,1077.47,1051.82,1077.22,1051.97,1076.96z"/>
<path class="st2" d="M1035.13,1105.91c0.15-0.25,0.37-0.47,0.66-0.54l7.06-2.86c0.39-0.15,0.86-0.12,1.23,0.13
	c0.35,0.25,0.59,0.64,0.59,1.1l0.04,7.32c0,0.72-0.59,1.3-1.3,1.31c-0.72,0-1.3-0.59-1.3-1.31l-0.04-5.38l-5.28,2.12
	c-0.68,0.28-1.45-0.04-1.71-0.74C1034.89,1106.7,1034.92,1106.26,1035.13,1105.91z"/>
<path class="st3" d="M1034.89,1109.1c-10.75-8.91-16.79-7.74-16.79-7.74c-4.5,0.12-8.07,3.87-7.96,8.4c0.13,4.5,3.87,8.07,8.4,7.96
	C1018.56,1117.74,1024.59,1118.59,1034.89,1109.1z"/>
<path class="st4" d="M1012.7,1103.62c-1.63,1.55-2.61,3.76-2.57,6.14c0.13,4.5,3.87,8.07,8.4,7.96c0,0,2.53,0.34,7.12-1.97
	C1015.05,1114.43,1012.96,1107.81,1012.7,1103.62z"/>
<path class="st3" d="M1054.96,1075c2.83-13.7-1.05-18.44-1.05-18.44c-2.22-3.94-7.19-5.32-11.14-3.1c-3.94,2.22-5.32,7.19-3.1,11.14
	C1039.68,1064.6,1041.77,1070.36,1054.96,1075z"/>
<path class="st4" d="M1049.44,1052.82c-2.11-0.72-4.51-0.56-6.61,0.63c-3.94,2.22-5.32,7.19-3.1,11.14c0,0,0.88,2.41,5.08,5.4
	C1040.98,1059.96,1045.82,1054.97,1049.44,1052.82z"/>
<path class="st5" d="M1049.38,1074.24c-8.24-3.6-18.05-0.55-22.68,7.39c-4.64,7.97-2.42,18.02,4.79,23.36L1049.38,1074.24z"/>
<path class="st6" d="M1037.09,1073.46c-4.22,1.25-8,4.07-10.39,8.16c-2.29,3.94-2.9,8.39-2.07,12.54l0.44,0.04
	C1036.08,1086.82,1037.07,1073.66,1037.09,1073.46z"/>
<path class="st7" d="M254.78,464.09c6.2-6.48,16.48-6.7,22.96-0.5c6.48,6.2,6.7,16.48,0.5,22.96c-6.2,6.48-16.48,6.7-22.96,0.5
	C248.8,480.85,248.57,470.57,254.78,464.09z"/>
<path class="st8" d="M259.9,460.46c3.01,0.1,6,1.03,8.65,2.86c7.4,5.09,9.25,15.21,4.17,22.58c-1.76,2.56-4.14,4.47-6.8,5.64
	c5.34,0.18,10.68-2.3,13.93-7.03c5.09-7.4,3.21-17.51-4.17-22.58C270.88,458.6,264.89,458.25,259.9,460.46z"/>
<path class="st9" d="M259.96,487.85c-6.86-4.72-8.59-14.11-3.87-20.97c2.76-4.01,7.12-6.28,11.63-6.51
	c-5.19-0.43-10.47,1.86-13.65,6.48c-4.72,6.86-2.99,16.25,3.87,20.97c2.86,1.97,6.14,2.81,9.34,2.63
	C264.75,490.27,262.22,489.4,259.96,487.85z"/>
<path class="st10" d="M268.66,465.42l-1.47,2.14l-0.59,0.86l-1.14,1.65c-0.09,0.12-0.25,0.13-0.34,0.02
	c-0.55-0.65-1.26-1.17-1.95-1.64c-0.38-0.26-0.81-0.58-1.25-0.81c-0.46-0.25-0.93-0.43-1.42-0.4c-0.56,0.03-1.1,0.26-1.42,0.71
	c-0.73,1.07,0.19,1.94,0.97,2.63c0.91,0.79,1.89,1.53,2.49,2.6c0.42,0.73,0.67,1.55,0.47,2.41c-0.15,0.66-0.26,1.14-0.52,1.77
	c-0.04,0.09,0,0.21,0.08,0.26l6.88,4.73c0.09,0.07,0.24,0.05,0.32-0.06l1.31-1.9c0.04-0.06,0.11-0.09,0.18-0.09
	c0.76-0.03,1.5-0.4,1.97-1.08l2.03-2.95l1.48-2.15l0.58-0.85c0.59-0.86,0.39-2.07-0.5-2.68l0,0c-0.22-0.15-0.47-0.26-0.74-0.28
	c-0.1-0.02-0.18-0.1-0.19-0.2c-0.02-0.5-0.48-1.12-0.92-1.42l-0.19-0.13c-0.22-0.15-0.47-0.26-0.74-0.28
	c-0.1-0.02-0.18-0.1-0.19-0.2c-0.02-0.5-0.28-0.98-0.73-1.29l-0.19-0.13c-0.22-0.15-0.47-0.26-0.74-0.28
	c-0.1-0.02-0.18-0.1-0.19-0.2c-0.02-0.5-0.28-0.98-0.73-1.29l0,0C270.45,464.34,269.25,464.56,268.66,465.42z"/>
<path class="st10" d="M269.37,484.36l-1.93,2.81c-0.16,0.23-0.48,0.29-0.72,0.13l-7.85-5.4c-0.23-0.16-0.29-0.48-0.13-0.72
	l1.94-2.81c0.16-0.23,0.48-0.29,0.72-0.13l7.85,5.4C269.48,483.8,269.54,484.12,269.37,484.36z"/>
<path class="st11" d="M560.48,212.01c1.2-7.76,8.45-13.07,16.21-11.88c7.76,1.2,13.07,8.46,11.88,16.21
	c-1.2,7.76-8.45,13.07-16.21,11.88C564.6,227.02,559.28,219.76,560.48,212.01z"/>
<path class="st12" d="M560.35,215.33c0.95-2.45,2.58-4.66,4.85-6.33c6.34-4.64,15.23-3.26,19.86,3.07c1.61,2.19,2.5,4.7,2.7,7.24
	c1.69-4.36,1.18-9.48-1.79-13.53c-4.64-6.34-13.54-7.7-19.86-3.07C561.98,205.74,559.97,210.58,560.35,215.33z"/>
<path class="st13" d="M583,223.2c-5.88,4.31-14.13,3.03-18.44-2.85c-2.51-3.43-3.13-7.69-2.02-11.48c-1.84,4.18-1.47,9.2,1.42,13.14
	c4.31,5.88,12.56,7.15,18.44,2.85c2.45-1.79,4.09-4.26,4.87-6.96C586.38,219.93,584.93,221.78,583,223.2z"/>
<path class="st10" d="M568.25,208.4c-0.01,0.01-0.03,0.02-0.03,0.02c-2.02,1.48-2.8,4.28-1.19,6.47c1.28,1.75,3.27,1.84,4.69,1.32
	l0,0c-0.91,1.21-1.43,3.13-0.15,4.87c1.61,2.19,4.51,2.3,6.53,0.82c0.01-0.01,0.03-0.02,0.03-0.02c0.45-0.31,4.9-3.59,3.61-13l0,0
	l0,0l0,0l0,0l0,0l0,0C573.16,204.8,568.69,208.06,568.25,208.4z"/>
<path class="st11" d="M1222.02,1283.81c1.19-7.76,8.44-13.07,16.2-11.88c7.76,1.2,13.08,8.45,11.87,16.21
	c-1.19,7.76-8.46,13.07-16.2,11.88C1226.13,1298.82,1220.81,1291.57,1222.02,1283.81z"/>
<path class="st12" d="M1221.88,1287.13c0.95-2.45,2.59-4.66,4.86-6.33c6.33-4.64,15.23-3.26,19.85,3.07c1.61,2.19,2.5,4.7,2.7,7.24
	c1.69-4.36,1.19-9.48-1.78-13.53c-4.64-6.34-13.54-7.7-19.87-3.06C1223.51,1277.54,1221.51,1282.39,1221.88,1287.13z"/>
<path class="st13" d="M1244.54,1295c-5.89,4.31-14.13,3.03-18.44-2.85c-2.51-3.43-3.14-7.69-2.02-11.48
	c-1.85,4.18-1.47,9.2,1.41,13.14c4.31,5.88,12.55,7.15,18.44,2.85c2.44-1.79,4.09-4.26,4.86-6.96
	C1247.91,1291.74,1246.46,1293.58,1244.54,1295z"/>
<path class="st10" d="M1229.78,1280.21c-0.02,0.01-0.02,0.02-0.02,0.02c-2.02,1.48-2.81,4.28-1.19,6.48
	c1.28,1.75,3.27,1.84,4.68,1.32l0,0c-0.92,1.21-1.41,3.13-0.15,4.87c1.6,2.19,4.51,2.3,6.53,0.82c0.02-0.01,0.02-0.02,0.02-0.02
	c0.46-0.31,4.9-3.59,3.61-13l0,0l0,0l0,0l0,0l0,0l0,0C1234.7,1276.61,1230.22,1279.87,1229.78,1280.21z"/>
</svg>
