<?xml version="1.0" encoding="utf-8"?>
<!-- Generator: Adobe Illustrator 24.1.1, SVG Export Plug-In . SVG Version: 6.00 Build 0)  -->
<svg version="1.1" id="Calque_1" xmlns="http://www.w3.org/2000/svg" xmlns:xlink="http://www.w3.org/1999/xlink" x="0px" y="0px"
	 viewBox="0 0 800 800" style="enable-background:new 0 0 800 800;" xml:space="preserve">
<style type="text/css">
	.st0{display:none;}
	.st1{display:inline;fill-rule:evenodd;clip-rule:evenodd;fill:#FDEB18;}
	.st2{display:inline;fill-rule:evenodd;clip-rule:evenodd;fill:#FFFFFF;fill-opacity:0.502;}
	.st3{display:inline;fill-rule:evenodd;clip-rule:evenodd;fill:#313131;}
	.st4{display:inline;fill-rule:evenodd;clip-rule:evenodd;fill:#7DC4E9;}
	.st5{display:inline;fill-rule:evenodd;clip-rule:evenodd;fill:#64BCE9;}
	.st6{display:inline;fill-rule:evenodd;clip-rule:evenodd;fill:#020203;}
	.st7{display:inline;fill-rule:evenodd;clip-rule:evenodd;fill:#EC676A;}
	.st8{display:inline;fill-rule:evenodd;clip-rule:evenodd;fill:#4E83C4;}
	.st9{display:inline;fill-rule:evenodd;clip-rule:evenodd;fill:#407FC1;}
	.st10{display:inline;fill-rule:evenodd;clip-rule:evenodd;fill:#5F99D2;}
	.st11{display:inline;fill-rule:evenodd;clip-rule:evenodd;fill:#FFFFFF;}
	.st12{display:inline;fill-rule:evenodd;clip-rule:evenodd;fill:#E94748;}
	.st13{display:inline;fill-rule:evenodd;clip-rule:evenodd;fill:#E63A3A;}
	.st14{display:inline;fill-rule:evenodd;clip-rule:evenodd;fill:#EC6565;}
	.st15{display:inline;fill-rule:evenodd;clip-rule:evenodd;fill:#E62C2A;}
	.st16{display:inline;fill-rule:evenodd;clip-rule:evenodd;fill:#414142;}
	.st17{display:inline;fill-rule:evenodd;clip-rule:evenodd;fill:#F1F2F2;}
	.st18{fill-rule:evenodd;clip-rule:evenodd;fill:#020203;}
</style>
<g id="Calque_1_1_" class="st0">
	<path class="st1" d="M611.4,660.2c-11.6,3.1-23.5-3.8-26.6-15.4c-3.1-11.6,3.8-23.5,15.4-26.6c11.6-3.1,23.5,3.8,26.6,15.4
		C629.9,645.2,623,657.1,611.4,660.2z"/>
	<path class="st2" d="M613.3,621.8c9.6,5.6,12.9,17.9,7.3,27.6c-3.3,5.6-8.9,9.1-14.8,9.9c7,0,13.8-3.6,17.5-10
		c5.6-9.6,2.3-22-7.3-27.6c-4-2.3-8.5-3.1-12.7-2.6C606.6,619,610.1,619.9,613.3,621.8z"/>
	<path class="st3" d="M611.4,628.9c0.1-0.2,0.4-0.4,0.7-0.5c0.5-0.1,1,0.3,1,0.8l0.5,3.9l3.3-1.8c0.4-0.2,1-0.1,1.2,0.3
		c0.2,0.4,0.1,1-0.3,1.2l-4.5,2.5c-0.3,0.1-0.6,0.2-0.9,0c-0.3-0.1-0.5-0.4-0.5-0.7l-0.7-5.3C611.2,629.2,611.3,629,611.4,628.9z"/>
	<path class="st3" d="M599.6,649.1c0.1-0.2,0.3-0.3,0.5-0.4l4.9-2c0.3-0.1,0.6-0.1,0.9,0.1c0.2,0.2,0.4,0.4,0.4,0.8l0,5.1
		c0,0.5-0.4,0.9-0.9,0.9c-0.5,0-0.9-0.4-0.9-0.9l0-3.8l-3.7,1.5c-0.5,0.2-1,0-1.2-0.5C599.4,649.7,599.5,649.4,599.6,649.1z"/>
	<path class="st4" d="M599.4,651.4c-7.5-6.2-11.8-5.4-11.8-5.4c-3.1,0.1-5.6,2.7-5.6,5.9c0.1,3.1,2.7,5.6,5.9,5.6
		C588,657.4,592.2,658,599.4,651.4z"/>
	<path class="st5" d="M583.9,647.5c-1.1,1.1-1.8,2.6-1.8,4.3c0.1,3.1,2.7,5.6,5.9,5.6c0,0,1.8,0.2,5-1.4
		C585.6,655.1,584.1,650.4,583.9,647.5z"/>
	<path class="st4" d="M613.5,627.5c2-9.6-0.7-12.9-0.7-12.9c-1.6-2.8-5-3.7-7.8-2.2c-2.8,1.6-3.7,5-2.2,7.8
		C602.8,620.2,604.3,624.2,613.5,627.5z"/>
	<path class="st5" d="M609.6,612c-1.5-0.5-3.2-0.4-4.6,0.4c-2.8,1.6-3.7,5-2.2,7.8c0,0,0.6,1.7,3.6,3.8
		C603.7,617,607.1,613.5,609.6,612z"/>
	<path class="st6" d="M609.6,627c-5.8-2.5-12.6-0.4-15.9,5.2c-3.2,5.6-1.7,12.6,3.4,16.3L609.6,627z"/>
	<path class="st7" d="M601,626.4c-3,0.9-5.6,2.8-7.3,5.7c-1.6,2.8-2,5.9-1.4,8.8l0.3,0C600.3,635.8,601,626.5,601,626.4z"/>
	<path class="st8" d="M53.5,199.9c4.3-4.5,11.5-4.7,16.1-0.3c4.5,4.3,4.7,11.5,0.3,16.1c-4.3,4.5-11.5,4.7-16.1,0.3
		C49.3,211.6,49.1,204.5,53.5,199.9z"/>
	<path class="st9" d="M57,197.4c2.1,0.1,4.2,0.7,6.1,2c5.2,3.6,6.5,10.6,2.9,15.8c-1.2,1.8-2.9,3.1-4.8,3.9c3.7,0.1,7.5-1.6,9.7-4.9
		c3.6-5.2,2.2-12.3-2.9-15.8C64.7,196.1,60.5,195.8,57,197.4z"/>
	<path class="st10" d="M57.1,216.5c-4.8-3.3-6-9.9-2.7-14.7c1.9-2.8,5-4.4,8.1-4.6c-3.6-0.3-7.3,1.3-9.6,4.5
		c-3.3,4.8-2.1,11.4,2.7,14.7c2,1.4,4.3,2,6.5,1.8C60.4,218.2,58.7,217.6,57.1,216.5z"/>
	<path class="st11" d="M63.2,200.8l-1,1.5l-0.4,0.6l-0.8,1.2c-0.1,0.1-0.2,0.1-0.2,0c-0.4-0.5-0.9-0.8-1.4-1.1
		c-0.3-0.2-0.6-0.4-0.9-0.6c-0.3-0.2-0.7-0.3-1-0.3c-0.4,0-0.8,0.2-1,0.5c-0.5,0.7,0.1,1.4,0.7,1.8c0.6,0.6,1.3,1.1,1.7,1.8
		c0.3,0.5,0.5,1.1,0.3,1.7c-0.1,0.5-0.2,0.8-0.4,1.2c0,0.1,0,0.1,0.1,0.2l4.8,3.3c0.1,0,0.2,0,0.2,0l0.9-1.3c0,0,0.1-0.1,0.1-0.1
		c0.5,0,1-0.3,1.4-0.8l1.4-2.1l1-1.5l0.4-0.6c0.4-0.6,0.3-1.4-0.3-1.9l0,0c-0.2-0.1-0.3-0.2-0.5-0.2c-0.1,0-0.1-0.1-0.1-0.1
		c0-0.3-0.3-0.8-0.6-1l-0.1-0.1c-0.2-0.1-0.3-0.2-0.5-0.2c-0.1,0-0.1-0.1-0.1-0.1c0-0.3-0.2-0.7-0.5-0.9l-0.1-0.1
		c-0.2-0.1-0.3-0.2-0.5-0.2c-0.1,0-0.1-0.1-0.1-0.1c0-0.3-0.2-0.7-0.5-0.9l0,0C64.4,200.1,63.6,200.2,63.2,200.8z"/>
	<path class="st11" d="M63.7,214.1l-1.4,2c-0.1,0.2-0.3,0.2-0.5,0.1l-5.5-3.8c-0.2-0.1-0.2-0.3-0.1-0.5l1.4-2
		c0.1-0.2,0.3-0.2,0.5-0.1l5.5,3.8C63.7,213.7,63.8,213.9,63.7,214.1z"/>
	<path class="st12" d="M267.4,23.5c0.8-5.4,5.9-9.1,11.3-8.3c5.4,0.8,9.1,5.9,8.3,11.3c-0.8,5.4-5.9,9.1-11.3,8.3
		C270.3,34,266.6,28.9,267.4,23.5z"/>
	<path class="st13" d="M267.3,25.8c0.7-1.7,1.8-3.3,3.4-4.4c4.4-3.2,10.7-2.3,13.9,2.1c1.1,1.5,1.7,3.3,1.9,5.1
		c1.2-3.1,0.8-6.6-1.3-9.5c-3.2-4.4-9.5-5.4-13.9-2.1C268.5,19.1,267.1,22.5,267.3,25.8z"/>
	<path class="st14" d="M283.2,31.3c-4.1,3-9.9,2.1-12.9-2c-1.8-2.4-2.2-5.4-1.4-8c-1.3,2.9-1,6.4,1,9.2c3,4.1,8.8,5,12.9,2
		c1.7-1.3,2.9-3,3.4-4.9C285.5,29,284.5,30.3,283.2,31.3z"/>
	<path class="st11" d="M272.8,21C272.8,21,272.8,21,272.8,21c-1.4,1-2,3-0.9,4.5c0.9,1.2,2.3,1.3,3.3,0.9l0,0
		c-0.6,0.8-1,2.2-0.1,3.4c1.1,1.5,3.2,1.6,4.6,0.6c0,0,0,0,0,0c0.3-0.2,3.4-2.5,2.5-9.1l0,0l0,0l0,0l0,0l0,0l0,0
		C276.3,18.4,273.2,20.7,272.8,21z"/>
	<path class="st12" d="M730.4,773.6c0.8-5.4,5.9-9.1,11.3-8.3c5.4,0.8,9.2,5.9,8.3,11.3c-0.8,5.4-5.9,9.1-11.3,8.3
		C733.3,784.1,729.6,779.1,730.4,773.6z"/>
	<path class="st13" d="M730.3,776c0.7-1.7,1.8-3.3,3.4-4.4c4.4-3.2,10.7-2.3,13.9,2.1c1.1,1.5,1.7,3.3,1.9,5.1
		c1.2-3.1,0.8-6.6-1.2-9.5c-3.2-4.4-9.5-5.4-13.9-2.1C731.5,769.2,730.1,772.6,730.3,776z"/>
	<path class="st14" d="M746.2,781.5c-4.1,3-9.9,2.1-12.9-2c-1.8-2.4-2.2-5.4-1.4-8c-1.3,2.9-1,6.4,1,9.2c3,4.1,8.8,5,12.9,2
		c1.7-1.3,2.9-3,3.4-4.9C748.5,779.2,747.5,780.5,746.2,781.5z"/>
	<path class="st11" d="M735.8,771.1C735.8,771.1,735.8,771.1,735.8,771.1c-1.4,1-2,3-0.8,4.5c0.9,1.2,2.3,1.3,3.3,0.9l0,0
		c-0.6,0.8-1,2.2-0.1,3.4c1.1,1.5,3.2,1.6,4.6,0.6c0,0,0,0,0,0c0.3-0.2,3.4-2.5,2.5-9.1l0,0l0,0l0,0l0,0l0,0l0,0
		C739.3,768.6,736.2,770.9,735.8,771.1z"/>
</g>
<g id="Calque_2_1_" class="st0">
	<path class="st1" d="M279,103.8c10.7,5.8,14.6,19.1,8.9,29.8c-5.8,10.7-19.1,14.6-29.8,8.9c-10.7-5.8-14.6-19.1-8.9-29.8
		C255,101.9,268.4,98,279,103.8z"/>
	<path class="st2" d="M249.9,119c3.7-10.6,15.3-16.3,26-12.5c6.2,2.2,10.7,7,12.6,12.8c-1.3-6.9-6.2-13-13.3-15.5
		c-10.6-3.7-22.3,1.9-26,12.5c-1.5,4.4-1.5,9-0.1,13.1C248.4,126.1,248.7,122.5,249.9,119z"/>
	<path class="st6" d="M258.3,124.3c-1,4.6,1.5,9.4,6.1,10.9c4.6,1.6,9.5-0.5,11.6-4.8L258.3,124.3z"/>
	<path class="st7" d="M259.1,130.7c1.1,2.1,2.9,3.7,5.2,4.6c2.3,0.8,4.6,0.7,6.7-0.2l0-0.2C266.1,129.8,259.2,130.6,259.1,130.7z"/>
	<path class="st15" d="M267.8,116.1L267.8,116.1c0.7-1.9-0.1-4.2-2.2-4.9c-1.7-0.6-3,0.3-3.8,1.3l0,0c0.1-1.2-0.5-2.8-2.1-3.3
		c-2.1-0.7-4.1,0.5-4.8,2.5l0,0c-0.1,0.4-1.6,4.7,3.6,10.3l0,0l0,0l0,0l0,0l0,0l0,0C266.2,120.7,267.7,116.5,267.8,116.1z"/>
	<path class="st15" d="M286.4,122.5L286.4,122.5c0.7-2-0.1-4.2-2.2-4.9c-1.7-0.6-3,0.3-3.8,1.3l0,0c0.1-1.2-0.5-2.8-2.1-3.3
		c-2.1-0.7-4.1,0.5-4.8,2.5l0,0c-0.1,0.4-1.6,4.7,3.6,10.3l0,0l0,0l0,0l0,0l0,0l0,0C284.8,127.2,286.2,122.9,286.4,122.5z"/>
	<path class="st1" d="M92.7,481.5c4.2,11.4-1.5,24-12.9,28.3c-11.4,4.2-24-1.5-28.3-12.9c-4.2-11.4,1.5-24,12.9-28.3
		C75.8,464.4,88.5,470.1,92.7,481.5z"/>
	<path class="st2" d="M53.9,483.4c4.7-10.3,16.8-14.8,27-10.1c6,2.7,10,8,11.4,14c-0.7-7-5-13.5-11.8-16.7
		c-10.3-4.7-22.3-0.2-27,10.1c-1.9,4.3-2.3,8.8-1.3,13.1C51.8,490.4,52.4,486.8,53.9,483.4z"/>
	<path class="st6" d="M62.1,489.7c-0.3-0.7-1.4-0.6-1.4,0.2c-0.2,4.4,2.2,8.6,6.5,10.5c4.2,1.9,8.9,1,12-1.9c0.6-0.5,0-1.5-0.7-1.2
		C74.1,498.8,66.1,500,62.1,489.7z"/>
	<path class="st6" d="M89.7,488.1l-8.4-3c-0.1,0-0.2-0.1-0.3-0.1c-0.1,0-2.8-0.9-5.8-2.1c-0.1,0-0.1-0.1-0.2-0.1
		c-2.8-1.5-5.3-3-5.4-3.1c-0.1,0-0.2-0.1-0.3-0.2l-7.8-4.4c-1.6-0.7-2.8-0.4-3.4,1c0,0-0.9,3.5-0.9,3.5c-0.3,1.2-0.5,2.2-0.3,3.4
		c0.1,0.7,0.5,1.3,0.9,1.8c0.2,0.3,0.5,0.5,0.7,0.7c0.2,0.2,0.5,0.3,0.8,0.4c0.2,0.1,0.6,0.3,0.9,0.4l1.9,0.8
		c0.5,0.2,0.7,0.3,0.8,0.3c0.9,0.4,1.8,0.6,2.8,0.6c1.5-0.1,2.6-0.7,3.7-1.7c1-0.9,2.3-1.4,3.6-1.6c0.8-0.1,1.5,0.2,1.9,0.9
		c0.4,0.6,0.7,1.3,0.9,1.9c0.2,0.5,0.2,1.1,0.3,1.6c0.1,0.6,0,1.2,0.1,1.8c0.1,0.6,0.3,1.2,0.6,1.7c0.6,0.9,1.4,1.6,2.3,2.2
		c0.1,0.1,0.2,0.1,0.3,0.2c0.1,0,0.3,0.1,0.8,0.3l1.9,0.8c0.2,0.1,0.6,0.3,0.9,0.4c0.3,0.1,0.6,0.2,0.9,0.3c0.3,0.1,0.7,0.1,1,0.1
		c0.7,0,1.4-0.2,1.9-0.5c1.1-0.7,1.7-1.5,2.4-2.5c0,0,2-2.9,2-3C91.9,489.9,91.4,488.7,89.7,488.1z"/>
	<path class="st16" d="M79.4,495.3c0.1,0,0.3,0.1,0.8,0.3l1.9,0.8c0.2,0.1,0.6,0.3,0.9,0.4c0.3,0.1,0.6,0.2,0.9,0.3
		c0.3,0.1,0.7,0.1,1,0.1c0.7,0,1.4-0.2,1.9-0.5c1.1-0.7,1.7-1.5,2.4-2.5c0,0,2-2.9,2-3c0.1-0.2,0.2-0.4,0.2-0.6
		c-6.4,4.1-11.6,3.4-14.6,2.4c0.5,0.9,1.4,1.6,2.2,2C79.1,495.2,79.3,495.3,79.4,495.3z"/>
	<path class="st16" d="M57.8,485c0.2,0.3,0.5,0.5,0.7,0.7c0.2,0.2,0.5,0.3,0.8,0.4c0.2,0.1,0.6,0.3,0.9,0.4l1.9,0.8
		c0.5,0.2,0.7,0.3,0.8,0.3c0.9,0.4,1.8,0.6,2.8,0.6c1.5-0.1,2.6-0.7,3.7-1.7c0.5-0.5,1.1-0.8,1.8-1.1c-7.1,1.1-11.8-0.4-13.7-1.2
		C57.5,484.6,57.7,484.8,57.8,485z"/>
	<path class="st1" d="M330.3,722c11.7,3.2,18.6,15.3,15.3,27c-3.2,11.7-15.3,18.6-27,15.3c-11.7-3.2-18.6-15.3-15.3-27
		C306.5,725.6,318.6,718.7,330.3,722z"/>
	<path class="st2" d="M309.1,754.5c-5.6-9.8-2.1-22.2,7.7-27.8c5.7-3.2,12.4-3.4,18-1c-6.1-3.6-13.9-3.9-20.4-0.2
		c-9.8,5.6-13.2,18-7.7,27.8c2.3,4.1,5.8,7.1,9.8,8.7C313.5,760.3,310.9,757.8,309.1,754.5z"/>
	<path class="st6" d="M333.1,741.5c0.2-0.1,0.4,0,0.5,0.2c0.5,0.9,0.7,1.9,0.8,3c0,1-0.1,2.1-0.5,3.1c-0.7,2-2.2,3.7-4.1,4.8
		c-1.9,1.1-4.2,1.5-6.2,1.1c-2.2-0.4-4-1.7-5-3.4c-0.1-0.2-0.1-0.5,0.1-0.6c0.2-0.1,0.5,0.1,0.7,0.1c0.3,0.1,0.6,0.1,0.9,0.1
		c0.6,0.1,1.2,0.1,1.8,0.1c2.2-0.1,4.5-0.7,6.3-2c1.2-0.8,2.2-1.9,3-3.1c0.5-0.7,0.9-1.5,1.2-2.3
		C332.7,742.4,332.8,741.7,333.1,741.5L333.1,741.5z"/>
	<path class="st3" d="M316.7,743.1c0.7,1.3,0.7,2.7-0.1,3.2c-0.8,0.4-2-0.3-2.8-1.6c-0.7-1.3-0.7-2.7,0.1-3.2
		C314.7,741,315.9,741.7,316.7,743.1z"/>
	<path class="st3" d="M332.8,734.9c-1.3-1-3.1-1.2-4.6-0.3c-1.4,0.8-2.2,2.4-2,4c0,0.3,0.3,0.6,0.6,0.6c0.3,0,0.6-0.2,0.7-0.5
		c0.5-1.6,1.7-3.4,4.7-2.6c0.2,0,0.3,0,0.5-0.1c0.1-0.1,0.2-0.1,0.3-0.3C333.2,735.5,333.1,735.1,332.8,734.9z"/>
	<path class="st11" d="M329.8,716.9c2.5,7.6-2,12.3-2,12.3s6.3-1.4,11.5,4.6c-2.5-7.6,2-12.3,2-12.3S335.1,722.9,329.8,716.9z"/>
	<path class="st17" d="M329.8,716.9c2.5,7.6-2,12.3-2,12.3S335.6,726.1,329.8,716.9z"/>
	<path class="st12" d="M403.9,294.2c3.9,10.7-1.6,22.6-12.4,26.5c-10.7,3.9-22.6-1.6-26.5-12.4c-3.9-10.7,1.6-22.6,12.4-26.5
		C388.1,278,400,283.5,403.9,294.2z"/>
	<path class="st13" d="M401.7,289.9c0.5,3.8,0,7.7-1.8,11.5c-4.8,10.3-17.1,14.8-27.4,10c-3.6-1.7-6.5-4.2-8.5-7.3
		c0.9,6.7,5.1,12.9,11.7,16c10.3,4.8,22.6,0.3,27.4-10C406.3,303.3,405.5,295.7,401.7,289.9z"/>
	<path class="st14" d="M367.3,295.7c4.5-9.6,15.9-13.7,25.5-9.3c5.6,2.6,9.4,7.6,10.6,13.2c-0.6-6.6-4.6-12.8-11-15.8
		c-9.6-4.5-21-0.3-25.5,9.3c-1.9,4-2.2,8.3-1.3,12.3C365.3,302.2,365.9,298.9,367.3,295.7z"/>
	<path class="st11" d="M396.5,304.3C396.5,304.2,396.5,304.2,396.5,304.3c1.6-3.3,0.6-7.5-3-9.1c-2.9-1.3-5.5-0.1-6.9,1.6l0,0
		c0.3-2.2-0.4-5-3.2-6.3c-3.6-1.7-7.4,0.2-8.9,3.5c0,0,0,0,0,0c-0.4,0.7-3.7,8,4.5,19.1l0,0l0,0l0,0l0,0l0,0l0,0
		C392.7,312.3,396.2,305,396.5,304.3z"/>
	<path class="st8" d="M741.8,38.9c9.1,6.8,11,19.8,4.1,28.9c-6.8,9.1-19.8,11-28.9,4.1c-9.1-6.8-11-19.8-4.1-28.9
		C719.7,33.9,732.6,32.1,741.8,38.9z"/>
	<path class="st9" d="M747.1,44.8c0.3,3.8-0.4,7.7-2.3,11.4c-5.3,10.1-17.8,14-27.9,8.7c-3.5-1.8-6.3-4.5-8.2-7.7
		c0.6,6.8,4.5,13.1,11,16.5c10.1,5.3,22.6,1.4,27.9-8.7C751.2,58.4,750.7,50.8,747.1,44.8z"/>
	<path class="st10" d="M712.6,49.1c4.9-9.4,16.5-13,25.9-8.1c5.5,2.9,9,8,10,13.7c-0.2-6.6-3.9-12.9-10.3-16.2
		c-9.4-4.9-21-1.3-25.9,8.1c-2.1,3.9-2.6,8.2-1.9,12.2C710.2,55.5,710.9,52.2,712.6,49.1z"/>
	<path class="st11" d="M742.2,56.6l-2.9-1.5l-1.2-0.6l-2.3-1.2c-0.2-0.1-0.2-0.3-0.1-0.4c0.7-0.8,1.3-1.8,1.8-2.7
		c0.3-0.5,0.6-1.1,0.8-1.7c0.2-0.6,0.4-1.2,0.3-1.8c-0.1-0.7-0.5-1.4-1.1-1.7c-1.5-0.8-2.4,0.5-3.2,1.6c-0.9,1.3-1.7,2.6-2.9,3.5
		c-0.9,0.6-1.9,1.1-3,1c-0.9-0.1-1.5-0.1-2.3-0.4c-0.1,0-0.3,0-0.3,0.1l-4.9,9.4c-0.1,0.1,0,0.3,0.1,0.4l2.6,1.4
		c0.1,0,0.1,0.1,0.1,0.2c0.2,1,0.7,1.8,1.7,2.3l4,2.1l2.9,1.5l1.2,0.6c1.2,0.6,2.7,0.2,3.3-1l0,0c0.2-0.3,0.2-0.6,0.2-1
		c0-0.1,0.1-0.2,0.2-0.3c0.6-0.1,1.3-0.8,1.7-1.4l0.1-0.3c0.2-0.3,0.2-0.6,0.2-1c0-0.1,0.1-0.2,0.2-0.3c0.6-0.1,1.2-0.5,1.5-1.1
		l0.1-0.3c0.2-0.3,0.3-0.6,0.2-1c0-0.1,0.1-0.2,0.2-0.3c0.6-0.1,1.2-0.5,1.5-1.1l0,0C743.8,58.7,743.4,57.2,742.2,56.6z"/>
	<path class="st11" d="M718.4,60.4l-3.8-2c-0.3-0.2-0.4-0.6-0.3-0.9l5.6-10.7c0.2-0.3,0.6-0.4,0.9-0.3l3.8,2
		c0.3,0.2,0.5,0.6,0.3,0.9l-5.6,10.7C719.1,60.5,718.7,60.6,718.4,60.4z"/>
</g>
<g id="Calque_3">
	<path class="st18" d="M678.7,367c0.7,0,1.4,0.6,1.4,1.4s-0.6,1.4-1.4,1.4c-0.7,0-1.4-0.6-1.4-1.4S677.9,367,678.7,367z M666.6,367
		c0.7,0,1.4,0.6,1.4,1.4s-0.6,1.4-1.4,1.4c-0.7,0-1.4-0.6-1.4-1.4S665.8,367,666.6,367z M654.5,367c0.7,0,1.4,0.6,1.4,1.4
		s-0.6,1.4-1.4,1.4c-0.7,0-1.4-0.6-1.4-1.4S653.8,367,654.5,367z M642.4,367c0.7,0,1.4,0.6,1.4,1.4s-0.6,1.4-1.4,1.4
		c-0.7,0-1.4-0.6-1.4-1.4S641.7,367,642.4,367z M630.4,367c0.7,0,1.4,0.6,1.4,1.4s-0.6,1.4-1.4,1.4c-0.7,0-1.4-0.6-1.4-1.4
		S629.6,367,630.4,367z M618.3,367c0.7,0,1.4,0.6,1.4,1.4s-0.6,1.4-1.4,1.4c-0.7,0-1.4-0.6-1.4-1.4S617.6,367,618.3,367z M606.2,367
		c0.7,0,1.4,0.6,1.4,1.4s-0.6,1.4-1.4,1.4c-0.7,0-1.4-0.6-1.4-1.4S605.5,367,606.2,367z M594.2,367c0.7,0,1.4,0.6,1.4,1.4
		s-0.6,1.4-1.4,1.4c-0.7,0-1.4-0.6-1.4-1.4S593.4,367,594.2,367z M582.1,367c0.7,0,1.4,0.6,1.4,1.4s-0.6,1.4-1.4,1.4
		s-1.4-0.6-1.4-1.4S581.4,367,582.1,367z M570.3,367c0.7,0,1.4,0.6,1.4,1.4s-0.6,1.4-1.4,1.4s-1.4-0.6-1.4-1.4S569.5,367,570.3,367z
		 M558.2,367c0.7,0,1.4,0.6,1.4,1.4s-0.6,1.4-1.4,1.4c-0.7,0-1.4-0.6-1.4-1.4S557.5,367,558.2,367z M546.2,367
		c0.7,0,1.4,0.6,1.4,1.4s-0.6,1.4-1.4,1.4c-0.7,0-1.4-0.6-1.4-1.4S545.4,367,546.2,367z M534.1,367c0.7,0,1.4,0.6,1.4,1.4
		s-0.6,1.4-1.4,1.4c-0.7,0-1.4-0.6-1.4-1.4S533.3,367,534.1,367z M522,367c0.7,0,1.4,0.6,1.4,1.4s-0.6,1.4-1.4,1.4
		c-0.7,0-1.4-0.6-1.4-1.4S521.3,367,522,367z M509.9,367c0.7,0,1.4,0.6,1.4,1.4s-0.6,1.4-1.4,1.4s-1.4-0.6-1.4-1.4
		S509.2,367,509.9,367z M497.9,367c0.7,0,1.4,0.6,1.4,1.4s-0.6,1.4-1.4,1.4c-0.7,0-1.4-0.6-1.4-1.4S497.1,367,497.9,367z M485.8,367
		c0.7,0,1.4,0.6,1.4,1.4s-0.6,1.4-1.4,1.4c-0.7,0-1.4-0.6-1.4-1.4S485.1,367,485.8,367z M473.7,367c0.7,0,1.4,0.6,1.4,1.4
		s-0.6,1.4-1.4,1.4c-0.7,0-1.4-0.6-1.4-1.4S473,367,473.7,367z M678.7,354.9c0.7,0,1.4,0.6,1.4,1.4c0,0.7-0.6,1.4-1.4,1.4
		c-0.7,0-1.4-0.6-1.4-1.4C677.3,355.5,677.9,354.9,678.7,354.9z M666.6,354.9c0.7,0,1.4,0.6,1.4,1.4c0,0.7-0.6,1.4-1.4,1.4
		c-0.7,0-1.4-0.6-1.4-1.4S665.8,354.9,666.6,354.9z M654.5,354.9c0.7,0,1.4,0.6,1.4,1.4c0,0.7-0.6,1.4-1.4,1.4
		c-0.7,0-1.4-0.6-1.4-1.4S653.8,354.9,654.5,354.9z M642.4,354.9c0.7,0,1.4,0.6,1.4,1.4c0,0.7-0.6,1.4-1.4,1.4
		c-0.7,0-1.4-0.6-1.4-1.4S641.7,354.9,642.4,354.9z M630.4,354.9c0.7,0,1.4,0.6,1.4,1.4c0,0.7-0.6,1.4-1.4,1.4
		c-0.7,0-1.4-0.6-1.4-1.4S629.6,354.9,630.4,354.9z M618.3,354.9c0.7,0,1.4,0.6,1.4,1.4c0,0.7-0.6,1.4-1.4,1.4
		c-0.7,0-1.4-0.6-1.4-1.4C617,355.5,617.6,354.9,618.3,354.9z M606.2,354.9c0.7,0,1.4,0.6,1.4,1.4c0,0.7-0.6,1.4-1.4,1.4
		c-0.7,0-1.4-0.6-1.4-1.4C604.9,355.5,605.5,354.9,606.2,354.9z M594.2,354.9c0.7,0,1.4,0.6,1.4,1.4c0,0.7-0.6,1.4-1.4,1.4
		c-0.7,0-1.4-0.6-1.4-1.4C592.8,355.5,593.4,354.9,594.2,354.9z M582.1,354.9c0.7,0,1.4,0.6,1.4,1.4c0,0.7-0.6,1.4-1.4,1.4
		s-1.4-0.6-1.4-1.4S581.4,354.9,582.1,354.9z M570.3,354.9c0.7,0,1.4,0.6,1.4,1.4c0,0.7-0.6,1.4-1.4,1.4s-1.4-0.6-1.4-1.4
		S569.5,354.9,570.3,354.9z M558.2,354.9c0.7,0,1.4,0.6,1.4,1.4c0,0.7-0.6,1.4-1.4,1.4c-0.7,0-1.4-0.6-1.4-1.4
		S557.5,354.9,558.2,354.9z M546.2,354.9c0.7,0,1.4,0.6,1.4,1.4c0,0.7-0.6,1.4-1.4,1.4c-0.7,0-1.4-0.6-1.4-1.4
		C544.8,355.5,545.4,354.9,546.2,354.9z M534.1,354.9c0.7,0,1.4,0.6,1.4,1.4c0,0.7-0.6,1.4-1.4,1.4c-0.7,0-1.4-0.6-1.4-1.4
		S533.3,354.9,534.1,354.9z M522,354.9c0.7,0,1.4,0.6,1.4,1.4c0,0.7-0.6,1.4-1.4,1.4c-0.7,0-1.4-0.6-1.4-1.4S521.3,354.9,522,354.9z
		 M509.9,354.9c0.7,0,1.4,0.6,1.4,1.4c0,0.7-0.6,1.4-1.4,1.4s-1.4-0.6-1.4-1.4S509.2,354.9,509.9,354.9z M497.9,354.9
		c0.7,0,1.4,0.6,1.4,1.4c0,0.7-0.6,1.4-1.4,1.4c-0.7,0-1.4-0.6-1.4-1.4S497.1,354.9,497.9,354.9z M485.8,354.9
		c0.7,0,1.4,0.6,1.4,1.4c0,0.7-0.6,1.4-1.4,1.4c-0.7,0-1.4-0.6-1.4-1.4S485.1,354.9,485.8,354.9z M473.7,354.9
		c0.7,0,1.4,0.6,1.4,1.4c0,0.7-0.6,1.4-1.4,1.4c-0.7,0-1.4-0.6-1.4-1.4S473,354.9,473.7,354.9z M678.7,342.8c0.7,0,1.4,0.6,1.4,1.4
		s-0.6,1.4-1.4,1.4c-0.7,0-1.4-0.6-1.4-1.4C677.3,343.4,677.9,342.8,678.7,342.8z M666.6,342.8c0.7,0,1.4,0.6,1.4,1.4
		s-0.6,1.4-1.4,1.4c-0.7,0-1.4-0.6-1.4-1.4S665.8,342.8,666.6,342.8z M654.5,342.8c0.7,0,1.4,0.6,1.4,1.4s-0.6,1.4-1.4,1.4
		c-0.7,0-1.4-0.6-1.4-1.4S653.8,342.8,654.5,342.8z M642.4,342.8c0.7,0,1.4,0.6,1.4,1.4s-0.6,1.4-1.4,1.4c-0.7,0-1.4-0.6-1.4-1.4
		S641.7,342.8,642.4,342.8z M630.4,342.8c0.7,0,1.4,0.6,1.4,1.4s-0.6,1.4-1.4,1.4c-0.7,0-1.4-0.6-1.4-1.4S629.6,342.8,630.4,342.8z
		 M618.3,342.8c0.7,0,1.4,0.6,1.4,1.4s-0.6,1.4-1.4,1.4c-0.7,0-1.4-0.6-1.4-1.4C617,343.4,617.6,342.8,618.3,342.8z M606.2,342.8
		c0.7,0,1.4,0.6,1.4,1.4s-0.6,1.4-1.4,1.4c-0.7,0-1.4-0.6-1.4-1.4C604.9,343.4,605.5,342.8,606.2,342.8z M594.2,342.8
		c0.7,0,1.4,0.6,1.4,1.4s-0.6,1.4-1.4,1.4c-0.7,0-1.4-0.6-1.4-1.4C592.8,343.4,593.4,342.8,594.2,342.8z M582.1,342.8
		c0.7,0,1.4,0.6,1.4,1.4s-0.6,1.4-1.4,1.4s-1.4-0.6-1.4-1.4S581.4,342.8,582.1,342.8z M570.3,342.8c0.7,0,1.4,0.6,1.4,1.4
		s-0.6,1.4-1.4,1.4s-1.4-0.6-1.4-1.4S569.5,342.8,570.3,342.8z M558.2,342.8c0.7,0,1.4,0.6,1.4,1.4s-0.6,1.4-1.4,1.4
		c-0.7,0-1.4-0.6-1.4-1.4S557.5,342.8,558.2,342.8z M546.2,342.8c0.7,0,1.4,0.6,1.4,1.4s-0.6,1.4-1.4,1.4c-0.7,0-1.4-0.6-1.4-1.4
		C544.8,343.4,545.4,342.8,546.2,342.8z M534.1,342.8c0.7,0,1.4,0.6,1.4,1.4s-0.6,1.4-1.4,1.4c-0.7,0-1.4-0.6-1.4-1.4
		S533.3,342.8,534.1,342.8z M522,342.8c0.7,0,1.4,0.6,1.4,1.4s-0.6,1.4-1.4,1.4c-0.7,0-1.4-0.6-1.4-1.4S521.3,342.8,522,342.8z
		 M509.9,342.8c0.7,0,1.4,0.6,1.4,1.4s-0.6,1.4-1.4,1.4s-1.4-0.6-1.4-1.4S509.2,342.8,509.9,342.8z M497.9,342.8
		c0.7,0,1.4,0.6,1.4,1.4s-0.6,1.4-1.4,1.4c-0.7,0-1.4-0.6-1.4-1.4S497.1,342.8,497.9,342.8z M485.8,342.8c0.7,0,1.4,0.6,1.4,1.4
		s-0.6,1.4-1.4,1.4c-0.7,0-1.4-0.6-1.4-1.4S485.1,342.8,485.8,342.8z M473.7,342.8c0.7,0,1.4,0.6,1.4,1.4s-0.6,1.4-1.4,1.4
		c-0.7,0-1.4-0.6-1.4-1.4S473,342.8,473.7,342.8z M678.7,330.6c0.7,0,1.4,0.6,1.4,1.4s-0.6,1.4-1.4,1.4c-0.7,0-1.4-0.6-1.4-1.4
		S677.9,330.6,678.7,330.6z M666.6,330.6c0.7,0,1.4,0.6,1.4,1.4s-0.6,1.4-1.4,1.4c-0.7,0-1.4-0.6-1.4-1.4S665.8,330.6,666.6,330.6z
		 M654.5,330.6c0.7,0,1.4,0.6,1.4,1.4s-0.6,1.4-1.4,1.4c-0.7,0-1.4-0.6-1.4-1.4S653.8,330.6,654.5,330.6z M642.4,330.6
		c0.7,0,1.4,0.6,1.4,1.4s-0.6,1.4-1.4,1.4c-0.7,0-1.4-0.6-1.4-1.4S641.7,330.6,642.4,330.6z M630.4,330.6c0.7,0,1.4,0.6,1.4,1.4
		s-0.6,1.4-1.4,1.4c-0.7,0-1.4-0.6-1.4-1.4S629.6,330.6,630.4,330.6z M618.3,330.6c0.7,0,1.4,0.6,1.4,1.4s-0.6,1.4-1.4,1.4
		c-0.7,0-1.4-0.6-1.4-1.4S617.6,330.6,618.3,330.6z M606.2,330.6c0.7,0,1.4,0.6,1.4,1.4s-0.6,1.4-1.4,1.4c-0.7,0-1.4-0.6-1.4-1.4
		S605.5,330.6,606.2,330.6z M594.2,330.6c0.7,0,1.4,0.6,1.4,1.4s-0.6,1.4-1.4,1.4c-0.7,0-1.4-0.6-1.4-1.4S593.4,330.6,594.2,330.6z
		 M582.1,330.6c0.7,0,1.4,0.6,1.4,1.4s-0.6,1.4-1.4,1.4s-1.4-0.6-1.4-1.4S581.4,330.6,582.1,330.6z M570.3,330.6
		c0.7,0,1.4,0.6,1.4,1.4s-0.6,1.4-1.4,1.4s-1.4-0.6-1.4-1.4S569.5,330.6,570.3,330.6z M558.2,330.6c0.7,0,1.4,0.6,1.4,1.4
		s-0.6,1.4-1.4,1.4c-0.7,0-1.4-0.6-1.4-1.4S557.5,330.6,558.2,330.6z M546.2,330.6c0.7,0,1.4,0.6,1.4,1.4s-0.6,1.4-1.4,1.4
		c-0.7,0-1.4-0.6-1.4-1.4S545.4,330.6,546.2,330.6z M534.1,330.6c0.7,0,1.4,0.6,1.4,1.4s-0.6,1.4-1.4,1.4c-0.7,0-1.4-0.6-1.4-1.4
		S533.3,330.6,534.1,330.6z M522,330.6c0.7,0,1.4,0.6,1.4,1.4s-0.6,1.4-1.4,1.4c-0.7,0-1.4-0.6-1.4-1.4S521.3,330.6,522,330.6z
		 M509.9,330.6c0.7,0,1.4,0.6,1.4,1.4s-0.6,1.4-1.4,1.4s-1.4-0.6-1.4-1.4S509.2,330.6,509.9,330.6z M497.9,330.6
		c0.7,0,1.4,0.6,1.4,1.4s-0.6,1.4-1.4,1.4c-0.7,0-1.4-0.6-1.4-1.4S497.1,330.6,497.9,330.6z M485.8,330.6c0.7,0,1.4,0.6,1.4,1.4
		s-0.6,1.4-1.4,1.4c-0.7,0-1.4-0.6-1.4-1.4S485.1,330.6,485.8,330.6z M473.7,330.6c0.7,0,1.4,0.6,1.4,1.4s-0.6,1.4-1.4,1.4
		c-0.7,0-1.4-0.6-1.4-1.4S473,330.6,473.7,330.6z M678.7,318.5c0.7,0,1.4,0.6,1.4,1.4c0,0.7-0.6,1.4-1.4,1.4c-0.7,0-1.4-0.6-1.4-1.4
		C677.3,319.1,677.9,318.5,678.7,318.5z M666.6,318.5c0.7,0,1.4,0.6,1.4,1.4c0,0.7-0.6,1.4-1.4,1.4c-0.7,0-1.4-0.6-1.4-1.4
		C665.2,319.1,665.8,318.5,666.6,318.5z M654.5,318.5c0.7,0,1.4,0.6,1.4,1.4c0,0.7-0.6,1.4-1.4,1.4c-0.7,0-1.4-0.6-1.4-1.4
		C653.2,319.1,653.8,318.5,654.5,318.5z M642.4,318.5c0.7,0,1.4,0.6,1.4,1.4c0,0.7-0.6,1.4-1.4,1.4c-0.7,0-1.4-0.6-1.4-1.4
		C641.1,319.1,641.7,318.5,642.4,318.5z M630.4,318.5c0.7,0,1.4,0.6,1.4,1.4c0,0.7-0.6,1.4-1.4,1.4c-0.7,0-1.4-0.6-1.4-1.4
		C629,319.1,629.6,318.5,630.4,318.5z M618.3,318.5c0.7,0,1.4,0.6,1.4,1.4c0,0.7-0.6,1.4-1.4,1.4c-0.7,0-1.4-0.6-1.4-1.4
		C617,319.1,617.6,318.5,618.3,318.5z M606.2,318.5c0.7,0,1.4,0.6,1.4,1.4c0,0.7-0.6,1.4-1.4,1.4c-0.7,0-1.4-0.6-1.4-1.4
		C604.9,319.1,605.5,318.5,606.2,318.5z M594.2,318.5c0.7,0,1.4,0.6,1.4,1.4c0,0.7-0.6,1.4-1.4,1.4c-0.7,0-1.4-0.6-1.4-1.4
		C592.8,319.1,593.4,318.5,594.2,318.5z M582.1,318.5c0.7,0,1.4,0.6,1.4,1.4c0,0.7-0.6,1.4-1.4,1.4s-1.4-0.6-1.4-1.4
		C580.7,319.1,581.4,318.5,582.1,318.5z M570.3,318.5c0.7,0,1.4,0.6,1.4,1.4c0,0.7-0.6,1.4-1.4,1.4s-1.4-0.6-1.4-1.4
		C568.9,319.1,569.5,318.5,570.3,318.5z M558.2,318.5c0.7,0,1.4,0.6,1.4,1.4c0,0.7-0.6,1.4-1.4,1.4c-0.7,0-1.4-0.6-1.4-1.4
		C556.9,319.1,557.5,318.5,558.2,318.5z M546.2,318.5c0.7,0,1.4,0.6,1.4,1.4c0,0.7-0.6,1.4-1.4,1.4c-0.7,0-1.4-0.6-1.4-1.4
		C544.8,319.1,545.4,318.5,546.2,318.5z M534.1,318.5c0.7,0,1.4,0.6,1.4,1.4c0,0.7-0.6,1.4-1.4,1.4c-0.7,0-1.4-0.6-1.4-1.4
		C532.7,319.1,533.3,318.5,534.1,318.5z M522,318.5c0.7,0,1.4,0.6,1.4,1.4c0,0.7-0.6,1.4-1.4,1.4c-0.7,0-1.4-0.6-1.4-1.4
		C520.7,319.1,521.3,318.5,522,318.5z M509.9,318.5c0.7,0,1.4,0.6,1.4,1.4c0,0.7-0.6,1.4-1.4,1.4s-1.4-0.6-1.4-1.4
		C508.6,319.1,509.2,318.5,509.9,318.5z M497.9,318.5c0.7,0,1.4,0.6,1.4,1.4c0,0.7-0.6,1.4-1.4,1.4c-0.7,0-1.4-0.6-1.4-1.4
		C496.5,319.1,497.1,318.5,497.9,318.5z M485.8,318.5c0.7,0,1.4,0.6,1.4,1.4c0,0.7-0.6,1.4-1.4,1.4c-0.7,0-1.4-0.6-1.4-1.4
		C484.5,319.1,485.1,318.5,485.8,318.5z M473.7,318.5c0.7,0,1.4,0.6,1.4,1.4c0,0.7-0.6,1.4-1.4,1.4c-0.7,0-1.4-0.6-1.4-1.4
		C472.4,319.1,473,318.5,473.7,318.5z M678.7,306.4c0.7,0,1.4,0.6,1.4,1.4s-0.6,1.4-1.4,1.4c-0.7,0-1.4-0.6-1.4-1.4
		C677.3,307,677.9,306.4,678.7,306.4z M666.6,306.4c0.7,0,1.4,0.6,1.4,1.4s-0.6,1.4-1.4,1.4c-0.7,0-1.4-0.6-1.4-1.4
		S665.8,306.4,666.6,306.4z M654.5,306.4c0.7,0,1.4,0.6,1.4,1.4s-0.6,1.4-1.4,1.4c-0.7,0-1.4-0.6-1.4-1.4S653.8,306.4,654.5,306.4z
		 M642.4,306.4c0.7,0,1.4,0.6,1.4,1.4s-0.6,1.4-1.4,1.4c-0.7,0-1.4-0.6-1.4-1.4S641.7,306.4,642.4,306.4z M630.4,306.4
		c0.7,0,1.4,0.6,1.4,1.4s-0.6,1.4-1.4,1.4c-0.7,0-1.4-0.6-1.4-1.4S629.6,306.4,630.4,306.4z M618.3,306.4c0.7,0,1.4,0.6,1.4,1.4
		s-0.6,1.4-1.4,1.4c-0.7,0-1.4-0.6-1.4-1.4C617,307,617.6,306.4,618.3,306.4z M606.2,306.4c0.7,0,1.4,0.6,1.4,1.4s-0.6,1.4-1.4,1.4
		c-0.7,0-1.4-0.6-1.4-1.4C604.9,307,605.5,306.4,606.2,306.4z M594.2,306.4c0.7,0,1.4,0.6,1.4,1.4s-0.6,1.4-1.4,1.4
		c-0.7,0-1.4-0.6-1.4-1.4C592.8,307,593.4,306.4,594.2,306.4z M582.1,306.4c0.7,0,1.4,0.6,1.4,1.4s-0.6,1.4-1.4,1.4
		s-1.4-0.6-1.4-1.4S581.4,306.4,582.1,306.4z M570.3,306.4c0.7,0,1.4,0.6,1.4,1.4s-0.6,1.4-1.4,1.4s-1.4-0.6-1.4-1.4
		S569.5,306.4,570.3,306.4z M558.2,306.4c0.7,0,1.4,0.6,1.4,1.4s-0.6,1.4-1.4,1.4c-0.7,0-1.4-0.6-1.4-1.4S557.5,306.4,558.2,306.4z
		 M546.2,306.4c0.7,0,1.4,0.6,1.4,1.4s-0.6,1.4-1.4,1.4c-0.7,0-1.4-0.6-1.4-1.4C544.8,307,545.4,306.4,546.2,306.4z M534.1,306.4
		c0.7,0,1.4,0.6,1.4,1.4s-0.6,1.4-1.4,1.4c-0.7,0-1.4-0.6-1.4-1.4S533.3,306.4,534.1,306.4z M522,306.4c0.7,0,1.4,0.6,1.4,1.4
		s-0.6,1.4-1.4,1.4c-0.7,0-1.4-0.6-1.4-1.4S521.3,306.4,522,306.4z M509.9,306.4c0.7,0,1.4,0.6,1.4,1.4s-0.6,1.4-1.4,1.4
		s-1.4-0.6-1.4-1.4S509.2,306.4,509.9,306.4z M497.9,306.4c0.7,0,1.4,0.6,1.4,1.4s-0.6,1.4-1.4,1.4c-0.7,0-1.4-0.6-1.4-1.4
		S497.1,306.4,497.9,306.4z M485.8,306.4c0.7,0,1.4,0.6,1.4,1.4s-0.6,1.4-1.4,1.4c-0.7,0-1.4-0.6-1.4-1.4S485.1,306.4,485.8,306.4z
		 M473.7,306.4c0.7,0,1.4,0.6,1.4,1.4s-0.6,1.4-1.4,1.4c-0.7,0-1.4-0.6-1.4-1.4S473,306.4,473.7,306.4z M678.7,294.3
		c0.7,0,1.4,0.6,1.4,1.4s-0.6,1.4-1.4,1.4c-0.7,0-1.4-0.6-1.4-1.4S677.9,294.3,678.7,294.3z M666.6,294.3c0.7,0,1.4,0.6,1.4,1.4
		s-0.6,1.4-1.4,1.4c-0.7,0-1.4-0.6-1.4-1.4S665.8,294.3,666.6,294.3z M654.5,294.3c0.7,0,1.4,0.6,1.4,1.4s-0.6,1.4-1.4,1.4
		c-0.7,0-1.4-0.6-1.4-1.4S653.8,294.3,654.5,294.3z M642.4,294.3c0.7,0,1.4,0.6,1.4,1.4s-0.6,1.4-1.4,1.4c-0.7,0-1.4-0.6-1.4-1.4
		S641.7,294.3,642.4,294.3z M630.4,294.3c0.7,0,1.4,0.6,1.4,1.4s-0.6,1.4-1.4,1.4c-0.7,0-1.4-0.6-1.4-1.4S629.6,294.3,630.4,294.3z
		 M618.3,294.3c0.7,0,1.4,0.6,1.4,1.4s-0.6,1.4-1.4,1.4c-0.7,0-1.4-0.6-1.4-1.4S617.6,294.3,618.3,294.3z M606.2,294.3
		c0.7,0,1.4,0.6,1.4,1.4s-0.6,1.4-1.4,1.4c-0.7,0-1.4-0.6-1.4-1.4S605.5,294.3,606.2,294.3z M594.2,294.3c0.7,0,1.4,0.6,1.4,1.4
		s-0.6,1.4-1.4,1.4c-0.7,0-1.4-0.6-1.4-1.4S593.4,294.3,594.2,294.3z M582.1,294.3c0.7,0,1.4,0.6,1.4,1.4s-0.6,1.4-1.4,1.4
		s-1.4-0.6-1.4-1.4S581.4,294.3,582.1,294.3z M570.3,294.3c0.7,0,1.4,0.6,1.4,1.4s-0.6,1.4-1.4,1.4s-1.4-0.6-1.4-1.4
		S569.5,294.3,570.3,294.3z M558.2,294.3c0.7,0,1.4,0.6,1.4,1.4s-0.6,1.4-1.4,1.4c-0.7,0-1.4-0.6-1.4-1.4S557.5,294.3,558.2,294.3z
		 M546.2,294.3c0.7,0,1.4,0.6,1.4,1.4s-0.6,1.4-1.4,1.4c-0.7,0-1.4-0.6-1.4-1.4S545.4,294.3,546.2,294.3z M534.1,294.3
		c0.7,0,1.4,0.6,1.4,1.4s-0.6,1.4-1.4,1.4c-0.7,0-1.4-0.6-1.4-1.4S533.3,294.3,534.1,294.3z M522,294.3c0.7,0,1.4,0.6,1.4,1.4
		s-0.6,1.4-1.4,1.4c-0.7,0-1.4-0.6-1.4-1.4S521.3,294.3,522,294.3z M509.9,294.3c0.7,0,1.4,0.6,1.4,1.4s-0.6,1.4-1.4,1.4
		s-1.4-0.6-1.4-1.4S509.2,294.3,509.9,294.3z M497.9,294.3c0.7,0,1.4,0.6,1.4,1.4s-0.6,1.4-1.4,1.4c-0.7,0-1.4-0.6-1.4-1.4
		S497.1,294.3,497.9,294.3z M485.8,294.3c0.7,0,1.4,0.6,1.4,1.4s-0.6,1.4-1.4,1.4c-0.7,0-1.4-0.6-1.4-1.4S485.1,294.3,485.8,294.3z
		 M473.7,294.3c0.7,0,1.4,0.6,1.4,1.4s-0.6,1.4-1.4,1.4c-0.7,0-1.4-0.6-1.4-1.4S473,294.3,473.7,294.3z M678.7,282.2
		c0.7,0,1.4,0.6,1.4,1.4c0,0.7-0.6,1.4-1.4,1.4c-0.7,0-1.4-0.6-1.4-1.4C677.3,282.8,677.9,282.2,678.7,282.2z M666.6,282.2
		c0.7,0,1.4,0.6,1.4,1.4c0,0.7-0.6,1.4-1.4,1.4c-0.7,0-1.4-0.6-1.4-1.4C665.2,282.8,665.8,282.2,666.6,282.2z M654.5,282.2
		c0.7,0,1.4,0.6,1.4,1.4c0,0.7-0.6,1.4-1.4,1.4c-0.7,0-1.4-0.6-1.4-1.4C653.2,282.8,653.8,282.2,654.5,282.2z M642.4,282.2
		c0.7,0,1.4,0.6,1.4,1.4c0,0.7-0.6,1.4-1.4,1.4c-0.7,0-1.4-0.6-1.4-1.4C641.1,282.8,641.7,282.2,642.4,282.2z M630.4,282.2
		c0.7,0,1.4,0.6,1.4,1.4c0,0.7-0.6,1.4-1.4,1.4c-0.7,0-1.4-0.6-1.4-1.4C629,282.8,629.6,282.2,630.4,282.2z M618.3,282.2
		c0.7,0,1.4,0.6,1.4,1.4c0,0.7-0.6,1.4-1.4,1.4c-0.7,0-1.4-0.6-1.4-1.4C617,282.8,617.6,282.2,618.3,282.2z M606.2,282.2
		c0.7,0,1.4,0.6,1.4,1.4c0,0.7-0.6,1.4-1.4,1.4c-0.7,0-1.4-0.6-1.4-1.4C604.9,282.8,605.5,282.2,606.2,282.2z M594.2,282.2
		c0.7,0,1.4,0.6,1.4,1.4c0,0.7-0.6,1.4-1.4,1.4c-0.7,0-1.4-0.6-1.4-1.4C592.8,282.8,593.4,282.2,594.2,282.2z M582.1,282.2
		c0.7,0,1.4,0.6,1.4,1.4c0,0.7-0.6,1.4-1.4,1.4s-1.4-0.6-1.4-1.4C580.7,282.8,581.4,282.2,582.1,282.2z M570.3,282.2
		c0.7,0,1.4,0.6,1.4,1.4c0,0.7-0.6,1.4-1.4,1.4s-1.4-0.6-1.4-1.4C568.9,282.8,569.5,282.2,570.3,282.2z M558.2,282.2
		c0.7,0,1.4,0.6,1.4,1.4c0,0.7-0.6,1.4-1.4,1.4c-0.7,0-1.4-0.6-1.4-1.4C556.9,282.8,557.5,282.2,558.2,282.2z M546.2,282.2
		c0.7,0,1.4,0.6,1.4,1.4c0,0.7-0.6,1.4-1.4,1.4c-0.7,0-1.4-0.6-1.4-1.4C544.8,282.8,545.4,282.2,546.2,282.2z M534.1,282.2
		c0.7,0,1.4,0.6,1.4,1.4c0,0.7-0.6,1.4-1.4,1.4c-0.7,0-1.4-0.6-1.4-1.4C532.7,282.8,533.3,282.2,534.1,282.2z M522,282.2
		c0.7,0,1.4,0.6,1.4,1.4c0,0.7-0.6,1.4-1.4,1.4c-0.7,0-1.4-0.6-1.4-1.4C520.7,282.8,521.3,282.2,522,282.2z M509.9,282.2
		c0.7,0,1.4,0.6,1.4,1.4c0,0.7-0.6,1.4-1.4,1.4s-1.4-0.6-1.4-1.4C508.6,282.8,509.2,282.2,509.9,282.2z M497.9,282.2
		c0.7,0,1.4,0.6,1.4,1.4c0,0.7-0.6,1.4-1.4,1.4c-0.7,0-1.4-0.6-1.4-1.4C496.5,282.8,497.1,282.2,497.9,282.2z M485.8,282.2
		c0.7,0,1.4,0.6,1.4,1.4c0,0.7-0.6,1.4-1.4,1.4c-0.7,0-1.4-0.6-1.4-1.4C484.5,282.8,485.1,282.2,485.8,282.2z M473.7,282.2
		c0.7,0,1.4,0.6,1.4,1.4c0,0.7-0.6,1.4-1.4,1.4c-0.7,0-1.4-0.6-1.4-1.4C472.4,282.8,473,282.2,473.7,282.2z M678.7,270.1
		c0.7,0,1.4,0.6,1.4,1.4s-0.6,1.4-1.4,1.4c-0.7,0-1.4-0.6-1.4-1.4C677.3,270.7,677.9,270.1,678.7,270.1z M666.6,270.1
		c0.7,0,1.4,0.6,1.4,1.4s-0.6,1.4-1.4,1.4c-0.7,0-1.4-0.6-1.4-1.4S665.8,270.1,666.6,270.1z M654.5,270.1c0.7,0,1.4,0.6,1.4,1.4
		s-0.6,1.4-1.4,1.4c-0.7,0-1.4-0.6-1.4-1.4S653.8,270.1,654.5,270.1z M642.4,270.1c0.7,0,1.4,0.6,1.4,1.4s-0.6,1.4-1.4,1.4
		c-0.7,0-1.4-0.6-1.4-1.4S641.7,270.1,642.4,270.1z M630.4,270.1c0.7,0,1.4,0.6,1.4,1.4s-0.6,1.4-1.4,1.4c-0.7,0-1.4-0.6-1.4-1.4
		S629.6,270.1,630.4,270.1z M618.3,270.1c0.7,0,1.4,0.6,1.4,1.4s-0.6,1.4-1.4,1.4c-0.7,0-1.4-0.6-1.4-1.4
		C617,270.7,617.6,270.1,618.3,270.1z M606.2,270.1c0.7,0,1.4,0.6,1.4,1.4s-0.6,1.4-1.4,1.4c-0.7,0-1.4-0.6-1.4-1.4
		C604.9,270.7,605.5,270.1,606.2,270.1z M594.2,270.1c0.7,0,1.4,0.6,1.4,1.4s-0.6,1.4-1.4,1.4c-0.7,0-1.4-0.6-1.4-1.4
		C592.8,270.7,593.4,270.1,594.2,270.1z M582.1,270.1c0.7,0,1.4,0.6,1.4,1.4s-0.6,1.4-1.4,1.4s-1.4-0.6-1.4-1.4
		S581.4,270.1,582.1,270.1z M570.3,270.1c0.7,0,1.4,0.6,1.4,1.4s-0.6,1.4-1.4,1.4s-1.4-0.6-1.4-1.4S569.5,270.1,570.3,270.1z
		 M558.2,270.1c0.7,0,1.4,0.6,1.4,1.4s-0.6,1.4-1.4,1.4c-0.7,0-1.4-0.6-1.4-1.4S557.5,270.1,558.2,270.1z M546.2,270.1
		c0.7,0,1.4,0.6,1.4,1.4s-0.6,1.4-1.4,1.4c-0.7,0-1.4-0.6-1.4-1.4C544.8,270.7,545.4,270.1,546.2,270.1z M534.1,270.1
		c0.7,0,1.4,0.6,1.4,1.4s-0.6,1.4-1.4,1.4c-0.7,0-1.4-0.6-1.4-1.4S533.3,270.1,534.1,270.1z M522,270.1c0.7,0,1.4,0.6,1.4,1.4
		s-0.6,1.4-1.4,1.4c-0.7,0-1.4-0.6-1.4-1.4S521.3,270.1,522,270.1z M509.9,270.1c0.7,0,1.4,0.6,1.4,1.4s-0.6,1.4-1.4,1.4
		s-1.4-0.6-1.4-1.4S509.2,270.1,509.9,270.1z M497.9,270.1c0.7,0,1.4,0.6,1.4,1.4s-0.6,1.4-1.4,1.4c-0.7,0-1.4-0.6-1.4-1.4
		S497.1,270.1,497.9,270.1z M485.8,270.1c0.7,0,1.4,0.6,1.4,1.4s-0.6,1.4-1.4,1.4c-0.7,0-1.4-0.6-1.4-1.4S485.1,270.1,485.8,270.1z
		 M473.7,270.1c0.7,0,1.4,0.6,1.4,1.4s-0.6,1.4-1.4,1.4c-0.7,0-1.4-0.6-1.4-1.4S473,270.1,473.7,270.1z M678.7,258.9
		c0.7,0,1.4,0.6,1.4,1.4c0,0.7-0.6,1.4-1.4,1.4c-0.7,0-1.4-0.6-1.4-1.4C677.3,259.6,677.9,258.9,678.7,258.9z M666.6,258.9
		c0.7,0,1.4,0.6,1.4,1.4c0,0.7-0.6,1.4-1.4,1.4c-0.7,0-1.4-0.6-1.4-1.4C665.2,259.6,665.8,258.9,666.6,258.9z M654.5,258.9
		c0.7,0,1.4,0.6,1.4,1.4c0,0.7-0.6,1.4-1.4,1.4c-0.7,0-1.4-0.6-1.4-1.4C653.2,259.6,653.8,258.9,654.5,258.9z M642.4,258.9
		c0.7,0,1.4,0.6,1.4,1.4c0,0.7-0.6,1.4-1.4,1.4c-0.7,0-1.4-0.6-1.4-1.4C641.1,259.6,641.7,258.9,642.4,258.9z M630.4,258.9
		c0.7,0,1.4,0.6,1.4,1.4c0,0.7-0.6,1.4-1.4,1.4c-0.7,0-1.4-0.6-1.4-1.4C629,259.6,629.6,258.9,630.4,258.9z M618.3,258.9
		c0.7,0,1.4,0.6,1.4,1.4c0,0.7-0.6,1.4-1.4,1.4c-0.7,0-1.4-0.6-1.4-1.4C617,259.6,617.6,258.9,618.3,258.9z M606.2,258.9
		c0.7,0,1.4,0.6,1.4,1.4c0,0.7-0.6,1.4-1.4,1.4c-0.7,0-1.4-0.6-1.4-1.4C604.9,259.6,605.5,258.9,606.2,258.9z M594.2,258.9
		c0.7,0,1.4,0.6,1.4,1.4c0,0.7-0.6,1.4-1.4,1.4c-0.7,0-1.4-0.6-1.4-1.4C592.8,259.6,593.4,258.9,594.2,258.9z M582.1,258.9
		c0.7,0,1.4,0.6,1.4,1.4c0,0.7-0.6,1.4-1.4,1.4s-1.4-0.6-1.4-1.4C580.7,259.6,581.4,258.9,582.1,258.9z M570.3,258.9
		c0.7,0,1.4,0.6,1.4,1.4c0,0.7-0.6,1.4-1.4,1.4s-1.4-0.6-1.4-1.4C568.9,259.6,569.5,258.9,570.3,258.9z M558.2,258.9
		c0.7,0,1.4,0.6,1.4,1.4c0,0.7-0.6,1.4-1.4,1.4c-0.7,0-1.4-0.6-1.4-1.4C556.9,259.6,557.5,258.9,558.2,258.9z M546.2,258.9
		c0.7,0,1.4,0.6,1.4,1.4c0,0.7-0.6,1.4-1.4,1.4c-0.7,0-1.4-0.6-1.4-1.4C544.8,259.6,545.4,258.9,546.2,258.9z M534.1,258.9
		c0.7,0,1.4,0.6,1.4,1.4c0,0.7-0.6,1.4-1.4,1.4c-0.7,0-1.4-0.6-1.4-1.4C532.7,259.6,533.3,258.9,534.1,258.9z M522,258.9
		c0.7,0,1.4,0.6,1.4,1.4c0,0.7-0.6,1.4-1.4,1.4c-0.7,0-1.4-0.6-1.4-1.4C520.7,259.6,521.3,258.9,522,258.9z M509.9,258.9
		c0.7,0,1.4,0.6,1.4,1.4c0,0.7-0.6,1.4-1.4,1.4s-1.4-0.6-1.4-1.4C508.6,259.6,509.2,258.9,509.9,258.9z M497.9,258.9
		c0.7,0,1.4,0.6,1.4,1.4c0,0.7-0.6,1.4-1.4,1.4c-0.7,0-1.4-0.6-1.4-1.4C496.5,259.6,497.1,258.9,497.9,258.9z M485.8,258.9
		c0.7,0,1.4,0.6,1.4,1.4c0,0.7-0.6,1.4-1.4,1.4c-0.7,0-1.4-0.6-1.4-1.4C484.5,259.6,485.1,258.9,485.8,258.9z M473.7,258.9
		c0.7,0,1.4,0.6,1.4,1.4c0,0.7-0.6,1.4-1.4,1.4c-0.7,0-1.4-0.6-1.4-1.4C472.4,259.6,473,258.9,473.7,258.9z M678.7,246.8
		c0.7,0,1.4,0.6,1.4,1.4c0,0.8-0.6,1.4-1.4,1.4c-0.7,0-1.4-0.6-1.4-1.4C677.3,247.4,677.9,246.8,678.7,246.8z M666.6,246.8
		c0.7,0,1.4,0.6,1.4,1.4c0,0.8-0.6,1.4-1.4,1.4c-0.7,0-1.4-0.6-1.4-1.4C665.2,247.4,665.8,246.8,666.6,246.8z M654.5,246.8
		c0.7,0,1.4,0.6,1.4,1.4c0,0.8-0.6,1.4-1.4,1.4c-0.7,0-1.4-0.6-1.4-1.4C653.2,247.4,653.8,246.8,654.5,246.8z M642.4,246.8
		c0.7,0,1.4,0.6,1.4,1.4c0,0.8-0.6,1.4-1.4,1.4c-0.7,0-1.4-0.6-1.4-1.4C641.1,247.4,641.7,246.8,642.4,246.8z M630.4,246.8
		c0.7,0,1.4,0.6,1.4,1.4c0,0.8-0.6,1.4-1.4,1.4c-0.7,0-1.4-0.6-1.4-1.4C629,247.4,629.6,246.8,630.4,246.8z M618.3,246.8
		c0.7,0,1.4,0.6,1.4,1.4c0,0.8-0.6,1.4-1.4,1.4c-0.7,0-1.4-0.6-1.4-1.4C617,247.4,617.6,246.8,618.3,246.8z M606.2,246.8
		c0.7,0,1.4,0.6,1.4,1.4c0,0.8-0.6,1.4-1.4,1.4c-0.7,0-1.4-0.6-1.4-1.4C604.9,247.4,605.5,246.8,606.2,246.8z M594.2,246.8
		c0.7,0,1.4,0.6,1.4,1.4c0,0.8-0.6,1.4-1.4,1.4c-0.7,0-1.4-0.6-1.4-1.4C592.8,247.4,593.4,246.8,594.2,246.8z M582.1,246.8
		c0.7,0,1.4,0.6,1.4,1.4c0,0.8-0.6,1.4-1.4,1.4s-1.4-0.6-1.4-1.4C580.7,247.4,581.4,246.8,582.1,246.8z M570.3,246.8
		c0.7,0,1.4,0.6,1.4,1.4c0,0.8-0.6,1.4-1.4,1.4s-1.4-0.6-1.4-1.4C568.9,247.4,569.5,246.8,570.3,246.8z M558.2,246.8
		c0.7,0,1.4,0.6,1.4,1.4c0,0.8-0.6,1.4-1.4,1.4c-0.7,0-1.4-0.6-1.4-1.4C556.9,247.4,557.5,246.8,558.2,246.8z M546.2,246.8
		c0.7,0,1.4,0.6,1.4,1.4c0,0.8-0.6,1.4-1.4,1.4c-0.7,0-1.4-0.6-1.4-1.4C544.8,247.4,545.4,246.8,546.2,246.8z M534.1,246.8
		c0.7,0,1.4,0.6,1.4,1.4c0,0.8-0.6,1.4-1.4,1.4c-0.7,0-1.4-0.6-1.4-1.4C532.7,247.4,533.3,246.8,534.1,246.8z M522,246.8
		c0.7,0,1.4,0.6,1.4,1.4c0,0.8-0.6,1.4-1.4,1.4c-0.7,0-1.4-0.6-1.4-1.4C520.7,247.4,521.3,246.8,522,246.8z M509.9,246.8
		c0.7,0,1.4,0.6,1.4,1.4c0,0.8-0.6,1.4-1.4,1.4s-1.4-0.6-1.4-1.4C508.6,247.4,509.2,246.8,509.9,246.8z M497.9,246.8
		c0.7,0,1.4,0.6,1.4,1.4c0,0.8-0.6,1.4-1.4,1.4c-0.7,0-1.4-0.6-1.4-1.4C496.5,247.4,497.1,246.8,497.9,246.8z M485.8,246.8
		c0.7,0,1.4,0.6,1.4,1.4c0,0.8-0.6,1.4-1.4,1.4c-0.7,0-1.4-0.6-1.4-1.4C484.5,247.4,485.1,246.8,485.8,246.8z M473.7,246.8
		c0.7,0,1.4,0.6,1.4,1.4c0,0.8-0.6,1.4-1.4,1.4c-0.7,0-1.4-0.6-1.4-1.4C472.4,247.4,473,246.8,473.7,246.8z M582.1,234.7
		c0.7,0,1.4,0.6,1.4,1.4c0,0.8-0.6,1.4-1.4,1.4s-1.4-0.6-1.4-1.4C580.7,235.3,581.4,234.7,582.1,234.7z M594.2,234.7
		c0.7,0,1.4,0.6,1.4,1.4c0,0.8-0.6,1.4-1.4,1.4c-0.7,0-1.4-0.6-1.4-1.4C592.8,235.3,593.4,234.7,594.2,234.7z M606.2,234.7
		c0.7,0,1.4,0.6,1.4,1.4c0,0.8-0.6,1.4-1.4,1.4c-0.7,0-1.4-0.6-1.4-1.4C604.9,235.3,605.5,234.7,606.2,234.7z M618.3,234.7
		c0.7,0,1.4,0.6,1.4,1.4c0,0.8-0.6,1.4-1.4,1.4c-0.7,0-1.4-0.6-1.4-1.4C617,235.3,617.6,234.7,618.3,234.7z M630.4,234.7
		c0.7,0,1.4,0.6,1.4,1.4c0,0.8-0.6,1.4-1.4,1.4c-0.7,0-1.4-0.6-1.4-1.4C629,235.3,629.6,234.7,630.4,234.7z M642.4,234.7
		c0.7,0,1.4,0.6,1.4,1.4c0,0.8-0.6,1.4-1.4,1.4c-0.7,0-1.4-0.6-1.4-1.4C641.1,235.3,641.7,234.7,642.4,234.7z M654.5,234.7
		c0.7,0,1.4,0.6,1.4,1.4c0,0.8-0.6,1.4-1.4,1.4c-0.7,0-1.4-0.6-1.4-1.4C653.2,235.3,653.8,234.7,654.5,234.7z M666.6,234.7
		c0.7,0,1.4,0.6,1.4,1.4c0,0.8-0.6,1.4-1.4,1.4c-0.7,0-1.4-0.6-1.4-1.4C665.2,235.3,665.8,234.7,666.6,234.7z M678.7,234.7
		c0.7,0,1.4,0.6,1.4,1.4c0,0.8-0.6,1.4-1.4,1.4c-0.7,0-1.4-0.6-1.4-1.4C677.3,235.3,677.9,234.7,678.7,234.7z M473.7,234.7
		c0.7,0,1.4,0.6,1.4,1.4c0,0.8-0.6,1.4-1.4,1.4c-0.7,0-1.4-0.6-1.4-1.4C472.4,235.3,473,234.7,473.7,234.7z M485.8,234.7
		c0.7,0,1.4,0.6,1.4,1.4c0,0.8-0.6,1.4-1.4,1.4c-0.7,0-1.4-0.6-1.4-1.4C484.5,235.3,485.1,234.7,485.8,234.7z M497.9,234.7
		c0.7,0,1.4,0.6,1.4,1.4c0,0.8-0.6,1.4-1.4,1.4c-0.7,0-1.4-0.6-1.4-1.4C496.5,235.3,497.1,234.7,497.9,234.7z M509.9,234.7
		c0.7,0,1.4,0.6,1.4,1.4c0,0.8-0.6,1.4-1.4,1.4s-1.4-0.6-1.4-1.4C508.6,235.3,509.2,234.7,509.9,234.7z M522,234.7
		c0.7,0,1.4,0.6,1.4,1.4c0,0.8-0.6,1.4-1.4,1.4c-0.7,0-1.4-0.6-1.4-1.4C520.7,235.3,521.3,234.7,522,234.7z M534.1,234.7
		c0.7,0,1.4,0.6,1.4,1.4c0,0.8-0.6,1.4-1.4,1.4c-0.7,0-1.4-0.6-1.4-1.4C532.7,235.3,533.3,234.7,534.1,234.7z M546.2,234.7
		c0.7,0,1.4,0.6,1.4,1.4c0,0.8-0.6,1.4-1.4,1.4c-0.7,0-1.4-0.6-1.4-1.4C544.8,235.3,545.4,234.7,546.2,234.7z M558.2,234.7
		c0.7,0,1.4,0.6,1.4,1.4c0,0.8-0.6,1.4-1.4,1.4c-0.7,0-1.4-0.6-1.4-1.4C556.9,235.3,557.5,234.7,558.2,234.7z M570.3,234.7
		c0.7,0,1.4,0.6,1.4,1.4c0,0.8-0.6,1.4-1.4,1.4s-1.4-0.6-1.4-1.4C568.9,235.3,569.5,234.7,570.3,234.7z M582.1,222.6
		c0.7,0,1.4,0.6,1.4,1.4s-0.6,1.4-1.4,1.4s-1.4-0.6-1.4-1.4C580.7,223.2,581.4,222.6,582.1,222.6z M594.2,222.6
		c0.7,0,1.4,0.6,1.4,1.4s-0.6,1.4-1.4,1.4c-0.7,0-1.4-0.6-1.4-1.4C592.8,223.2,593.4,222.6,594.2,222.6z M606.2,222.6
		c0.7,0,1.4,0.6,1.4,1.4s-0.6,1.4-1.4,1.4c-0.7,0-1.4-0.6-1.4-1.4C604.9,223.2,605.5,222.6,606.2,222.6z M618.3,222.6
		c0.7,0,1.4,0.6,1.4,1.4s-0.6,1.4-1.4,1.4c-0.7,0-1.4-0.6-1.4-1.4C617,223.2,617.6,222.6,618.3,222.6z M630.4,222.6
		c0.7,0,1.4,0.6,1.4,1.4s-0.6,1.4-1.4,1.4c-0.7,0-1.4-0.6-1.4-1.4C629,223.2,629.6,222.6,630.4,222.6z M642.4,222.6
		c0.7,0,1.4,0.6,1.4,1.4s-0.6,1.4-1.4,1.4c-0.7,0-1.4-0.6-1.4-1.4C641.1,223.2,641.7,222.6,642.4,222.6z M654.5,222.6
		c0.7,0,1.4,0.6,1.4,1.4s-0.6,1.4-1.4,1.4c-0.7,0-1.4-0.6-1.4-1.4C653.2,223.2,653.8,222.6,654.5,222.6z M666.6,222.6
		c0.7,0,1.4,0.6,1.4,1.4s-0.6,1.4-1.4,1.4c-0.7,0-1.4-0.6-1.4-1.4C665.2,223.2,665.8,222.6,666.6,222.6z M678.7,222.6
		c0.7,0,1.4,0.6,1.4,1.4s-0.6,1.4-1.4,1.4c-0.7,0-1.4-0.6-1.4-1.4C677.3,223.2,677.9,222.6,678.7,222.6z M473.7,222.6
		c0.7,0,1.4,0.6,1.4,1.4s-0.6,1.4-1.4,1.4c-0.7,0-1.4-0.6-1.4-1.4C472.4,223.2,473,222.6,473.7,222.6z M485.8,222.6
		c0.7,0,1.4,0.6,1.4,1.4s-0.6,1.4-1.4,1.4c-0.7,0-1.4-0.6-1.4-1.4C484.5,223.2,485.1,222.6,485.8,222.6z M497.9,222.6
		c0.7,0,1.4,0.6,1.4,1.4c0,0.7-0.6,1.4-1.4,1.4c-0.7,0-1.4-0.6-1.4-1.4C496.5,223.2,497.1,222.6,497.9,222.6z M509.9,222.6
		c0.7,0,1.4,0.6,1.4,1.4c0,0.7-0.6,1.4-1.4,1.4s-1.4-0.6-1.4-1.4C508.6,223.2,509.2,222.6,509.9,222.6z M522,222.6
		c0.7,0,1.4,0.6,1.4,1.4c0,0.7-0.6,1.4-1.4,1.4c-0.7,0-1.4-0.6-1.4-1.4C520.7,223.2,521.3,222.6,522,222.6z M534.1,222.6
		c0.7,0,1.4,0.6,1.4,1.4c0,0.7-0.6,1.4-1.4,1.4c-0.7,0-1.4-0.6-1.4-1.4C532.7,223.2,533.3,222.6,534.1,222.6z M546.2,222.6
		c0.7,0,1.4,0.6,1.4,1.4c0,0.7-0.6,1.4-1.4,1.4c-0.7,0-1.4-0.6-1.4-1.4C544.8,223.2,545.4,222.6,546.2,222.6z M558.2,222.6
		c0.7,0,1.4,0.6,1.4,1.4c0,0.7-0.6,1.4-1.4,1.4c-0.7,0-1.4-0.6-1.4-1.4C556.9,223.2,557.5,222.6,558.2,222.6z M570.3,222.6
		c0.7,0,1.4,0.6,1.4,1.4c0,0.7-0.6,1.4-1.4,1.4s-1.4-0.6-1.4-1.4C568.9,223.2,569.5,222.6,570.3,222.6z M582.1,210.5
		c0.7,0,1.4,0.6,1.4,1.4c0,0.7-0.6,1.4-1.4,1.4s-1.4-0.6-1.4-1.4C580.7,211.1,581.4,210.5,582.1,210.5z M594.2,210.5
		c0.7,0,1.4,0.6,1.4,1.4c0,0.7-0.6,1.4-1.4,1.4c-0.7,0-1.4-0.6-1.4-1.4C592.8,211.1,593.4,210.5,594.2,210.5z M606.2,210.5
		c0.7,0,1.4,0.6,1.4,1.4c0,0.7-0.6,1.4-1.4,1.4c-0.7,0-1.4-0.6-1.4-1.4C604.9,211.1,605.5,210.5,606.2,210.5z M618.3,210.5
		c0.7,0,1.4,0.6,1.4,1.4c0,0.7-0.6,1.4-1.4,1.4c-0.7,0-1.4-0.6-1.4-1.4C617,211.1,617.6,210.5,618.3,210.5z M630.4,210.5
		c0.7,0,1.4,0.6,1.4,1.4c0,0.7-0.6,1.4-1.4,1.4c-0.7,0-1.4-0.6-1.4-1.4C629,211.1,629.6,210.5,630.4,210.5z M642.4,210.5
		c0.7,0,1.4,0.6,1.4,1.4c0,0.7-0.6,1.4-1.4,1.4c-0.7,0-1.4-0.6-1.4-1.4C641.1,211.1,641.7,210.5,642.4,210.5z M654.5,210.5
		c0.7,0,1.4,0.6,1.4,1.4c0,0.7-0.6,1.4-1.4,1.4c-0.7,0-1.4-0.6-1.4-1.4C653.2,211.1,653.8,210.5,654.5,210.5z M666.6,210.5
		c0.7,0,1.4,0.6,1.4,1.4c0,0.7-0.6,1.4-1.4,1.4c-0.7,0-1.4-0.6-1.4-1.4C665.2,211.1,665.8,210.5,666.6,210.5z M678.7,210.5
		c0.7,0,1.4,0.6,1.4,1.4c0,0.7-0.6,1.4-1.4,1.4c-0.7,0-1.4-0.6-1.4-1.4C677.3,211.1,677.9,210.5,678.7,210.5z M473.7,210.5
		c0.7,0,1.4,0.6,1.4,1.4c0,0.7-0.6,1.4-1.4,1.4c-0.7,0-1.4-0.6-1.4-1.4C472.4,211.1,473,210.5,473.7,210.5z M485.8,210.5
		c0.7,0,1.4,0.6,1.4,1.4c0,0.7-0.6,1.4-1.4,1.4c-0.7,0-1.4-0.6-1.4-1.4C484.5,211.1,485.1,210.5,485.8,210.5z M497.9,210.5
		c0.7,0,1.4,0.6,1.4,1.4c0,0.7-0.6,1.4-1.4,1.4c-0.7,0-1.4-0.6-1.4-1.4C496.5,211.1,497.1,210.5,497.9,210.5z M509.9,210.5
		c0.7,0,1.4,0.6,1.4,1.4c0,0.8-0.6,1.4-1.4,1.4s-1.4-0.6-1.4-1.4C508.6,211.1,509.2,210.5,509.9,210.5z M522,210.5
		c0.7,0,1.4,0.6,1.4,1.4c0,0.8-0.6,1.4-1.4,1.4c-0.7,0-1.4-0.6-1.4-1.4C520.7,211.1,521.3,210.5,522,210.5z M534.1,210.5
		c0.7,0,1.4,0.6,1.4,1.4c0,0.8-0.6,1.4-1.4,1.4c-0.7,0-1.4-0.6-1.4-1.4C532.7,211.1,533.3,210.5,534.1,210.5z M546.2,210.5
		c0.7,0,1.4,0.6,1.4,1.4c0,0.8-0.6,1.4-1.4,1.4c-0.7,0-1.4-0.6-1.4-1.4C544.8,211.1,545.4,210.5,546.2,210.5z M558.2,210.5
		c0.7,0,1.4,0.6,1.4,1.4c0,0.8-0.6,1.4-1.4,1.4c-0.7,0-1.4-0.6-1.4-1.4C556.9,211.1,557.5,210.5,558.2,210.5z M570.3,210.5
		c0.7,0,1.4,0.6,1.4,1.4c0,0.8-0.6,1.4-1.4,1.4s-1.4-0.6-1.4-1.4C568.9,211.1,569.5,210.5,570.3,210.5z M582.1,198.4
		c0.7,0,1.4,0.6,1.4,1.4c0,0.8-0.6,1.4-1.4,1.4s-1.4-0.6-1.4-1.4S581.4,198.4,582.1,198.4z M594.2,198.4c0.7,0,1.4,0.6,1.4,1.4
		c0,0.8-0.6,1.4-1.4,1.4c-0.7,0-1.4-0.6-1.4-1.4C592.8,199,593.4,198.4,594.2,198.4z M606.2,198.4c0.7,0,1.4,0.6,1.4,1.4
		c0,0.8-0.6,1.4-1.4,1.4c-0.7,0-1.4-0.6-1.4-1.4C604.9,199,605.5,198.4,606.2,198.4z M618.3,198.4c0.7,0,1.4,0.6,1.4,1.4
		c0,0.8-0.6,1.4-1.4,1.4c-0.7,0-1.4-0.6-1.4-1.4C617,199,617.6,198.4,618.3,198.4z M630.4,198.4c0.7,0,1.4,0.6,1.4,1.4
		c0,0.8-0.6,1.4-1.4,1.4c-0.7,0-1.4-0.6-1.4-1.4S629.6,198.4,630.4,198.4z M642.4,198.4c0.7,0,1.4,0.6,1.4,1.4
		c0,0.8-0.6,1.4-1.4,1.4c-0.7,0-1.4-0.6-1.4-1.4S641.7,198.4,642.4,198.4z M654.5,198.4c0.7,0,1.4,0.6,1.4,1.4
		c0,0.8-0.6,1.4-1.4,1.4c-0.7,0-1.4-0.6-1.4-1.4S653.8,198.4,654.5,198.4z M666.6,198.4c0.7,0,1.4,0.6,1.4,1.4
		c0,0.8-0.6,1.4-1.4,1.4c-0.7,0-1.4-0.6-1.4-1.4S665.8,198.4,666.6,198.4z M678.7,198.4c0.7,0,1.4,0.6,1.4,1.4
		c0,0.8-0.6,1.4-1.4,1.4c-0.7,0-1.4-0.6-1.4-1.4C677.3,199,677.9,198.4,678.7,198.4z M473.7,198.4c0.7,0,1.4,0.6,1.4,1.4
		c0,0.8-0.6,1.4-1.4,1.4c-0.7,0-1.4-0.6-1.4-1.4S473,198.4,473.7,198.4z M485.8,198.4c0.7,0,1.4,0.6,1.4,1.4c0,0.8-0.6,1.4-1.4,1.4
		c-0.7,0-1.4-0.6-1.4-1.4S485.1,198.4,485.8,198.4z M497.9,198.4c0.7,0,1.4,0.6,1.4,1.4s-0.6,1.4-1.4,1.4c-0.7,0-1.4-0.6-1.4-1.4
		S497.1,198.4,497.9,198.4z M509.9,198.4c0.7,0,1.4,0.6,1.4,1.4s-0.6,1.4-1.4,1.4s-1.4-0.6-1.4-1.4S509.2,198.4,509.9,198.4z
		 M522,198.4c0.7,0,1.4,0.6,1.4,1.4s-0.6,1.4-1.4,1.4c-0.7,0-1.4-0.6-1.4-1.4S521.3,198.4,522,198.4z M534.1,198.4
		c0.7,0,1.4,0.6,1.4,1.4s-0.6,1.4-1.4,1.4c-0.7,0-1.4-0.6-1.4-1.4S533.3,198.4,534.1,198.4z M546.2,198.4c0.7,0,1.4,0.6,1.4,1.4
		s-0.6,1.4-1.4,1.4c-0.7,0-1.4-0.6-1.4-1.4S545.4,198.4,546.2,198.4z M558.2,198.4c0.7,0,1.4,0.6,1.4,1.4s-0.6,1.4-1.4,1.4
		c-0.7,0-1.4-0.6-1.4-1.4S557.5,198.4,558.2,198.4z M570.3,198.4c0.7,0,1.4,0.6,1.4,1.4s-0.6,1.4-1.4,1.4s-1.4-0.6-1.4-1.4
		S569.5,198.4,570.3,198.4z M570.3,186.3c0.7,0,1.4,0.6,1.4,1.4s-0.6,1.4-1.4,1.4s-1.4-0.6-1.4-1.4
		C568.9,186.9,569.5,186.3,570.3,186.3z M582.1,186.3c0.7,0,1.4,0.6,1.4,1.4s-0.6,1.4-1.4,1.4s-1.4-0.6-1.4-1.4
		C580.7,186.9,581.4,186.3,582.1,186.3z M594.2,186.3c0.7,0,1.4,0.6,1.4,1.4s-0.6,1.4-1.4,1.4c-0.7,0-1.4-0.6-1.4-1.4
		C592.8,186.9,593.4,186.3,594.2,186.3z M606.2,186.3c0.7,0,1.4,0.6,1.4,1.4s-0.6,1.4-1.4,1.4c-0.7,0-1.4-0.6-1.4-1.4
		C604.9,186.9,605.5,186.3,606.2,186.3z M618.3,186.3c0.7,0,1.4,0.6,1.4,1.4s-0.6,1.4-1.4,1.4c-0.7,0-1.4-0.6-1.4-1.4
		C617,186.9,617.6,186.3,618.3,186.3z M630.4,186.3c0.7,0,1.4,0.6,1.4,1.4s-0.6,1.4-1.4,1.4c-0.7,0-1.4-0.6-1.4-1.4
		C629,186.9,629.6,186.3,630.4,186.3z M642.4,186.3c0.7,0,1.4,0.6,1.4,1.4s-0.6,1.4-1.4,1.4c-0.7,0-1.4-0.6-1.4-1.4
		C641.1,186.9,641.7,186.3,642.4,186.3z M654.5,186.3c0.7,0,1.4,0.6,1.4,1.4s-0.6,1.4-1.4,1.4c-0.7,0-1.4-0.6-1.4-1.4
		C653.2,186.9,653.8,186.3,654.5,186.3z M666.6,186.3c0.7,0,1.4,0.6,1.4,1.4s-0.6,1.4-1.4,1.4c-0.7,0-1.4-0.6-1.4-1.4
		C665.2,186.9,665.8,186.3,666.6,186.3z M678.7,186.3c0.7,0,1.4,0.6,1.4,1.4s-0.6,1.4-1.4,1.4c-0.7,0-1.4-0.6-1.4-1.4
		C677.3,186.9,677.9,186.3,678.7,186.3z M473.7,186.3c0.7,0,1.4,0.6,1.4,1.4s-0.6,1.4-1.4,1.4c-0.7,0-1.4-0.6-1.4-1.4
		C472.4,186.9,473,186.3,473.7,186.3z M485.8,186.3c0.7,0,1.4,0.6,1.4,1.4s-0.6,1.4-1.4,1.4c-0.7,0-1.4-0.6-1.4-1.4
		C484.5,186.9,485.1,186.3,485.8,186.3z M497.9,186.3c0.7,0,1.4,0.6,1.4,1.4s-0.6,1.4-1.4,1.4c-0.7,0-1.4-0.6-1.4-1.4
		C496.5,186.9,497.1,186.3,497.9,186.3z M509.9,186.3c0.7,0,1.4,0.6,1.4,1.4s-0.6,1.4-1.4,1.4s-1.4-0.6-1.4-1.4
		C508.6,186.9,509.2,186.3,509.9,186.3z M522,186.3c0.7,0,1.4,0.6,1.4,1.4c0,0.7-0.6,1.4-1.4,1.4c-0.7,0-1.4-0.6-1.4-1.4
		C520.7,186.9,521.3,186.3,522,186.3z M534.1,186.3c0.7,0,1.4,0.6,1.4,1.4c0,0.7-0.6,1.4-1.4,1.4c-0.7,0-1.4-0.6-1.4-1.4
		C532.7,186.9,533.3,186.3,534.1,186.3z M546.2,186.3c0.7,0,1.4,0.6,1.4,1.4c0,0.7-0.6,1.4-1.4,1.4c-0.7,0-1.4-0.6-1.4-1.4
		C544.8,186.9,545.4,186.3,546.2,186.3z M558.2,186.3c0.7,0,1.4,0.6,1.4,1.4c0,0.7-0.6,1.4-1.4,1.4c-0.7,0-1.4-0.6-1.4-1.4
		C556.9,186.9,557.5,186.3,558.2,186.3z M582.1,174.2c0.7,0,1.4,0.6,1.4,1.4c0,0.7-0.6,1.4-1.4,1.4s-1.4-0.6-1.4-1.4
		C580.7,174.8,581.4,174.2,582.1,174.2z M594.2,174.2c0.7,0,1.4,0.6,1.4,1.4c0,0.7-0.6,1.4-1.4,1.4c-0.7,0-1.4-0.6-1.4-1.4
		C592.8,174.8,593.4,174.2,594.2,174.2z M606.2,174.2c0.7,0,1.4,0.6,1.4,1.4c0,0.7-0.6,1.4-1.4,1.4c-0.7,0-1.4-0.6-1.4-1.4
		C604.9,174.8,605.5,174.2,606.2,174.2z M618.3,174.2c0.7,0,1.4,0.6,1.4,1.4c0,0.7-0.6,1.4-1.4,1.4c-0.7,0-1.4-0.6-1.4-1.4
		C617,174.8,617.6,174.2,618.3,174.2z M630.4,174.2c0.7,0,1.4,0.6,1.4,1.4c0,0.7-0.6,1.4-1.4,1.4c-0.7,0-1.4-0.6-1.4-1.4
		C629,174.8,629.6,174.2,630.4,174.2z M642.4,174.2c0.7,0,1.4,0.6,1.4,1.4c0,0.7-0.6,1.4-1.4,1.4c-0.7,0-1.4-0.6-1.4-1.4
		C641.1,174.8,641.7,174.2,642.4,174.2z M654.5,174.2c0.7,0,1.4,0.6,1.4,1.4c0,0.7-0.6,1.4-1.4,1.4c-0.7,0-1.4-0.6-1.4-1.4
		C653.2,174.8,653.8,174.2,654.5,174.2z M666.6,174.2c0.7,0,1.4,0.6,1.4,1.4c0,0.7-0.6,1.4-1.4,1.4c-0.7,0-1.4-0.6-1.4-1.4
		C665.2,174.8,665.8,174.2,666.6,174.2z M678.7,174.2c0.7,0,1.4,0.6,1.4,1.4c0,0.7-0.6,1.4-1.4,1.4c-0.7,0-1.4-0.6-1.4-1.4
		C677.3,174.8,677.9,174.2,678.7,174.2z M473.7,174.2c0.7,0,1.4,0.6,1.4,1.4c0,0.7-0.6,1.4-1.4,1.4c-0.7,0-1.4-0.6-1.4-1.4
		C472.4,174.8,473,174.2,473.7,174.2z M485.8,174.2c0.7,0,1.4,0.6,1.4,1.4c0,0.7-0.6,1.4-1.4,1.4c-0.7,0-1.4-0.6-1.4-1.4
		C484.5,174.8,485.1,174.2,485.8,174.2z M497.9,174.2c0.7,0,1.4,0.6,1.4,1.4c0,0.7-0.6,1.4-1.4,1.4c-0.7,0-1.4-0.6-1.4-1.4
		C496.5,174.8,497.1,174.2,497.9,174.2z M509.9,174.2c0.7,0,1.4,0.6,1.4,1.4c0,0.8-0.6,1.4-1.4,1.4s-1.4-0.6-1.4-1.4
		C508.6,174.8,509.2,174.2,509.9,174.2z M522,174.2c0.7,0,1.4,0.6,1.4,1.4c0,0.8-0.6,1.4-1.4,1.4c-0.7,0-1.4-0.6-1.4-1.4
		C520.7,174.8,521.3,174.2,522,174.2z M534.1,174.2c0.7,0,1.4,0.6,1.4,1.4c0,0.8-0.6,1.4-1.4,1.4c-0.7,0-1.4-0.6-1.4-1.4
		C532.7,174.8,533.3,174.2,534.1,174.2z M546.2,174.2c0.7,0,1.4,0.6,1.4,1.4c0,0.8-0.6,1.4-1.4,1.4c-0.7,0-1.4-0.6-1.4-1.4
		C544.8,174.8,545.4,174.2,546.2,174.2z M558.2,174.2c0.7,0,1.4,0.6,1.4,1.4c0,0.8-0.6,1.4-1.4,1.4c-0.7,0-1.4-0.6-1.4-1.4
		C556.9,174.8,557.5,174.2,558.2,174.2z M570.3,174.2c0.7,0,1.4,0.6,1.4,1.4c0,0.8-0.6,1.4-1.4,1.4s-1.4-0.6-1.4-1.4
		C568.9,174.8,569.5,174.2,570.3,174.2z M582.1,162.1c0.7,0,1.4,0.6,1.4,1.4c0,0.8-0.6,1.4-1.4,1.4s-1.4-0.6-1.4-1.4
		C580.7,162.7,581.4,162.1,582.1,162.1z M594.2,162.1c0.7,0,1.4,0.6,1.4,1.4c0,0.8-0.6,1.4-1.4,1.4c-0.7,0-1.4-0.6-1.4-1.4
		C592.8,162.7,593.4,162.1,594.2,162.1z M606.2,162.1c0.7,0,1.4,0.6,1.4,1.4c0,0.8-0.6,1.4-1.4,1.4c-0.7,0-1.4-0.6-1.4-1.4
		C604.9,162.7,605.5,162.1,606.2,162.1z M618.3,162.1c0.7,0,1.4,0.6,1.4,1.4c0,0.8-0.6,1.4-1.4,1.4c-0.7,0-1.4-0.6-1.4-1.4
		C617,162.7,617.6,162.1,618.3,162.1z M630.4,162.1c0.7,0,1.4,0.6,1.4,1.4c0,0.8-0.6,1.4-1.4,1.4c-0.7,0-1.4-0.6-1.4-1.4
		C629,162.7,629.6,162.1,630.4,162.1z M642.4,162.1c0.7,0,1.4,0.6,1.4,1.4c0,0.8-0.6,1.4-1.4,1.4c-0.7,0-1.4-0.6-1.4-1.4
		C641.1,162.7,641.7,162.1,642.4,162.1z M654.5,162.1c0.7,0,1.4,0.6,1.4,1.4c0,0.8-0.6,1.4-1.4,1.4c-0.7,0-1.4-0.6-1.4-1.4
		C653.2,162.7,653.8,162.1,654.5,162.1z M666.6,162.1c0.7,0,1.4,0.6,1.4,1.4c0,0.8-0.6,1.4-1.4,1.4c-0.7,0-1.4-0.6-1.4-1.4
		C665.2,162.7,665.8,162.1,666.6,162.1z M678.7,162.1c0.7,0,1.4,0.6,1.4,1.4c0,0.8-0.6,1.4-1.4,1.4c-0.7,0-1.4-0.6-1.4-1.4
		C677.3,162.7,677.9,162.1,678.7,162.1z M473.7,162.1c0.7,0,1.4,0.6,1.4,1.4c0,0.8-0.6,1.4-1.4,1.4c-0.7,0-1.4-0.6-1.4-1.4
		C472.4,162.7,473,162.1,473.7,162.1z M485.8,162.1c0.7,0,1.4,0.6,1.4,1.4s-0.6,1.4-1.4,1.4c-0.7,0-1.4-0.6-1.4-1.4
		S485.1,162.1,485.8,162.1z M497.9,162.1c0.7,0,1.4,0.6,1.4,1.4s-0.6,1.4-1.4,1.4c-0.7,0-1.4-0.6-1.4-1.4S497.1,162.1,497.9,162.1z
		 M509.9,162.1c0.7,0,1.4,0.6,1.4,1.4s-0.6,1.4-1.4,1.4s-1.4-0.6-1.4-1.4S509.2,162.1,509.9,162.1z M522,162.1
		c0.7,0,1.4,0.6,1.4,1.4s-0.6,1.4-1.4,1.4c-0.7,0-1.4-0.6-1.4-1.4S521.3,162.1,522,162.1z M534.1,162.1c0.7,0,1.4,0.6,1.4,1.4
		s-0.6,1.4-1.4,1.4c-0.7,0-1.4-0.6-1.4-1.4S533.3,162.1,534.1,162.1z M546.2,162.1c0.7,0,1.4,0.6,1.4,1.4s-0.6,1.4-1.4,1.4
		c-0.7,0-1.4-0.6-1.4-1.4S545.4,162.1,546.2,162.1z M558.2,162.1c0.7,0,1.4,0.6,1.4,1.4s-0.6,1.4-1.4,1.4c-0.7,0-1.4-0.6-1.4-1.4
		S557.5,162.1,558.2,162.1z M570.3,162.1c0.7,0,1.4,0.6,1.4,1.4s-0.6,1.4-1.4,1.4s-1.4-0.6-1.4-1.4S569.5,162.1,570.3,162.1z"/>
	<path class="st18" d="M326.4,634.9c0.7,0,1.4,0.6,1.4,1.4c0,0.7-0.6,1.4-1.4,1.4c-0.7,0-1.4-0.6-1.4-1.4
		C325,635.5,325.6,634.9,326.4,634.9z M314.3,634.9c0.7,0,1.4,0.6,1.4,1.4c0,0.7-0.6,1.4-1.4,1.4s-1.4-0.6-1.4-1.4
		C312.9,635.5,313.5,634.9,314.3,634.9z M302.2,634.9c0.7,0,1.4,0.6,1.4,1.4c0,0.7-0.6,1.4-1.4,1.4s-1.4-0.6-1.4-1.4
		C300.9,635.5,301.5,634.9,302.2,634.9z M290.2,634.9c0.7,0,1.4,0.6,1.4,1.4c0,0.7-0.6,1.4-1.4,1.4s-1.4-0.6-1.4-1.4
		C288.8,635.5,289.4,634.9,290.2,634.9z M278.1,634.9c0.7,0,1.4,0.6,1.4,1.4c0,0.7-0.6,1.4-1.4,1.4c-0.7,0-1.4-0.6-1.4-1.4
		C276.7,635.5,277.3,634.9,278.1,634.9z M266,634.9c0.7,0,1.4,0.6,1.4,1.4c0,0.7-0.6,1.4-1.4,1.4c-0.7,0-1.4-0.6-1.4-1.4
		C264.7,635.5,265.3,634.9,266,634.9z M254,634.9c0.7,0,1.4,0.6,1.4,1.4c0,0.7-0.6,1.4-1.4,1.4c-0.7,0-1.4-0.6-1.4-1.4
		C252.6,635.5,253.2,634.9,254,634.9z M241.9,634.9c0.7,0,1.4,0.6,1.4,1.4c0,0.7-0.6,1.4-1.4,1.4c-0.7,0-1.4-0.6-1.4-1.4
		C240.5,635.5,241.1,634.9,241.9,634.9z M229.8,634.9c0.7,0,1.4,0.6,1.4,1.4c0,0.7-0.6,1.4-1.4,1.4c-0.7,0-1.4-0.6-1.4-1.4
		C228.5,635.5,229.1,634.9,229.8,634.9z M218,634.9c0.7,0,1.4,0.6,1.4,1.4c0,0.7-0.6,1.4-1.4,1.4c-0.7,0-1.4-0.6-1.4-1.4
		C216.6,635.5,217.3,634.9,218,634.9z M205.9,634.9c0.7,0,1.4,0.6,1.4,1.4c0,0.7-0.6,1.4-1.4,1.4c-0.7,0-1.4-0.6-1.4-1.4
		C204.6,635.5,205.2,634.9,205.9,634.9z M193.9,634.9c0.7,0,1.4,0.6,1.4,1.4c0,0.7-0.6,1.4-1.4,1.4c-0.7,0-1.4-0.6-1.4-1.4
		C192.5,635.5,193.1,634.9,193.9,634.9z M181.8,634.9c0.7,0,1.4,0.6,1.4,1.4c0,0.7-0.6,1.4-1.4,1.4c-0.7,0-1.4-0.6-1.4-1.4
		C180.4,635.5,181,634.9,181.8,634.9z M169.7,634.9c0.7,0,1.4,0.6,1.4,1.4c0,0.7-0.6,1.4-1.4,1.4c-0.7,0-1.4-0.6-1.4-1.4
		C168.4,635.5,169,634.9,169.7,634.9z M157.7,634.9c0.7,0,1.4,0.6,1.4,1.4c0,0.7-0.6,1.4-1.4,1.4c-0.7,0-1.4-0.6-1.4-1.4
		C156.3,635.5,156.9,634.9,157.7,634.9z M145.6,634.9c0.7,0,1.4,0.6,1.4,1.4c0,0.7-0.6,1.4-1.4,1.4c-0.7,0-1.4-0.6-1.4-1.4
		C144.2,635.5,144.8,634.9,145.6,634.9z M133.5,634.9c0.7,0,1.4,0.6,1.4,1.4c0,0.7-0.6,1.4-1.4,1.4s-1.4-0.6-1.4-1.4
		C132.2,635.5,132.8,634.9,133.5,634.9z M121.5,634.9c0.7,0,1.4,0.6,1.4,1.4c0,0.7-0.6,1.4-1.4,1.4s-1.4-0.6-1.4-1.4
		C120.1,635.5,120.7,634.9,121.5,634.9z M326.4,622.9c0.7,0,1.4,0.6,1.4,1.4c0,0.7-0.6,1.4-1.4,1.4c-0.7,0-1.4-0.6-1.4-1.4
		C325,623.5,325.6,622.9,326.4,622.9z M314.3,622.9c0.7,0,1.4,0.6,1.4,1.4c0,0.7-0.6,1.4-1.4,1.4s-1.4-0.6-1.4-1.4
		C312.9,623.5,313.5,622.9,314.3,622.9z M302.2,622.9c0.7,0,1.4,0.6,1.4,1.4c0,0.7-0.6,1.4-1.4,1.4s-1.4-0.6-1.4-1.4
		C300.9,623.5,301.5,622.9,302.2,622.9z M290.2,622.9c0.7,0,1.4,0.6,1.4,1.4c0,0.7-0.6,1.4-1.4,1.4s-1.4-0.6-1.4-1.4
		C288.8,623.5,289.4,622.9,290.2,622.9z M278.1,622.9c0.7,0,1.4,0.6,1.4,1.4c0,0.7-0.6,1.4-1.4,1.4c-0.7,0-1.4-0.6-1.4-1.4
		C276.7,623.5,277.3,622.9,278.1,622.9z M266,622.9c0.7,0,1.4,0.6,1.4,1.4c0,0.7-0.6,1.4-1.4,1.4c-0.7,0-1.4-0.6-1.4-1.4
		C264.7,623.5,265.3,622.9,266,622.9z M254,622.9c0.7,0,1.4,0.6,1.4,1.4c0,0.7-0.6,1.4-1.4,1.4c-0.7,0-1.4-0.6-1.4-1.4
		C252.6,623.5,253.2,622.9,254,622.9z M241.9,622.9c0.7,0,1.4,0.6,1.4,1.4c0,0.7-0.6,1.4-1.4,1.4c-0.7,0-1.4-0.6-1.4-1.4
		C240.5,623.5,241.1,622.9,241.9,622.9z M229.8,622.9c0.7,0,1.4,0.6,1.4,1.4c0,0.7-0.6,1.4-1.4,1.4c-0.7,0-1.4-0.6-1.4-1.4
		C228.5,623.5,229.1,622.9,229.8,622.9z M218,622.9c0.7,0,1.4,0.6,1.4,1.4c0,0.7-0.6,1.4-1.4,1.4c-0.7,0-1.4-0.6-1.4-1.4
		C216.6,623.5,217.3,622.9,218,622.9z M205.9,622.9c0.7,0,1.4,0.6,1.4,1.4c0,0.7-0.6,1.4-1.4,1.4c-0.7,0-1.4-0.6-1.4-1.4
		C204.6,623.5,205.2,622.9,205.9,622.9z M193.9,622.9c0.7,0,1.4,0.6,1.4,1.4c0,0.7-0.6,1.4-1.4,1.4c-0.7,0-1.4-0.6-1.4-1.4
		C192.5,623.5,193.1,622.9,193.9,622.9z M181.8,622.9c0.7,0,1.4,0.6,1.4,1.4c0,0.7-0.6,1.4-1.4,1.4c-0.7,0-1.4-0.6-1.4-1.4
		C180.4,623.5,181,622.9,181.8,622.9z M169.7,622.9c0.7,0,1.4,0.6,1.4,1.4c0,0.7-0.6,1.4-1.4,1.4c-0.7,0-1.4-0.6-1.4-1.4
		C168.4,623.5,169,622.9,169.7,622.9z M157.7,622.9c0.7,0,1.4,0.6,1.4,1.4c0,0.7-0.6,1.4-1.4,1.4c-0.7,0-1.4-0.6-1.4-1.4
		C156.3,623.5,156.9,622.9,157.7,622.9z M145.6,622.9c0.7,0,1.4,0.6,1.4,1.4c0,0.7-0.6,1.4-1.4,1.4c-0.7,0-1.4-0.6-1.4-1.4
		C144.2,623.5,144.8,622.9,145.6,622.9z M133.5,622.9c0.7,0,1.4,0.6,1.4,1.4c0,0.7-0.6,1.4-1.4,1.4s-1.4-0.6-1.4-1.4
		C132.2,623.5,132.8,622.9,133.5,622.9z M121.5,622.9c0.7,0,1.4,0.6,1.4,1.4c0,0.7-0.6,1.4-1.4,1.4s-1.4-0.6-1.4-1.4
		C120.1,623.5,120.7,622.9,121.5,622.9z M326.4,610.8c0.7,0,1.4,0.6,1.4,1.4c0,0.7-0.6,1.4-1.4,1.4c-0.7,0-1.4-0.6-1.4-1.4
		C325,611.4,325.6,610.8,326.4,610.8z M314.3,610.8c0.7,0,1.4,0.6,1.4,1.4c0,0.7-0.6,1.4-1.4,1.4s-1.4-0.6-1.4-1.4
		C312.9,611.4,313.5,610.8,314.3,610.8z M302.2,610.8c0.7,0,1.4,0.6,1.4,1.4c0,0.7-0.6,1.4-1.4,1.4s-1.4-0.6-1.4-1.4
		C300.9,611.4,301.5,610.8,302.2,610.8z M290.2,610.8c0.7,0,1.4,0.6,1.4,1.4c0,0.7-0.6,1.4-1.4,1.4s-1.4-0.6-1.4-1.4
		C288.8,611.4,289.4,610.8,290.2,610.8z M278.1,610.8c0.7,0,1.4,0.6,1.4,1.4c0,0.7-0.6,1.4-1.4,1.4c-0.7,0-1.4-0.6-1.4-1.4
		C276.7,611.4,277.3,610.8,278.1,610.8z M266,610.8c0.7,0,1.4,0.6,1.4,1.4c0,0.7-0.6,1.4-1.4,1.4c-0.7,0-1.4-0.6-1.4-1.4
		C264.7,611.4,265.3,610.8,266,610.8z M254,610.8c0.7,0,1.4,0.6,1.4,1.4c0,0.7-0.6,1.4-1.4,1.4c-0.7,0-1.4-0.6-1.4-1.4
		C252.6,611.4,253.2,610.8,254,610.8z M241.9,610.8c0.7,0,1.4,0.6,1.4,1.4c0,0.7-0.6,1.4-1.4,1.4c-0.7,0-1.4-0.6-1.4-1.4
		C240.5,611.4,241.1,610.8,241.9,610.8z M229.8,610.8c0.7,0,1.4,0.6,1.4,1.4c0,0.7-0.6,1.4-1.4,1.4c-0.7,0-1.4-0.6-1.4-1.4
		C228.5,611.4,229.1,610.8,229.8,610.8z M218,610.8c0.7,0,1.4,0.6,1.4,1.4c0,0.7-0.6,1.4-1.4,1.4c-0.7,0-1.4-0.6-1.4-1.4
		C216.6,611.4,217.3,610.8,218,610.8z M205.9,610.8c0.7,0,1.4,0.6,1.4,1.4c0,0.7-0.6,1.4-1.4,1.4c-0.7,0-1.4-0.6-1.4-1.4
		C204.6,611.4,205.2,610.8,205.9,610.8z M193.9,610.8c0.7,0,1.4,0.6,1.4,1.4c0,0.7-0.6,1.4-1.4,1.4c-0.7,0-1.4-0.6-1.4-1.4
		C192.5,611.4,193.1,610.8,193.9,610.8z M181.8,610.8c0.7,0,1.4,0.6,1.4,1.4c0,0.7-0.6,1.4-1.4,1.4c-0.7,0-1.4-0.6-1.4-1.4
		C180.4,611.4,181,610.8,181.8,610.8z M169.7,610.8c0.7,0,1.4,0.6,1.4,1.4c0,0.7-0.6,1.4-1.4,1.4c-0.7,0-1.4-0.6-1.4-1.4
		C168.4,611.4,169,610.8,169.7,610.8z M157.7,610.8c0.7,0,1.4,0.6,1.4,1.4c0,0.7-0.6,1.4-1.4,1.4c-0.7,0-1.4-0.6-1.4-1.4
		C156.3,611.4,156.9,610.8,157.7,610.8z M145.6,610.8c0.7,0,1.4,0.6,1.4,1.4c0,0.7-0.6,1.4-1.4,1.4c-0.7,0-1.4-0.6-1.4-1.4
		C144.2,611.4,144.8,610.8,145.6,610.8z M133.5,610.8c0.7,0,1.4,0.6,1.4,1.4c0,0.7-0.6,1.4-1.4,1.4s-1.4-0.6-1.4-1.4
		C132.2,611.4,132.8,610.8,133.5,610.8z M121.5,610.8c0.7,0,1.4,0.6,1.4,1.4c0,0.7-0.6,1.4-1.4,1.4s-1.4-0.6-1.4-1.4
		C120.1,611.4,120.7,610.8,121.5,610.8z M326.4,598.8c0.7,0,1.4,0.6,1.4,1.4c0,0.7-0.6,1.4-1.4,1.4c-0.7,0-1.4-0.6-1.4-1.4
		C325,599.4,325.6,598.8,326.4,598.8z M314.3,598.8c0.7,0,1.4,0.6,1.4,1.4c0,0.7-0.6,1.4-1.4,1.4s-1.4-0.6-1.4-1.4
		C312.9,599.4,313.5,598.8,314.3,598.8z M302.2,598.8c0.7,0,1.4,0.6,1.4,1.4c0,0.7-0.6,1.4-1.4,1.4s-1.4-0.6-1.4-1.4
		C300.9,599.4,301.5,598.8,302.2,598.8z M290.2,598.8c0.7,0,1.4,0.6,1.4,1.4c0,0.7-0.6,1.4-1.4,1.4s-1.4-0.6-1.4-1.4
		C288.8,599.4,289.4,598.8,290.2,598.8z M278.1,598.8c0.7,0,1.4,0.6,1.4,1.4c0,0.7-0.6,1.4-1.4,1.4c-0.7,0-1.4-0.6-1.4-1.4
		C276.7,599.4,277.3,598.8,278.1,598.8z M266,598.8c0.7,0,1.4,0.6,1.4,1.4c0,0.7-0.6,1.4-1.4,1.4c-0.7,0-1.4-0.6-1.4-1.4
		C264.7,599.4,265.3,598.8,266,598.8z M254,598.8c0.7,0,1.4,0.6,1.4,1.4c0,0.7-0.6,1.4-1.4,1.4c-0.7,0-1.4-0.6-1.4-1.4
		C252.6,599.4,253.2,598.8,254,598.8z M241.9,598.8c0.7,0,1.4,0.6,1.4,1.4c0,0.7-0.6,1.4-1.4,1.4c-0.7,0-1.4-0.6-1.4-1.4
		C240.5,599.4,241.1,598.8,241.9,598.8z M229.8,598.8c0.7,0,1.4,0.6,1.4,1.4c0,0.7-0.6,1.4-1.4,1.4c-0.7,0-1.4-0.6-1.4-1.4
		C228.5,599.4,229.1,598.8,229.8,598.8z M218,598.8c0.7,0,1.4,0.6,1.4,1.4c0,0.7-0.6,1.4-1.4,1.4c-0.7,0-1.4-0.6-1.4-1.4
		C216.6,599.4,217.3,598.8,218,598.8z M205.9,598.8c0.7,0,1.4,0.6,1.4,1.4c0,0.7-0.6,1.4-1.4,1.4c-0.7,0-1.4-0.6-1.4-1.4
		C204.6,599.4,205.2,598.8,205.9,598.8z M193.9,598.8c0.7,0,1.4,0.6,1.4,1.4c0,0.7-0.6,1.4-1.4,1.4c-0.7,0-1.4-0.6-1.4-1.4
		C192.5,599.4,193.1,598.8,193.9,598.8z M181.8,598.8c0.7,0,1.4,0.6,1.4,1.4c0,0.7-0.6,1.4-1.4,1.4c-0.7,0-1.4-0.6-1.4-1.4
		C180.4,599.4,181,598.8,181.8,598.8z M169.7,598.8c0.7,0,1.4,0.6,1.4,1.4c0,0.7-0.6,1.4-1.4,1.4c-0.7,0-1.4-0.6-1.4-1.4
		C168.4,599.4,169,598.8,169.7,598.8z M157.7,598.8c0.7,0,1.4,0.6,1.4,1.4c0,0.7-0.6,1.4-1.4,1.4c-0.7,0-1.4-0.6-1.4-1.4
		C156.3,599.4,156.9,598.8,157.7,598.8z M145.6,598.8c0.7,0,1.4,0.6,1.4,1.4c0,0.7-0.6,1.4-1.4,1.4c-0.7,0-1.4-0.6-1.4-1.4
		C144.2,599.4,144.8,598.8,145.6,598.8z M133.5,598.8c0.7,0,1.4,0.6,1.4,1.4c0,0.7-0.6,1.4-1.4,1.4s-1.4-0.6-1.4-1.4
		C132.2,599.4,132.8,598.8,133.5,598.8z M121.5,598.8c0.7,0,1.4,0.6,1.4,1.4c0,0.7-0.6,1.4-1.4,1.4s-1.4-0.6-1.4-1.4
		C120.1,599.4,120.7,598.8,121.5,598.8z M326.4,586.8c0.7,0,1.4,0.6,1.4,1.4c0,0.7-0.6,1.4-1.4,1.4c-0.7,0-1.4-0.6-1.4-1.4
		S325.6,586.8,326.4,586.8z M314.3,586.8c0.7,0,1.4,0.6,1.4,1.4c0,0.7-0.6,1.4-1.4,1.4s-1.4-0.6-1.4-1.4
		C312.9,587.4,313.5,586.8,314.3,586.8z M302.2,586.8c0.7,0,1.4,0.6,1.4,1.4c0,0.7-0.6,1.4-1.4,1.4s-1.4-0.6-1.4-1.4
		C300.9,587.4,301.5,586.8,302.2,586.8z M290.2,586.8c0.7,0,1.4,0.6,1.4,1.4c0,0.7-0.6,1.4-1.4,1.4s-1.4-0.6-1.4-1.4
		S289.4,586.8,290.2,586.8z M278.1,586.8c0.7,0,1.4,0.6,1.4,1.4c0,0.7-0.6,1.4-1.4,1.4c-0.7,0-1.4-0.6-1.4-1.4
		S277.3,586.8,278.1,586.8z M266,586.8c0.7,0,1.4,0.6,1.4,1.4c0,0.7-0.6,1.4-1.4,1.4c-0.7,0-1.4-0.6-1.4-1.4
		C264.7,587.4,265.3,586.8,266,586.8z M254,586.8c0.7,0,1.4,0.6,1.4,1.4c0,0.7-0.6,1.4-1.4,1.4c-0.7,0-1.4-0.6-1.4-1.4
		S253.2,586.8,254,586.8z M241.9,586.8c0.7,0,1.4,0.6,1.4,1.4c0,0.7-0.6,1.4-1.4,1.4c-0.7,0-1.4-0.6-1.4-1.4
		S241.1,586.8,241.9,586.8z M229.8,586.8c0.7,0,1.4,0.6,1.4,1.4c0,0.7-0.6,1.4-1.4,1.4c-0.7,0-1.4-0.6-1.4-1.4
		C228.5,587.4,229.1,586.8,229.8,586.8z M218,586.8c0.7,0,1.4,0.6,1.4,1.4c0,0.7-0.6,1.4-1.4,1.4c-0.7,0-1.4-0.6-1.4-1.4
		C216.6,587.4,217.3,586.8,218,586.8z M205.9,586.8c0.7,0,1.4,0.6,1.4,1.4c0,0.7-0.6,1.4-1.4,1.4c-0.7,0-1.4-0.6-1.4-1.4
		S205.2,586.8,205.9,586.8z M193.9,586.8c0.7,0,1.4,0.6,1.4,1.4c0,0.7-0.6,1.4-1.4,1.4c-0.7,0-1.4-0.6-1.4-1.4
		S193.1,586.8,193.9,586.8z M181.8,586.8c0.7,0,1.4,0.6,1.4,1.4c0,0.7-0.6,1.4-1.4,1.4c-0.7,0-1.4-0.6-1.4-1.4
		C180.4,587.4,181,586.8,181.8,586.8z M169.7,586.8c0.7,0,1.4,0.6,1.4,1.4c0,0.7-0.6,1.4-1.4,1.4c-0.7,0-1.4-0.6-1.4-1.4
		S169,586.8,169.7,586.8z M157.7,586.8c0.7,0,1.4,0.6,1.4,1.4c0,0.7-0.6,1.4-1.4,1.4c-0.7,0-1.4-0.6-1.4-1.4
		S156.9,586.8,157.7,586.8z M145.6,586.8c0.7,0,1.4,0.6,1.4,1.4c0,0.7-0.6,1.4-1.4,1.4c-0.7,0-1.4-0.6-1.4-1.4
		S144.8,586.8,145.6,586.8z M133.5,586.8c0.7,0,1.4,0.6,1.4,1.4c0,0.7-0.6,1.4-1.4,1.4s-1.4-0.6-1.4-1.4S132.8,586.8,133.5,586.8z
		 M121.5,586.8c0.7,0,1.4,0.6,1.4,1.4c0,0.7-0.6,1.4-1.4,1.4s-1.4-0.6-1.4-1.4S120.7,586.8,121.5,586.8z M326.4,574.7
		c0.7,0,1.4,0.6,1.4,1.4c0,0.7-0.6,1.4-1.4,1.4c-0.7,0-1.4-0.6-1.4-1.4S325.6,574.7,326.4,574.7z M314.3,574.7
		c0.7,0,1.4,0.6,1.4,1.4c0,0.7-0.6,1.4-1.4,1.4s-1.4-0.6-1.4-1.4C312.9,575.3,313.5,574.7,314.3,574.7z M302.2,574.7
		c0.7,0,1.4,0.6,1.4,1.4c0,0.7-0.6,1.4-1.4,1.4s-1.4-0.6-1.4-1.4C300.9,575.3,301.5,574.7,302.2,574.7z M290.2,574.7
		c0.7,0,1.4,0.6,1.4,1.4c0,0.7-0.6,1.4-1.4,1.4s-1.4-0.6-1.4-1.4S289.4,574.7,290.2,574.7z M278.1,574.7c0.7,0,1.4,0.6,1.4,1.4
		c0,0.7-0.6,1.4-1.4,1.4c-0.7,0-1.4-0.6-1.4-1.4S277.3,574.7,278.1,574.7z M266,574.7c0.7,0,1.4,0.6,1.4,1.4c0,0.7-0.6,1.4-1.4,1.4
		c-0.7,0-1.4-0.6-1.4-1.4C264.7,575.3,265.3,574.7,266,574.7z M254,574.7c0.7,0,1.4,0.6,1.4,1.4c0,0.7-0.6,1.4-1.4,1.4
		c-0.7,0-1.4-0.6-1.4-1.4S253.2,574.7,254,574.7z M241.9,574.7c0.7,0,1.4,0.6,1.4,1.4c0,0.7-0.6,1.4-1.4,1.4c-0.7,0-1.4-0.6-1.4-1.4
		S241.1,574.7,241.9,574.7z M229.8,574.7c0.7,0,1.4,0.6,1.4,1.4c0,0.7-0.6,1.4-1.4,1.4c-0.7,0-1.4-0.6-1.4-1.4
		C228.5,575.3,229.1,574.7,229.8,574.7z M218,574.7c0.7,0,1.4,0.6,1.4,1.4c0,0.7-0.6,1.4-1.4,1.4c-0.7,0-1.4-0.6-1.4-1.4
		C216.6,575.3,217.3,574.7,218,574.7z M205.9,574.7c0.7,0,1.4,0.6,1.4,1.4c0,0.7-0.6,1.4-1.4,1.4c-0.7,0-1.4-0.6-1.4-1.4
		S205.2,574.7,205.9,574.7z M193.9,574.7c0.7,0,1.4,0.6,1.4,1.4c0,0.7-0.6,1.4-1.4,1.4c-0.7,0-1.4-0.6-1.4-1.4
		S193.1,574.7,193.9,574.7z M181.8,574.7c0.7,0,1.4,0.6,1.4,1.4c0,0.7-0.6,1.4-1.4,1.4c-0.7,0-1.4-0.6-1.4-1.4
		C180.4,575.3,181,574.7,181.8,574.7z M169.7,574.7c0.7,0,1.4,0.6,1.4,1.4c0,0.7-0.6,1.4-1.4,1.4c-0.7,0-1.4-0.6-1.4-1.4
		S169,574.7,169.7,574.7z M157.7,574.7c0.7,0,1.4,0.6,1.4,1.4c0,0.7-0.6,1.4-1.4,1.4c-0.7,0-1.4-0.6-1.4-1.4
		S156.9,574.7,157.7,574.7z M145.6,574.7c0.7,0,1.4,0.6,1.4,1.4c0,0.7-0.6,1.4-1.4,1.4c-0.7,0-1.4-0.6-1.4-1.4
		S144.8,574.7,145.6,574.7z M133.5,574.7c0.7,0,1.4,0.6,1.4,1.4c0,0.7-0.6,1.4-1.4,1.4s-1.4-0.6-1.4-1.4S132.8,574.7,133.5,574.7z
		 M121.5,574.7c0.7,0,1.4,0.6,1.4,1.4c0,0.7-0.6,1.4-1.4,1.4s-1.4-0.6-1.4-1.4S120.7,574.7,121.5,574.7z M326.4,562.7
		c0.7,0,1.4,0.6,1.4,1.4c0,0.7-0.6,1.4-1.4,1.4c-0.7,0-1.4-0.6-1.4-1.4C325,563.3,325.6,562.7,326.4,562.7z M314.3,562.7
		c0.7,0,1.4,0.6,1.4,1.4c0,0.7-0.6,1.4-1.4,1.4s-1.4-0.6-1.4-1.4C312.9,563.3,313.5,562.7,314.3,562.7z M302.2,562.7
		c0.7,0,1.4,0.6,1.4,1.4c0,0.7-0.6,1.4-1.4,1.4s-1.4-0.6-1.4-1.4C300.9,563.3,301.5,562.7,302.2,562.7z M290.2,562.7
		c0.7,0,1.4,0.6,1.4,1.4c0,0.7-0.6,1.4-1.4,1.4s-1.4-0.6-1.4-1.4C288.8,563.3,289.4,562.7,290.2,562.7z M278.1,562.7
		c0.7,0,1.4,0.6,1.4,1.4c0,0.7-0.6,1.4-1.4,1.4c-0.7,0-1.4-0.6-1.4-1.4C276.7,563.3,277.3,562.7,278.1,562.7z M266,562.7
		c0.7,0,1.4,0.6,1.4,1.4c0,0.7-0.6,1.4-1.4,1.4c-0.7,0-1.4-0.6-1.4-1.4C264.7,563.3,265.3,562.7,266,562.7z M254,562.7
		c0.7,0,1.4,0.6,1.4,1.4c0,0.7-0.6,1.4-1.4,1.4c-0.7,0-1.4-0.6-1.4-1.4C252.6,563.3,253.2,562.7,254,562.7z M241.9,562.7
		c0.7,0,1.4,0.6,1.4,1.4c0,0.7-0.6,1.4-1.4,1.4c-0.7,0-1.4-0.6-1.4-1.4C240.5,563.3,241.1,562.7,241.9,562.7z M229.8,562.7
		c0.7,0,1.4,0.6,1.4,1.4c0,0.7-0.6,1.4-1.4,1.4c-0.7,0-1.4-0.6-1.4-1.4C228.5,563.3,229.1,562.7,229.8,562.7z M218,562.7
		c0.7,0,1.4,0.6,1.4,1.4c0,0.7-0.6,1.4-1.4,1.4c-0.7,0-1.4-0.6-1.4-1.4C216.6,563.3,217.3,562.7,218,562.7z M205.9,562.7
		c0.7,0,1.4,0.6,1.4,1.4c0,0.7-0.6,1.4-1.4,1.4c-0.7,0-1.4-0.6-1.4-1.4C204.6,563.3,205.2,562.7,205.9,562.7z M193.9,562.7
		c0.7,0,1.4,0.6,1.4,1.4c0,0.7-0.6,1.4-1.4,1.4c-0.7,0-1.4-0.6-1.4-1.4C192.5,563.3,193.1,562.7,193.9,562.7z M181.8,562.7
		c0.7,0,1.4,0.6,1.4,1.4c0,0.7-0.6,1.4-1.4,1.4c-0.7,0-1.4-0.6-1.4-1.4C180.4,563.3,181,562.7,181.8,562.7z M169.7,562.7
		c0.7,0,1.4,0.6,1.4,1.4c0,0.7-0.6,1.4-1.4,1.4c-0.7,0-1.4-0.6-1.4-1.4C168.4,563.3,169,562.7,169.7,562.7z M157.7,562.7
		c0.7,0,1.4,0.6,1.4,1.4c0,0.7-0.6,1.4-1.4,1.4c-0.7,0-1.4-0.6-1.4-1.4C156.3,563.3,156.9,562.7,157.7,562.7z M145.6,562.7
		c0.7,0,1.4,0.6,1.4,1.4c0,0.7-0.6,1.4-1.4,1.4c-0.7,0-1.4-0.6-1.4-1.4C144.2,563.3,144.8,562.7,145.6,562.7z M133.5,562.7
		c0.7,0,1.4,0.6,1.4,1.4c0,0.7-0.6,1.4-1.4,1.4s-1.4-0.6-1.4-1.4C132.2,563.3,132.8,562.7,133.5,562.7z M121.5,562.7
		c0.7,0,1.4,0.6,1.4,1.4c0,0.7-0.6,1.4-1.4,1.4s-1.4-0.6-1.4-1.4C120.1,563.3,120.7,562.7,121.5,562.7z M326.4,550.7
		c0.7,0,1.4,0.6,1.4,1.4c0,0.7-0.6,1.4-1.4,1.4c-0.7,0-1.4-0.6-1.4-1.4C325,551.3,325.6,550.7,326.4,550.7z M314.3,550.7
		c0.7,0,1.4,0.6,1.4,1.4c0,0.7-0.6,1.4-1.4,1.4s-1.4-0.6-1.4-1.4C312.9,551.3,313.5,550.7,314.3,550.7z M302.2,550.7
		c0.7,0,1.4,0.6,1.4,1.4c0,0.7-0.6,1.4-1.4,1.4s-1.4-0.6-1.4-1.4C300.9,551.3,301.5,550.7,302.2,550.7z M290.2,550.7
		c0.7,0,1.4,0.6,1.4,1.4c0,0.7-0.6,1.4-1.4,1.4s-1.4-0.6-1.4-1.4C288.8,551.3,289.4,550.7,290.2,550.7z M278.1,550.7
		c0.7,0,1.4,0.6,1.4,1.4c0,0.7-0.6,1.4-1.4,1.4c-0.7,0-1.4-0.6-1.4-1.4C276.7,551.3,277.3,550.7,278.1,550.7z M266,550.7
		c0.7,0,1.4,0.6,1.4,1.4c0,0.7-0.6,1.4-1.4,1.4c-0.7,0-1.4-0.6-1.4-1.4C264.7,551.3,265.3,550.7,266,550.7z M254,550.7
		c0.7,0,1.4,0.6,1.4,1.4c0,0.7-0.6,1.4-1.4,1.4c-0.7,0-1.4-0.6-1.4-1.4C252.6,551.3,253.2,550.7,254,550.7z M241.9,550.7
		c0.7,0,1.4,0.6,1.4,1.4c0,0.7-0.6,1.4-1.4,1.4c-0.7,0-1.4-0.6-1.4-1.4C240.5,551.3,241.1,550.7,241.9,550.7z M229.8,550.7
		c0.7,0,1.4,0.6,1.4,1.4c0,0.7-0.6,1.4-1.4,1.4c-0.7,0-1.4-0.6-1.4-1.4C228.5,551.3,229.1,550.7,229.8,550.7z M218,550.7
		c0.7,0,1.4,0.6,1.4,1.4c0,0.7-0.6,1.4-1.4,1.4c-0.7,0-1.4-0.6-1.4-1.4C216.6,551.3,217.3,550.7,218,550.7z M205.9,550.7
		c0.7,0,1.4,0.6,1.4,1.4c0,0.7-0.6,1.4-1.4,1.4c-0.7,0-1.4-0.6-1.4-1.4C204.6,551.3,205.2,550.7,205.9,550.7z M193.9,550.7
		c0.7,0,1.4,0.6,1.4,1.4c0,0.7-0.6,1.4-1.4,1.4c-0.7,0-1.4-0.6-1.4-1.4C192.5,551.3,193.1,550.7,193.9,550.7z M181.8,550.7
		c0.7,0,1.4,0.6,1.4,1.4c0,0.7-0.6,1.4-1.4,1.4c-0.7,0-1.4-0.6-1.4-1.4C180.4,551.3,181,550.7,181.8,550.7z M169.7,550.7
		c0.7,0,1.4,0.6,1.4,1.4c0,0.7-0.6,1.4-1.4,1.4c-0.7,0-1.4-0.6-1.4-1.4C168.4,551.3,169,550.7,169.7,550.7z M157.7,550.7
		c0.7,0,1.4,0.6,1.4,1.4c0,0.7-0.6,1.4-1.4,1.4c-0.7,0-1.4-0.6-1.4-1.4C156.3,551.3,156.9,550.7,157.7,550.7z M145.6,550.7
		c0.7,0,1.4,0.6,1.4,1.4c0,0.7-0.6,1.4-1.4,1.4c-0.7,0-1.4-0.6-1.4-1.4C144.2,551.3,144.8,550.7,145.6,550.7z M133.5,550.7
		c0.7,0,1.4,0.6,1.4,1.4c0,0.7-0.6,1.4-1.4,1.4s-1.4-0.6-1.4-1.4C132.2,551.3,132.8,550.7,133.5,550.7z M121.5,550.7
		c0.7,0,1.4,0.6,1.4,1.4c0,0.7-0.6,1.4-1.4,1.4s-1.4-0.6-1.4-1.4C120.1,551.3,120.7,550.7,121.5,550.7z M326.4,538.6
		c0.7,0,1.4,0.6,1.4,1.4c0,0.7-0.6,1.4-1.4,1.4c-0.7,0-1.4-0.6-1.4-1.4S325.6,538.6,326.4,538.6z M314.3,538.6
		c0.7,0,1.4,0.6,1.4,1.4c0,0.7-0.6,1.4-1.4,1.4s-1.4-0.6-1.4-1.4C312.9,539.2,313.5,538.6,314.3,538.6z M302.2,538.6
		c0.7,0,1.4,0.6,1.4,1.4c0,0.7-0.6,1.4-1.4,1.4s-1.4-0.6-1.4-1.4C300.9,539.2,301.5,538.6,302.2,538.6z M290.2,538.6
		c0.7,0,1.4,0.6,1.4,1.4c0,0.7-0.6,1.4-1.4,1.4s-1.4-0.6-1.4-1.4S289.4,538.6,290.2,538.6z M278.1,538.6c0.7,0,1.4,0.6,1.4,1.4
		c0,0.7-0.6,1.4-1.4,1.4c-0.7,0-1.4-0.6-1.4-1.4S277.3,538.6,278.1,538.6z M266,538.6c0.7,0,1.4,0.6,1.4,1.4c0,0.7-0.6,1.4-1.4,1.4
		c-0.7,0-1.4-0.6-1.4-1.4C264.7,539.2,265.3,538.6,266,538.6z M254,538.6c0.7,0,1.4,0.6,1.4,1.4c0,0.7-0.6,1.4-1.4,1.4
		c-0.7,0-1.4-0.6-1.4-1.4S253.2,538.6,254,538.6z M241.9,538.6c0.7,0,1.4,0.6,1.4,1.4c0,0.7-0.6,1.4-1.4,1.4c-0.7,0-1.4-0.6-1.4-1.4
		S241.1,538.6,241.9,538.6z M229.8,538.6c0.7,0,1.4,0.6,1.4,1.4c0,0.7-0.6,1.4-1.4,1.4c-0.7,0-1.4-0.6-1.4-1.4
		C228.5,539.2,229.1,538.6,229.8,538.6z M218,538.6c0.7,0,1.4,0.6,1.4,1.4c0,0.7-0.6,1.4-1.4,1.4c-0.7,0-1.4-0.6-1.4-1.4
		C216.6,539.2,217.3,538.6,218,538.6z M205.9,538.6c0.7,0,1.4,0.6,1.4,1.4c0,0.7-0.6,1.4-1.4,1.4c-0.7,0-1.4-0.6-1.4-1.4
		S205.2,538.6,205.9,538.6z M193.9,538.6c0.7,0,1.4,0.6,1.4,1.4c0,0.7-0.6,1.4-1.4,1.4c-0.7,0-1.4-0.6-1.4-1.4
		S193.1,538.6,193.9,538.6z M181.8,538.6c0.7,0,1.4,0.6,1.4,1.4c0,0.7-0.6,1.4-1.4,1.4c-0.7,0-1.4-0.6-1.4-1.4
		C180.4,539.2,181,538.6,181.8,538.6z M169.7,538.6c0.7,0,1.4,0.6,1.4,1.4c0,0.7-0.6,1.4-1.4,1.4c-0.7,0-1.4-0.6-1.4-1.4
		S169,538.6,169.7,538.6z M157.7,538.6c0.7,0,1.4,0.6,1.4,1.4c0,0.7-0.6,1.4-1.4,1.4c-0.7,0-1.4-0.6-1.4-1.4
		S156.9,538.6,157.7,538.6z M145.6,538.6c0.7,0,1.4,0.6,1.4,1.4c0,0.7-0.6,1.4-1.4,1.4c-0.7,0-1.4-0.6-1.4-1.4
		S144.8,538.6,145.6,538.6z M133.5,538.6c0.7,0,1.4,0.6,1.4,1.4c0,0.7-0.6,1.4-1.4,1.4s-1.4-0.6-1.4-1.4S132.8,538.6,133.5,538.6z
		 M121.5,538.6c0.7,0,1.4,0.6,1.4,1.4c0,0.7-0.6,1.4-1.4,1.4s-1.4-0.6-1.4-1.4S120.7,538.6,121.5,538.6z M326.4,527.6
		c0.7,0,1.4,0.6,1.4,1.4c0,0.7-0.6,1.4-1.4,1.4c-0.7,0-1.4-0.6-1.4-1.4C325,528.2,325.6,527.6,326.4,527.6z M314.3,527.6
		c0.7,0,1.4,0.6,1.4,1.4c0,0.7-0.6,1.4-1.4,1.4s-1.4-0.6-1.4-1.4C312.9,528.2,313.5,527.6,314.3,527.6z M302.2,527.6
		c0.7,0,1.4,0.6,1.4,1.4c0,0.7-0.6,1.4-1.4,1.4s-1.4-0.6-1.4-1.4C300.9,528.2,301.5,527.6,302.2,527.6z M290.2,527.6
		c0.7,0,1.4,0.6,1.4,1.4c0,0.7-0.6,1.4-1.4,1.4s-1.4-0.6-1.4-1.4C288.8,528.2,289.4,527.6,290.2,527.6z M278.1,527.6
		c0.7,0,1.4,0.6,1.4,1.4c0,0.7-0.6,1.4-1.4,1.4c-0.7,0-1.4-0.6-1.4-1.4C276.7,528.2,277.3,527.6,278.1,527.6z M266,527.6
		c0.7,0,1.4,0.6,1.4,1.4c0,0.7-0.6,1.4-1.4,1.4c-0.7,0-1.4-0.6-1.4-1.4C264.7,528.2,265.3,527.6,266,527.6z M254,527.6
		c0.7,0,1.4,0.6,1.4,1.4c0,0.7-0.6,1.4-1.4,1.4c-0.7,0-1.4-0.6-1.4-1.4C252.6,528.2,253.2,527.6,254,527.6z M241.9,527.6
		c0.7,0,1.4,0.6,1.4,1.4c0,0.7-0.6,1.4-1.4,1.4c-0.7,0-1.4-0.6-1.4-1.4C240.5,528.2,241.1,527.6,241.9,527.6z M229.8,527.6
		c0.7,0,1.4,0.6,1.4,1.4c0,0.7-0.6,1.4-1.4,1.4c-0.7,0-1.4-0.6-1.4-1.4C228.5,528.2,229.1,527.6,229.8,527.6z M218,527.6
		c0.7,0,1.4,0.6,1.4,1.4c0,0.7-0.6,1.4-1.4,1.4c-0.7,0-1.4-0.6-1.4-1.4C216.6,528.2,217.3,527.6,218,527.6z M205.9,527.6
		c0.7,0,1.4,0.6,1.4,1.4c0,0.7-0.6,1.4-1.4,1.4c-0.7,0-1.4-0.6-1.4-1.4C204.6,528.2,205.2,527.6,205.9,527.6z M193.9,527.6
		c0.7,0,1.4,0.6,1.4,1.4c0,0.7-0.6,1.4-1.4,1.4c-0.7,0-1.4-0.6-1.4-1.4C192.5,528.2,193.1,527.6,193.9,527.6z M181.8,527.6
		c0.7,0,1.4,0.6,1.4,1.4c0,0.7-0.6,1.4-1.4,1.4c-0.7,0-1.4-0.6-1.4-1.4C180.4,528.2,181,527.6,181.8,527.6z M169.7,527.6
		c0.7,0,1.4,0.6,1.4,1.4c0,0.7-0.6,1.4-1.4,1.4c-0.7,0-1.4-0.6-1.4-1.4C168.4,528.2,169,527.6,169.7,527.6z M157.7,527.6
		c0.7,0,1.4,0.6,1.4,1.4c0,0.7-0.6,1.4-1.4,1.4c-0.7,0-1.4-0.6-1.4-1.4C156.3,528.2,156.9,527.6,157.7,527.6z M145.6,527.6
		c0.7,0,1.4,0.6,1.4,1.4c0,0.7-0.6,1.4-1.4,1.4c-0.7,0-1.4-0.6-1.4-1.4C144.2,528.2,144.8,527.6,145.6,527.6z M133.5,527.6
		c0.7,0,1.4,0.6,1.4,1.4c0,0.7-0.6,1.4-1.4,1.4s-1.4-0.6-1.4-1.4C132.2,528.2,132.8,527.6,133.5,527.6z M121.5,527.6
		c0.7,0,1.4,0.6,1.4,1.4c0,0.7-0.6,1.4-1.4,1.4s-1.4-0.6-1.4-1.4C120.1,528.2,120.7,527.6,121.5,527.6z M326.4,515.5
		c0.7,0,1.4,0.6,1.4,1.4c0,0.7-0.6,1.4-1.4,1.4c-0.7,0-1.4-0.6-1.4-1.4C325,516.1,325.6,515.5,326.4,515.5z M314.3,515.5
		c0.7,0,1.4,0.6,1.4,1.4c0,0.7-0.6,1.4-1.4,1.4s-1.4-0.6-1.4-1.4C312.9,516.1,313.5,515.5,314.3,515.5z M302.2,515.5
		c0.7,0,1.4,0.6,1.4,1.4c0,0.7-0.6,1.4-1.4,1.4s-1.4-0.6-1.4-1.4C300.9,516.1,301.5,515.5,302.2,515.5z M290.2,515.5
		c0.7,0,1.4,0.6,1.4,1.4c0,0.7-0.6,1.4-1.4,1.4s-1.4-0.6-1.4-1.4C288.8,516.1,289.4,515.5,290.2,515.5z M278.1,515.5
		c0.7,0,1.4,0.6,1.4,1.4c0,0.7-0.6,1.4-1.4,1.4c-0.7,0-1.4-0.6-1.4-1.4C276.7,516.1,277.3,515.5,278.1,515.5z M266,515.5
		c0.7,0,1.4,0.6,1.4,1.4c0,0.7-0.6,1.4-1.4,1.4c-0.7,0-1.4-0.6-1.4-1.4C264.7,516.1,265.3,515.5,266,515.5z M254,515.5
		c0.7,0,1.4,0.6,1.4,1.4c0,0.7-0.6,1.4-1.4,1.4c-0.7,0-1.4-0.6-1.4-1.4C252.6,516.1,253.2,515.5,254,515.5z M241.9,515.5
		c0.7,0,1.4,0.6,1.4,1.4c0,0.7-0.6,1.4-1.4,1.4c-0.7,0-1.4-0.6-1.4-1.4C240.5,516.1,241.1,515.5,241.9,515.5z M229.8,515.5
		c0.7,0,1.4,0.6,1.4,1.4c0,0.7-0.6,1.4-1.4,1.4c-0.7,0-1.4-0.6-1.4-1.4C228.5,516.1,229.1,515.5,229.8,515.5z M218,515.5
		c0.7,0,1.4,0.6,1.4,1.4c0,0.7-0.6,1.4-1.4,1.4c-0.7,0-1.4-0.6-1.4-1.4C216.6,516.1,217.3,515.5,218,515.5z M205.9,515.5
		c0.7,0,1.4,0.6,1.4,1.4c0,0.7-0.6,1.4-1.4,1.4c-0.7,0-1.4-0.6-1.4-1.4C204.6,516.1,205.2,515.5,205.9,515.5z M193.9,515.5
		c0.7,0,1.4,0.6,1.4,1.4c0,0.7-0.6,1.4-1.4,1.4c-0.7,0-1.4-0.6-1.4-1.4C192.5,516.1,193.1,515.5,193.9,515.5z M181.8,515.5
		c0.7,0,1.4,0.6,1.4,1.4c0,0.7-0.6,1.4-1.4,1.4c-0.7,0-1.4-0.6-1.4-1.4C180.4,516.1,181,515.5,181.8,515.5z M169.7,515.5
		c0.7,0,1.4,0.6,1.4,1.4c0,0.7-0.6,1.4-1.4,1.4c-0.7,0-1.4-0.6-1.4-1.4C168.4,516.1,169,515.5,169.7,515.5z M157.7,515.5
		c0.7,0,1.4,0.6,1.4,1.4c0,0.7-0.6,1.4-1.4,1.4c-0.7,0-1.4-0.6-1.4-1.4C156.3,516.1,156.9,515.5,157.7,515.5z M145.6,515.5
		c0.7,0,1.4,0.6,1.4,1.4c0,0.7-0.6,1.4-1.4,1.4c-0.7,0-1.4-0.6-1.4-1.4C144.2,516.1,144.8,515.5,145.6,515.5z M133.5,515.5
		c0.7,0,1.4,0.6,1.4,1.4c0,0.7-0.6,1.4-1.4,1.4s-1.4-0.6-1.4-1.4C132.2,516.1,132.8,515.5,133.5,515.5z M121.5,515.5
		c0.7,0,1.4,0.6,1.4,1.4c0,0.7-0.6,1.4-1.4,1.4s-1.4-0.6-1.4-1.4C120.1,516.1,120.7,515.5,121.5,515.5z M229.8,503.5
		c0.7,0,1.4,0.6,1.4,1.4c0,0.7-0.6,1.4-1.4,1.4c-0.7,0-1.4-0.6-1.4-1.4C228.5,504.1,229.1,503.5,229.8,503.5z M241.9,503.5
		c0.7,0,1.4,0.6,1.4,1.4c0,0.7-0.6,1.4-1.4,1.4c-0.7,0-1.4-0.6-1.4-1.4C240.5,504.1,241.1,503.5,241.9,503.5z M254,503.5
		c0.7,0,1.4,0.6,1.4,1.4c0,0.7-0.6,1.4-1.4,1.4c-0.7,0-1.4-0.6-1.4-1.4C252.6,504.1,253.2,503.5,254,503.5z M266,503.5
		c0.7,0,1.4,0.6,1.4,1.4c0,0.7-0.6,1.4-1.4,1.4c-0.7,0-1.4-0.6-1.4-1.4C264.7,504.1,265.3,503.5,266,503.5z M278.1,503.5
		c0.7,0,1.4,0.6,1.4,1.4c0,0.7-0.6,1.4-1.4,1.4c-0.7,0-1.4-0.6-1.4-1.4C276.7,504.1,277.3,503.5,278.1,503.5z M290.2,503.5
		c0.7,0,1.4,0.6,1.4,1.4c0,0.7-0.6,1.4-1.4,1.4s-1.4-0.6-1.4-1.4C288.8,504.1,289.4,503.5,290.2,503.5z M302.2,503.5
		c0.7,0,1.4,0.6,1.4,1.4c0,0.7-0.6,1.4-1.4,1.4s-1.4-0.6-1.4-1.4C300.9,504.1,301.5,503.5,302.2,503.5z M314.3,503.5
		c0.7,0,1.4,0.6,1.4,1.4c0,0.7-0.6,1.4-1.4,1.4s-1.4-0.6-1.4-1.4C312.9,504.1,313.5,503.5,314.3,503.5z M326.4,503.5
		c0.7,0,1.4,0.6,1.4,1.4c0,0.7-0.6,1.4-1.4,1.4c-0.7,0-1.4-0.6-1.4-1.4C325,504.1,325.6,503.5,326.4,503.5z M121.5,503.5
		c0.7,0,1.4,0.6,1.4,1.4c0,0.7-0.6,1.4-1.4,1.4s-1.4-0.6-1.4-1.4C120.1,504.1,120.7,503.5,121.5,503.5z M133.5,503.5
		c0.7,0,1.4,0.6,1.4,1.4c0,0.7-0.6,1.4-1.4,1.4s-1.4-0.6-1.4-1.4C132.2,504.1,132.8,503.5,133.5,503.5z M145.6,503.5
		c0.7,0,1.4,0.6,1.4,1.4c0,0.7-0.6,1.4-1.4,1.4c-0.7,0-1.4-0.6-1.4-1.4C144.2,504.1,144.8,503.5,145.6,503.5z M157.7,503.5
		c0.7,0,1.4,0.6,1.4,1.4c0,0.7-0.6,1.4-1.4,1.4c-0.7,0-1.4-0.6-1.4-1.4C156.3,504.1,156.9,503.5,157.7,503.5z M169.7,503.5
		c0.7,0,1.4,0.6,1.4,1.4c0,0.7-0.6,1.4-1.4,1.4c-0.7,0-1.4-0.6-1.4-1.4C168.4,504.1,169,503.5,169.7,503.5z M181.8,503.5
		c0.7,0,1.4,0.6,1.4,1.4c0,0.7-0.6,1.4-1.4,1.4c-0.7,0-1.4-0.6-1.4-1.4C180.4,504.1,181,503.5,181.8,503.5z M193.9,503.5
		c0.7,0,1.4,0.6,1.4,1.4c0,0.7-0.6,1.4-1.4,1.4c-0.7,0-1.4-0.6-1.4-1.4C192.5,504.1,193.1,503.5,193.9,503.5z M205.9,503.5
		c0.7,0,1.4,0.6,1.4,1.4c0,0.7-0.6,1.4-1.4,1.4c-0.7,0-1.4-0.6-1.4-1.4C204.6,504.1,205.2,503.5,205.9,503.5z M218,503.5
		c0.7,0,1.4,0.6,1.4,1.4c0,0.7-0.6,1.4-1.4,1.4c-0.7,0-1.4-0.6-1.4-1.4C216.6,504.1,217.3,503.5,218,503.5z M229.8,491.5
		c0.7,0,1.4,0.6,1.4,1.4c0,0.7-0.6,1.4-1.4,1.4c-0.7,0-1.4-0.6-1.4-1.4C228.5,492.1,229.1,491.5,229.8,491.5z M241.9,491.5
		c0.7,0,1.4,0.6,1.4,1.4c0,0.7-0.6,1.4-1.4,1.4c-0.7,0-1.4-0.6-1.4-1.4C240.5,492.1,241.1,491.5,241.9,491.5z M254,491.5
		c0.7,0,1.4,0.6,1.4,1.4c0,0.7-0.6,1.4-1.4,1.4c-0.7,0-1.4-0.6-1.4-1.4C252.6,492.1,253.2,491.5,254,491.5z M266,491.5
		c0.7,0,1.4,0.6,1.4,1.4c0,0.7-0.6,1.4-1.4,1.4c-0.7,0-1.4-0.6-1.4-1.4C264.7,492.1,265.3,491.5,266,491.5z M278.1,491.5
		c0.7,0,1.4,0.6,1.4,1.4c0,0.7-0.6,1.4-1.4,1.4c-0.7,0-1.4-0.6-1.4-1.4C276.7,492.1,277.3,491.5,278.1,491.5z M290.2,491.5
		c0.7,0,1.4,0.6,1.4,1.4c0,0.7-0.6,1.4-1.4,1.4s-1.4-0.6-1.4-1.4C288.8,492.1,289.4,491.5,290.2,491.5z M302.2,491.5
		c0.7,0,1.4,0.6,1.4,1.4c0,0.7-0.6,1.4-1.4,1.4s-1.4-0.6-1.4-1.4C300.9,492.1,301.5,491.5,302.2,491.5z M314.3,491.5
		c0.7,0,1.4,0.6,1.4,1.4c0,0.7-0.6,1.4-1.4,1.4s-1.4-0.6-1.4-1.4C312.9,492.1,313.5,491.5,314.3,491.5z M326.4,491.5
		c0.7,0,1.4,0.6,1.4,1.4c0,0.7-0.6,1.4-1.4,1.4c-0.7,0-1.4-0.6-1.4-1.4C325,492.1,325.6,491.5,326.4,491.5z M121.5,491.5
		c0.7,0,1.4,0.6,1.4,1.4c0,0.7-0.6,1.4-1.4,1.4s-1.4-0.6-1.4-1.4C120.1,492.1,120.7,491.5,121.5,491.5z M133.5,491.5
		c0.7,0,1.4,0.6,1.4,1.4c0,0.7-0.6,1.4-1.4,1.4s-1.4-0.6-1.4-1.4C132.2,492.1,132.8,491.5,133.5,491.5z M145.6,491.5
		c0.7,0,1.4,0.6,1.4,1.4c0,0.7-0.6,1.4-1.4,1.4c-0.7,0-1.4-0.6-1.4-1.4C144.2,492.1,144.8,491.5,145.6,491.5z M157.7,491.5
		c0.7,0,1.4,0.6,1.4,1.4c0,0.7-0.6,1.4-1.4,1.4c-0.7,0-1.4-0.6-1.4-1.4C156.3,492.1,156.9,491.5,157.7,491.5z M169.7,491.5
		c0.7,0,1.4,0.6,1.4,1.4c0,0.7-0.6,1.4-1.4,1.4c-0.7,0-1.4-0.6-1.4-1.4C168.4,492.1,169,491.5,169.7,491.5z M181.8,491.5
		c0.7,0,1.4,0.6,1.4,1.4c0,0.7-0.6,1.4-1.4,1.4c-0.7,0-1.4-0.6-1.4-1.4C180.4,492.1,181,491.5,181.8,491.5z M193.9,491.5
		c0.7,0,1.4,0.6,1.4,1.4c0,0.7-0.6,1.4-1.4,1.4c-0.7,0-1.4-0.6-1.4-1.4C192.5,492.1,193.1,491.5,193.9,491.5z M205.9,491.5
		c0.7,0,1.4,0.6,1.4,1.4c0,0.7-0.6,1.4-1.4,1.4c-0.7,0-1.4-0.6-1.4-1.4C204.6,492.1,205.2,491.5,205.9,491.5z M218,491.5
		c0.7,0,1.4,0.6,1.4,1.4c0,0.7-0.6,1.4-1.4,1.4c-0.7,0-1.4-0.6-1.4-1.4C216.6,492.1,217.3,491.5,218,491.5z M229.8,479.4
		c0.7,0,1.4,0.6,1.4,1.4c0,0.7-0.6,1.4-1.4,1.4c-0.7,0-1.4-0.6-1.4-1.4C228.5,480,229.1,479.4,229.8,479.4z M241.9,479.4
		c0.7,0,1.4,0.6,1.4,1.4c0,0.7-0.6,1.4-1.4,1.4c-0.7,0-1.4-0.6-1.4-1.4C240.5,480,241.1,479.4,241.9,479.4z M254,479.4
		c0.7,0,1.4,0.6,1.4,1.4c0,0.7-0.6,1.4-1.4,1.4c-0.7,0-1.4-0.6-1.4-1.4C252.6,480,253.2,479.4,254,479.4z M266,479.4
		c0.7,0,1.4,0.6,1.4,1.4c0,0.7-0.6,1.4-1.4,1.4c-0.7,0-1.4-0.6-1.4-1.4C264.7,480,265.3,479.4,266,479.4z M278.1,479.4
		c0.7,0,1.4,0.6,1.4,1.4c0,0.7-0.6,1.4-1.4,1.4c-0.7,0-1.4-0.6-1.4-1.4C276.7,480,277.3,479.4,278.1,479.4z M290.2,479.4
		c0.7,0,1.4,0.6,1.4,1.4c0,0.7-0.6,1.4-1.4,1.4s-1.4-0.6-1.4-1.4C288.8,480,289.4,479.4,290.2,479.4z M302.2,479.4
		c0.7,0,1.4,0.6,1.4,1.4c0,0.7-0.6,1.4-1.4,1.4s-1.4-0.6-1.4-1.4C300.9,480,301.5,479.4,302.2,479.4z M314.3,479.4
		c0.7,0,1.4,0.6,1.4,1.4c0,0.7-0.6,1.4-1.4,1.4s-1.4-0.6-1.4-1.4C312.9,480,313.5,479.4,314.3,479.4z M326.4,479.4
		c0.7,0,1.4,0.6,1.4,1.4c0,0.7-0.6,1.4-1.4,1.4c-0.7,0-1.4-0.6-1.4-1.4C325,480,325.6,479.4,326.4,479.4z M121.5,479.4
		c0.7,0,1.4,0.6,1.4,1.4c0,0.7-0.6,1.4-1.4,1.4s-1.4-0.6-1.4-1.4C120.1,480,120.7,479.4,121.5,479.4z M133.5,479.4
		c0.7,0,1.4,0.6,1.4,1.4c0,0.7-0.6,1.4-1.4,1.4s-1.4-0.6-1.4-1.4C132.2,480,132.8,479.4,133.5,479.4z M145.6,479.4
		c0.7,0,1.4,0.6,1.4,1.4c0,0.7-0.6,1.4-1.4,1.4c-0.7,0-1.4-0.6-1.4-1.4C144.2,480,144.8,479.4,145.6,479.4z M157.7,479.4
		c0.7,0,1.4,0.6,1.4,1.4c0,0.7-0.6,1.4-1.4,1.4c-0.7,0-1.4-0.6-1.4-1.4C156.3,480,156.9,479.4,157.7,479.4z M169.7,479.4
		c0.7,0,1.4,0.6,1.4,1.4c0,0.7-0.6,1.4-1.4,1.4c-0.7,0-1.4-0.6-1.4-1.4C168.4,480,169,479.4,169.7,479.4z M181.8,479.4
		c0.7,0,1.4,0.6,1.4,1.4c0,0.7-0.6,1.4-1.4,1.4c-0.7,0-1.4-0.6-1.4-1.4C180.4,480,181,479.4,181.8,479.4z M193.9,479.4
		c0.7,0,1.4,0.6,1.4,1.4c0,0.7-0.6,1.4-1.4,1.4c-0.7,0-1.4-0.6-1.4-1.4C192.5,480,193.1,479.4,193.9,479.4z M205.9,479.4
		c0.7,0,1.4,0.6,1.4,1.4c0,0.7-0.6,1.4-1.4,1.4c-0.7,0-1.4-0.6-1.4-1.4C204.6,480,205.2,479.4,205.9,479.4z M218,479.4
		c0.7,0,1.4,0.6,1.4,1.4c0,0.7-0.6,1.4-1.4,1.4c-0.7,0-1.4-0.6-1.4-1.4C216.6,480,217.3,479.4,218,479.4z M229.8,467.4
		c0.7,0,1.4,0.6,1.4,1.4c0,0.7-0.6,1.4-1.4,1.4c-0.7,0-1.4-0.6-1.4-1.4C228.5,468,229.1,467.4,229.8,467.4z M241.9,467.4
		c0.7,0,1.4,0.6,1.4,1.4c0,0.7-0.6,1.4-1.4,1.4c-0.7,0-1.4-0.6-1.4-1.4C240.5,468,241.1,467.4,241.9,467.4z M254,467.4
		c0.7,0,1.4,0.6,1.4,1.4c0,0.7-0.6,1.4-1.4,1.4c-0.7,0-1.4-0.6-1.4-1.4S253.2,467.4,254,467.4z M266,467.4c0.7,0,1.4,0.6,1.4,1.4
		c0,0.7-0.6,1.4-1.4,1.4c-0.7,0-1.4-0.6-1.4-1.4C264.7,468,265.3,467.4,266,467.4z M278.1,467.4c0.7,0,1.4,0.6,1.4,1.4
		c0,0.7-0.6,1.4-1.4,1.4c-0.7,0-1.4-0.6-1.4-1.4S277.3,467.4,278.1,467.4z M290.2,467.4c0.7,0,1.4,0.6,1.4,1.4
		c0,0.7-0.6,1.4-1.4,1.4s-1.4-0.6-1.4-1.4S289.4,467.4,290.2,467.4z M302.2,467.4c0.7,0,1.4,0.6,1.4,1.4c0,0.7-0.6,1.4-1.4,1.4
		s-1.4-0.6-1.4-1.4C300.9,468,301.5,467.4,302.2,467.4z M314.3,467.4c0.7,0,1.4,0.6,1.4,1.4c0,0.7-0.6,1.4-1.4,1.4s-1.4-0.6-1.4-1.4
		C312.9,468,313.5,467.4,314.3,467.4z M326.4,467.4c0.7,0,1.4,0.6,1.4,1.4c0,0.7-0.6,1.4-1.4,1.4c-0.7,0-1.4-0.6-1.4-1.4
		S325.6,467.4,326.4,467.4z M121.5,467.4c0.7,0,1.4,0.6,1.4,1.4c0,0.7-0.6,1.4-1.4,1.4s-1.4-0.6-1.4-1.4S120.7,467.4,121.5,467.4z
		 M133.5,467.4c0.7,0,1.4,0.6,1.4,1.4c0,0.7-0.6,1.4-1.4,1.4s-1.4-0.6-1.4-1.4S132.8,467.4,133.5,467.4z M145.6,467.4
		c0.7,0,1.4,0.6,1.4,1.4c0,0.7-0.6,1.4-1.4,1.4c-0.7,0-1.4-0.6-1.4-1.4S144.8,467.4,145.6,467.4z M157.7,467.4
		c0.7,0,1.4,0.6,1.4,1.4c0,0.7-0.6,1.4-1.4,1.4c-0.7,0-1.4-0.6-1.4-1.4S156.9,467.4,157.7,467.4z M169.7,467.4
		c0.7,0,1.4,0.6,1.4,1.4c0,0.7-0.6,1.4-1.4,1.4c-0.7,0-1.4-0.6-1.4-1.4S169,467.4,169.7,467.4z M181.8,467.4c0.7,0,1.4,0.6,1.4,1.4
		c0,0.7-0.6,1.4-1.4,1.4c-0.7,0-1.4-0.6-1.4-1.4C180.4,468,181,467.4,181.8,467.4z M193.9,467.4c0.7,0,1.4,0.6,1.4,1.4
		c0,0.7-0.6,1.4-1.4,1.4c-0.7,0-1.4-0.6-1.4-1.4S193.1,467.4,193.9,467.4z M205.9,467.4c0.7,0,1.4,0.6,1.4,1.4
		c0,0.7-0.6,1.4-1.4,1.4c-0.7,0-1.4-0.6-1.4-1.4S205.2,467.4,205.9,467.4z M218,467.4c0.7,0,1.4,0.6,1.4,1.4c0,0.7-0.6,1.4-1.4,1.4
		c-0.7,0-1.4-0.6-1.4-1.4C216.6,468,217.3,467.4,218,467.4z M218,455.4c0.7,0,1.4,0.6,1.4,1.4c0,0.7-0.6,1.4-1.4,1.4
		c-0.7,0-1.4-0.6-1.4-1.4C216.6,456,217.3,455.4,218,455.4z M229.8,455.4c0.7,0,1.4,0.6,1.4,1.4c0,0.7-0.6,1.4-1.4,1.4
		c-0.7,0-1.4-0.6-1.4-1.4C228.5,456,229.1,455.4,229.8,455.4z M241.9,455.4c0.7,0,1.4,0.6,1.4,1.4c0,0.7-0.6,1.4-1.4,1.4
		c-0.7,0-1.4-0.6-1.4-1.4C240.5,456,241.1,455.4,241.9,455.4z M254,455.4c0.7,0,1.4,0.6,1.4,1.4c0,0.7-0.6,1.4-1.4,1.4
		c-0.7,0-1.4-0.6-1.4-1.4C252.6,456,253.2,455.4,254,455.4z M266,455.4c0.7,0,1.4,0.6,1.4,1.4c0,0.7-0.6,1.4-1.4,1.4
		c-0.7,0-1.4-0.6-1.4-1.4C264.7,456,265.3,455.4,266,455.4z M278.1,455.4c0.7,0,1.4,0.6,1.4,1.4c0,0.7-0.6,1.4-1.4,1.4
		c-0.7,0-1.4-0.6-1.4-1.4C276.7,456,277.3,455.4,278.1,455.4z M290.2,455.4c0.7,0,1.4,0.6,1.4,1.4c0,0.7-0.6,1.4-1.4,1.4
		s-1.4-0.6-1.4-1.4C288.8,456,289.4,455.4,290.2,455.4z M302.2,455.4c0.7,0,1.4,0.6,1.4,1.4c0,0.7-0.6,1.4-1.4,1.4s-1.4-0.6-1.4-1.4
		C300.9,456,301.5,455.4,302.2,455.4z M314.3,455.4c0.7,0,1.4,0.6,1.4,1.4c0,0.7-0.6,1.4-1.4,1.4s-1.4-0.6-1.4-1.4
		C312.9,456,313.5,455.4,314.3,455.4z M326.4,455.4c0.7,0,1.4,0.6,1.4,1.4c0,0.7-0.6,1.4-1.4,1.4c-0.7,0-1.4-0.6-1.4-1.4
		C325,456,325.6,455.4,326.4,455.4z M121.5,455.4c0.7,0,1.4,0.6,1.4,1.4c0,0.7-0.6,1.4-1.4,1.4s-1.4-0.6-1.4-1.4
		C120.1,456,120.7,455.4,121.5,455.4z M133.5,455.4c0.7,0,1.4,0.6,1.4,1.4c0,0.7-0.6,1.4-1.4,1.4s-1.4-0.6-1.4-1.4
		C132.2,456,132.8,455.4,133.5,455.4z M145.6,455.4c0.7,0,1.4,0.6,1.4,1.4c0,0.7-0.6,1.4-1.4,1.4c-0.7,0-1.4-0.6-1.4-1.4
		C144.2,456,144.8,455.4,145.6,455.4z M157.7,455.4c0.7,0,1.4,0.6,1.4,1.4c0,0.7-0.6,1.4-1.4,1.4c-0.7,0-1.4-0.6-1.4-1.4
		C156.3,456,156.9,455.4,157.7,455.4z M169.7,455.4c0.7,0,1.4,0.6,1.4,1.4c0,0.7-0.6,1.4-1.4,1.4c-0.7,0-1.4-0.6-1.4-1.4
		C168.4,456,169,455.4,169.7,455.4z M181.8,455.4c0.7,0,1.4,0.6,1.4,1.4c0,0.7-0.6,1.4-1.4,1.4c-0.7,0-1.4-0.6-1.4-1.4
		C180.4,456,181,455.4,181.8,455.4z M193.9,455.4c0.7,0,1.4,0.6,1.4,1.4c0,0.7-0.6,1.4-1.4,1.4c-0.7,0-1.4-0.6-1.4-1.4
		C192.5,456,193.1,455.4,193.9,455.4z M205.9,455.4c0.7,0,1.4,0.6,1.4,1.4c0,0.7-0.6,1.4-1.4,1.4c-0.7,0-1.4-0.6-1.4-1.4
		C204.6,456,205.2,455.4,205.9,455.4z M229.8,443.3c0.7,0,1.4,0.6,1.4,1.4c0,0.7-0.6,1.4-1.4,1.4c-0.7,0-1.4-0.6-1.4-1.4
		C228.5,443.9,229.1,443.3,229.8,443.3z M241.9,443.3c0.7,0,1.4,0.6,1.4,1.4c0,0.7-0.6,1.4-1.4,1.4c-0.7,0-1.4-0.6-1.4-1.4
		C240.5,443.9,241.1,443.3,241.9,443.3z M254,443.3c0.7,0,1.4,0.6,1.4,1.4c0,0.7-0.6,1.4-1.4,1.4c-0.7,0-1.4-0.6-1.4-1.4
		C252.6,443.9,253.2,443.3,254,443.3z M266,443.3c0.7,0,1.4,0.6,1.4,1.4c0,0.7-0.6,1.4-1.4,1.4c-0.7,0-1.4-0.6-1.4-1.4
		C264.7,443.9,265.3,443.3,266,443.3z M278.1,443.3c0.7,0,1.4,0.6,1.4,1.4c0,0.7-0.6,1.4-1.4,1.4c-0.7,0-1.4-0.6-1.4-1.4
		C276.7,443.9,277.3,443.3,278.1,443.3z M290.2,443.3c0.7,0,1.4,0.6,1.4,1.4c0,0.7-0.6,1.4-1.4,1.4s-1.4-0.6-1.4-1.4
		C288.8,443.9,289.4,443.3,290.2,443.3z M302.2,443.3c0.7,0,1.4,0.6,1.4,1.4c0,0.7-0.6,1.4-1.4,1.4s-1.4-0.6-1.4-1.4
		C300.9,443.9,301.5,443.3,302.2,443.3z M314.3,443.3c0.7,0,1.4,0.6,1.4,1.4c0,0.7-0.6,1.4-1.4,1.4s-1.4-0.6-1.4-1.4
		C312.9,443.9,313.5,443.3,314.3,443.3z M326.4,443.3c0.7,0,1.4,0.6,1.4,1.4c0,0.7-0.6,1.4-1.4,1.4c-0.7,0-1.4-0.6-1.4-1.4
		C325,443.9,325.6,443.3,326.4,443.3z M121.5,443.3c0.7,0,1.4,0.6,1.4,1.4c0,0.7-0.6,1.4-1.4,1.4s-1.4-0.6-1.4-1.4
		C120.1,443.9,120.7,443.3,121.5,443.3z M133.5,443.3c0.7,0,1.4,0.6,1.4,1.4c0,0.7-0.6,1.4-1.4,1.4s-1.4-0.6-1.4-1.4
		C132.2,443.9,132.8,443.3,133.5,443.3z M145.6,443.3c0.7,0,1.4,0.6,1.4,1.4c0,0.7-0.6,1.4-1.4,1.4c-0.7,0-1.4-0.6-1.4-1.4
		C144.2,443.9,144.8,443.3,145.6,443.3z M157.7,443.3c0.7,0,1.4,0.6,1.4,1.4c0,0.7-0.6,1.4-1.4,1.4c-0.7,0-1.4-0.6-1.4-1.4
		C156.3,443.9,156.9,443.3,157.7,443.3z M169.7,443.3c0.7,0,1.4,0.6,1.4,1.4c0,0.7-0.6,1.4-1.4,1.4c-0.7,0-1.4-0.6-1.4-1.4
		C168.4,443.9,169,443.3,169.7,443.3z M181.8,443.3c0.7,0,1.4,0.6,1.4,1.4c0,0.7-0.6,1.4-1.4,1.4c-0.7,0-1.4-0.6-1.4-1.4
		C180.4,443.9,181,443.3,181.8,443.3z M193.9,443.3c0.7,0,1.4,0.6,1.4,1.4c0,0.7-0.6,1.4-1.4,1.4c-0.7,0-1.4-0.6-1.4-1.4
		C192.5,443.9,193.1,443.3,193.9,443.3z M205.9,443.3c0.7,0,1.4,0.6,1.4,1.4c0,0.7-0.6,1.4-1.4,1.4c-0.7,0-1.4-0.6-1.4-1.4
		C204.6,443.9,205.2,443.3,205.9,443.3z M218,443.3c0.7,0,1.4,0.6,1.4,1.4c0,0.7-0.6,1.4-1.4,1.4c-0.7,0-1.4-0.6-1.4-1.4
		C216.6,443.9,217.3,443.3,218,443.3z M229.8,431.3c0.7,0,1.4,0.6,1.4,1.4c0,0.7-0.6,1.4-1.4,1.4c-0.7,0-1.4-0.6-1.4-1.4
		C228.5,431.9,229.1,431.3,229.8,431.3z M241.9,431.3c0.7,0,1.4,0.6,1.4,1.4c0,0.7-0.6,1.4-1.4,1.4c-0.7,0-1.4-0.6-1.4-1.4
		S241.1,431.3,241.9,431.3z M254,431.3c0.7,0,1.4,0.6,1.4,1.4c0,0.7-0.6,1.4-1.4,1.4c-0.7,0-1.4-0.6-1.4-1.4S253.2,431.3,254,431.3z
		 M266,431.3c0.7,0,1.4,0.6,1.4,1.4c0,0.7-0.6,1.4-1.4,1.4c-0.7,0-1.4-0.6-1.4-1.4C264.7,431.9,265.3,431.3,266,431.3z M278.1,431.3
		c0.7,0,1.4,0.6,1.4,1.4c0,0.7-0.6,1.4-1.4,1.4c-0.7,0-1.4-0.6-1.4-1.4S277.3,431.3,278.1,431.3z M290.2,431.3
		c0.7,0,1.4,0.6,1.4,1.4c0,0.7-0.6,1.4-1.4,1.4s-1.4-0.6-1.4-1.4S289.4,431.3,290.2,431.3z M302.2,431.3c0.7,0,1.4,0.6,1.4,1.4
		c0,0.7-0.6,1.4-1.4,1.4s-1.4-0.6-1.4-1.4C300.9,431.9,301.5,431.3,302.2,431.3z M314.3,431.3c0.7,0,1.4,0.6,1.4,1.4
		c0,0.7-0.6,1.4-1.4,1.4s-1.4-0.6-1.4-1.4C312.9,431.9,313.5,431.3,314.3,431.3z M326.4,431.3c0.7,0,1.4,0.6,1.4,1.4
		c0,0.7-0.6,1.4-1.4,1.4c-0.7,0-1.4-0.6-1.4-1.4S325.6,431.3,326.4,431.3z M121.5,431.3c0.7,0,1.4,0.6,1.4,1.4
		c0,0.7-0.6,1.4-1.4,1.4s-1.4-0.6-1.4-1.4S120.7,431.3,121.5,431.3z M133.5,431.3c0.7,0,1.4,0.6,1.4,1.4c0,0.7-0.6,1.4-1.4,1.4
		s-1.4-0.6-1.4-1.4S132.8,431.3,133.5,431.3z M145.6,431.3c0.7,0,1.4,0.6,1.4,1.4c0,0.7-0.6,1.4-1.4,1.4c-0.7,0-1.4-0.6-1.4-1.4
		S144.8,431.3,145.6,431.3z M157.7,431.3c0.7,0,1.4,0.6,1.4,1.4c0,0.7-0.6,1.4-1.4,1.4c-0.7,0-1.4-0.6-1.4-1.4
		S156.9,431.3,157.7,431.3z M169.7,431.3c0.7,0,1.4,0.6,1.4,1.4c0,0.7-0.6,1.4-1.4,1.4c-0.7,0-1.4-0.6-1.4-1.4
		S169,431.3,169.7,431.3z M181.8,431.3c0.7,0,1.4,0.6,1.4,1.4c0,0.7-0.6,1.4-1.4,1.4c-0.7,0-1.4-0.6-1.4-1.4
		C180.4,431.9,181,431.3,181.8,431.3z M193.9,431.3c0.7,0,1.4,0.6,1.4,1.4c0,0.7-0.6,1.4-1.4,1.4c-0.7,0-1.4-0.6-1.4-1.4
		S193.1,431.3,193.9,431.3z M205.9,431.3c0.7,0,1.4,0.6,1.4,1.4c0,0.7-0.6,1.4-1.4,1.4c-0.7,0-1.4-0.6-1.4-1.4
		S205.2,431.3,205.9,431.3z M218,431.3c0.7,0,1.4,0.6,1.4,1.4c0,0.7-0.6,1.4-1.4,1.4c-0.7,0-1.4-0.6-1.4-1.4
		C216.6,431.9,217.3,431.3,218,431.3z"/>
</g>
</svg>
