<?xml version="1.0" encoding="utf-8"?>
<!-- Generator: Adobe Illustrator 24.1.1, SVG Export Plug-In . SVG Version: 6.00 Build 0)  -->
<svg version="1.1" id="Calque_1" xmlns="http://www.w3.org/2000/svg" xmlns:xlink="http://www.w3.org/1999/xlink" x="0px" y="0px"
	 viewBox="0 0 500 500" style="enable-background:new 0 0 500 500;" xml:space="preserve">
<style type="text/css">
	.st0{fill-rule:evenodd;clip-rule:evenodd;fill:#F5F5F9;}
	.st1{clip-path:url(#SVGID_2_);}
	.st2{clip-path:url(#SVGID_4_);}
	.st3{clip-path:url(#SVGID_6_);}
	.st4{fill:#020203;}
</style>
<path class="st0" d="M-0.1,250.4c0-138.1,111.9-250,250-250s250,111.9,250,250s-111.9,250-250,250S-0.1,388.4-0.1,250.4z"/>
<g>
	<defs>
		<rect id="SVGID_1_" x="129.9" y="120.4" width="250" height="250"/>
	</defs>
	<clipPath id="SVGID_2_">
		<use xlink:href="#SVGID_1_"  style="overflow:visible;"/>
	</clipPath>
	<g class="st1">
		<g>
			<defs>
				<rect id="SVGID_3_" x="129.9" y="120.4" width="250" height="250"/>
			</defs>
			<clipPath id="SVGID_4_">
				<use xlink:href="#SVGID_3_"  style="overflow:visible;"/>
			</clipPath>
			<g class="st2">
				<g>
					<defs>
						<rect id="SVGID_5_" x="129.9" y="120.4" width="250" height="250"/>
					</defs>
					<clipPath id="SVGID_6_">
						<use xlink:href="#SVGID_5_"  style="overflow:visible;"/>
					</clipPath>
					<g class="st3">
						<path class="st4" d="M319.4,345L319.4,345l-0.1-35.6c0-12.1-7.7-27.1-17.4-34.3l-37.3-27.4V243l37.3-27.4
							c9.7-7.1,17.4-22.2,17.4-34.3v-35.7h0c6.5,0,11.7-5.2,11.7-11.7v-2c0-6.5-5.2-11.7-11.7-11.7H190.5c-6.5,0-11.7,5.3-11.7,11.7
							v2c0,6.5,5.3,11.7,11.7,11.7l0.1,35.6c0,12.1,7.6,27.1,17.3,34.2l37.3,27.4v4.6l-37.3,27.4c-9.7,7.1-17.3,22.2-17.3,34.2V345
							l0,0c-6.5,0-11.7,5.3-11.7,11.7v2c0,6.5,5.3,11.7,11.7,11.7h129c6.5,0,11.7-5.3,11.7-11.7v-2C331.1,350.2,325.9,345,319.4,345
							z M311.6,345h-9.8v-30.6c0-8.9-5.6-20-12.8-25.3l-31.7-23.4c-1.4-1-3.2-1-4.6,0l-31.9,23.4c-7.2,5.3-12.8,16.4-12.8,25.3V345
							h-9.8v-35.6c0-9.5,6.5-22.3,14.2-28l38.9-28.6c1-0.7,1.6-1.9,1.6-3.2v-8.6c0-1.3-0.6-2.4-1.6-3.2l-39-28.6
							c-7.7-5.6-14.2-18.4-14.2-27.9v-35.7h113.3v35.7c0,9.5-6.6,22.3-14.3,28l-38.8,28.6c-1,0.7-1.6,1.9-1.6,3.1v8.6
							c0,1.2,0.6,2.4,1.6,3.2l38.8,28.5c7.7,5.7,14.3,18.5,14.3,28V345z"/>
						<path class="st4" d="M290.5,197.3c-0.5-1.6-2-2.7-3.7-2.7l-63.6,0c-1.7,0-3.2,1.1-3.7,2.7c-0.5,1.6,0,3.4,1.4,4.4l31.9,23.4
							c0.7,0.5,1.5,0.8,2.3,0.8s1.6-0.2,2.3-0.8l31.7-23.4C290.4,200.7,291,198.9,290.5,197.3z"/>
					</g>
				</g>
			</g>
		</g>
	</g>
</g>
</svg>
